# Blender v2.91.0 OBJ File: ''
# www.blender.org
o bl_foot_mesh1_mesh1-geometry.004
v 0.270759 0.219992 -0.287681
v 0.304604 0.219992 -0.287681
v 0.304604 0.219992 -0.304604
v 0.304604 -0.253837 -0.287681
v 0.270759 0.219992 -0.304604
v 0.270759 -0.253837 -0.287681
v 0.270759 -0.253837 -0.304604
v 0.304604 -0.253837 -0.304604
vn 0.0000 0.0000 -1.0000
vn -1.0000 0.0000 0.0000
vn 0.0000 -0.0000 1.0000
vn 1.0000 0.0000 0.0000
vn 0.0000 1.0000 0.0000
s off
f 2//1 4//1 1//1
f 2//2 3//2 4//2
f 4//3 1//3 6//3
f 5//4 1//4 7//4
f 8//2 4//2 3//2
f 3//1 7//1 5//1
f 6//4 7//4 1//4
f 6//5 4//5 7//5
f 8//5 7//5 4//5
f 8//3 3//3 7//3
