# Blender v2.91.0 OBJ File: 'model.blend'
# www.blender.org
o tr_foot_mesh1_mesh1-geometry.002
v -0.270759 0.219992 0.287681
v -0.270759 0.219992 0.304604
v -0.304604 0.219992 0.287681
v -0.270759 -0.253837 0.304604
v -0.304604 -0.253837 0.287681
v -0.270759 -0.253837 0.287681
v -0.304604 0.219992 0.304604
v -0.304604 -0.253837 0.304604
vn 1.0000 -0.0000 0.0000
vn 0.0000 0.0000 -1.0000
vn 0.0000 -0.0000 1.0000
vn -1.0000 0.0000 0.0000
vn 0.0000 1.0000 0.0000
vn 0.0000 -1.0000 0.0000
s off
f 4//1 1//1 2//1
f 1//2 5//2 3//2
f 1//1 4//1 6//1
f 7//3 4//3 2//3
f 6//3 1//3 5//3
f 5//4 7//4 3//4
f 6//5 5//5 4//5
f 8//2 7//2 4//2
f 7//4 5//4 8//4
f 5//6 4//6 8//6
