# File produced by Open Asset Import Library (http://www.assimp.sf.net)
# (assimp v3.2.202087883)

mtllib model_normalized.mtl

# 76 vertex positions
v 0.232257 0.018324 0.246183
v 0.232257 -0.120938 0.232257
v 0.232257 -0.120938 0.246183
v 0.232257 0.018324 0.232257
v 0.246183 -0.120938 0.246183
v 0.246183 0.018324 0.232257
v 0.246183 0.018324 0.246183
v 0.246183 -0.120938 0.232257
v -0.232257 0.018324 -0.246183
v -0.246183 -0.120938 -0.246183
v -0.246183 0.018324 -0.246183
v -0.232257 -0.120938 -0.246183
v -0.246183 0.018324 -0.232257
v -0.232257 -0.120938 -0.232257
v -0.246183 -0.120938 -0.232257
v -0.232257 0.018324 -0.232257
v -0.301511 0.053139 0.174078
v -0.336292 0.018324 0.090109
v -0.301511 0.018324 0.174078
v -0.336292 0.053139 0.090109
v 0.301511 0.018324 0.174078
v -0.246183 0.053139 0.246183
v 0.336292 0.053139 0.090109
v -0.348155 0.018324 0.000000
v 0.336292 0.018324 0.090109
v -0.246183 0.018324 0.246183
v 0.301511 0.053139 0.174078
v 0.348155 0.053139 0.000000
v -0.348155 0.053139 0.000000
v -0.174078 0.018324 0.301511
v 0.246183 0.053139 0.246183
v -0.336292 0.018324 -0.090109
v 0.348155 0.018324 0.000000
v 0.174078 0.018324 0.301511
v -0.174078 0.053139 0.301511
v 0.336292 0.053139 -0.090109
v -0.336292 0.053139 -0.090109
v 0.336292 0.018324 -0.090109
v 0.174078 0.053139 0.301511
v -0.090109 0.018324 0.336292
v 0.090109 0.018324 0.336292
v -0.301511 0.018324 -0.174078
v 0.090109 0.053139 0.336292
v -0.090109 0.053139 0.336292
v 0.301511 0.053139 -0.174078
v -0.301511 0.053139 -0.174078
v 0.301511 0.018324 -0.174078
v 0.000000 0.018324 0.348155
v 0.000000 0.053139 0.348155
v 0.246183 0.053139 -0.246183
v -0.246183 0.053139 -0.246183
v 0.246183 0.018324 -0.246183
v -0.174078 0.053139 -0.301511
v -0.174078 0.018324 -0.301511
v 0.174078 0.053139 -0.301511
v 0.174078 0.018324 -0.301511
v -0.090109 0.053139 -0.336292
v 0.090109 0.053139 -0.336292
v 0.090109 0.018324 -0.336292
v -0.090109 0.018324 -0.336292
v 0.000000 0.053139 -0.348155
v 0.000000 0.018324 -0.348155
v 0.246183 -0.120938 -0.232257
v 0.232257 0.018324 -0.232257
v 0.232257 -0.120938 -0.232257
v 0.246183 0.018324 -0.232257
v 0.232257 -0.120938 -0.246183
v 0.232257 0.018324 -0.246183
v 0.246183 -0.120938 -0.246183
v -0.232257 0.018324 0.232257
v -0.232257 -0.120938 0.246183
v -0.232257 -0.120938 0.232257
v -0.232257 0.018324 0.246183
v -0.246183 -0.120938 0.232257
v -0.246183 0.018324 0.232257
v -0.246183 -0.120938 0.246183

# 144 UV coordinates
vt 10.0885 0.752941 0
vt 9.82746 0.602353 0
vt 10.0885 0.602353 0
vt 9.82746 0.752941 0
vt -9.82585 3.97681 0
vt -9.82585 6.58508 0
vt -9.58467 3.82637 0
vt 9.40302 0.602353 0
vt 9.66407 0.752941 0
vt 9.40302 0.752941 0
vt 9.58467 6.73552 0
vt 9.58467 3.82637 0
vt 9.82585 3.97681 0
vt 9.83433 0.752941 0
vt 9.57328 0.602353 0
vt 9.83433 0.602353 0
vt -9.58467 6.73552 0
vt -10.033 6.34577 0
vt 9.66407 0.602353 0
vt 9.82585 6.58508 0
vt 10.033 4.21613 0
vt 9.32585 6.78683 0
vt 9.57328 0.752941 0
vt -9.32585 3.77506 0
vt -7.14341 0.752941 0
vt -7.40446 0.602353 0
vt -7.14341 0.602353 0
vt -5.13331 0.752941 0
vt -5.39437 0.602353 0
vt -5.13331 0.602353 0
vt -10.033 4.21613 0
vt 8.58994 0.602353 0
vt 8.32888 0.752941 0
vt 8.32888 0.602353 0
vt 10.033 6.34577 0
vt 9.32585 3.77506 0
vt -8.91885 0.602353 0
vt -8.6578 0.752941 0
vt -8.91885 0.752941 0
vt -7.40446 0.752941 0
vt 8.91885 0.752941 0
vt 8.6578 0.602353 0
vt 8.91885 0.602353 0
vt -9.32585 6.78683 0
vt -5.39437 0.752941 0
vt -10.1919 6.03389 0
vt 8.58994 0.752941 0
vt -10.1919 4.528 0
vt 10.1919 4.528 0
vt 9.06703 6.73552 0
vt -8.6578 0.602353 0
vt 8.6578 0.752941 0
vt -9.06703 6.73552 0
vt -9.06703 3.82637 0
vt -3.02555 0.752941 0
vt -2.7645 0.602353 0
vt -2.7645 0.752941 0
vt -3.02555 0.602353 0
vt 6.93931 0.602353 0
vt 6.67825 0.752941 0
vt 6.67825 0.602353 0
vt -10.2918 5.6707 0
vt 10.1919 6.03389 0
vt 9.06703 3.82637 0
vt -9.83433 0.602353 0
vt -9.57328 0.752941 0
vt -9.83433 0.752941 0
vt 7.40446 0.752941 0
vt 7.14341 0.602353 0
vt 7.40446 0.602353 0
vt -8.82585 3.97681 0
vt -9.57328 0.602353 0
vt -0.459441 0.752941 0
vt -0.198388 0.602353 0
vt -0.198388 0.752941 0
vt 6.93931 0.752941 0
vt -10.2918 4.89119 0
vt -0.459441 0.602353 0
vt 10.2918 4.89119 0
vt 8.82585 6.58508 0
vt 7.14341 0.752941 0
vt -8.82585 6.58508 0
vt -10.0885 0.602353 0
vt -9.82746 0.752941 0
vt -10.0885 0.752941 0
vt 10.2918 5.6707 0
vt 4.82467 0.602353 0
vt 4.56362 0.752941 0
vt 4.56362 0.602353 0
vt -10.3258 5.28094 0
vt 2.12908 0.752941 0
vt 2.39014 0.602353 0
vt 2.39014 0.752941 0
vt 8.82585 3.97681 0
vt 5.39437 0.752941 0
vt 5.13331 0.602353 0
vt 5.39437 0.602353 0
vt -8.61874 4.21613 0
vt -9.82746 0.602353 0
vt 10.3258 5.28094 0
vt 4.82467 0.752941 0
vt 2.12908 0.602353 0
vt 8.61874 6.34577 0
vt 5.13331 0.752941 0
vt -8.61874 6.34577 0
vt -9.66407 0.602353 0
vt -9.40302 0.752941 0
vt -9.66407 0.752941 0
vt 8.61874 4.21613 0
vt 2.7645 0.752941 0
vt 3.02555 0.602353 0
vt 3.02555 0.752941 0
vt -8.45982 4.528 0
vt -9.40302 0.602353 0
vt 8.45982 6.03389 0
vt 2.7645 0.602353 0
vt 8.45982 4.528 0
vt -8.45982 6.03389 0
vt -8.32888 0.602353 0
vt -8.58994 0.752941 0
vt -8.58994 0.602353 0
vt -8.32888 0.752941 0
vt 0.198388 0.752941 0
vt 0.459441 0.602353 0
vt 0.459441 0.752941 0
vt 8.35992 5.6707 0
vt -8.35992 5.6707 0
vt -6.67825 0.602353 0
vt -6.93931 0.752941 0
vt -6.93931 0.602353 0
vt 0.198388 0.602353 0
vt 8.35992 4.89119 0
vt -6.67825 0.752941 0
vt -8.35992 4.89119 0
vt -2.39014 0.752941 0
vt -2.12908 0.602353 0
vt -2.12908 0.752941 0
vt 8.32585 5.28094 0
vt -4.56362 0.602353 0
vt -4.82467 0.752941 0
vt -4.82467 0.602353 0
vt -8.32585 5.28094 0
vt -2.39014 0.602353 0
vt -4.56362 0.752941 0

# 26 vertex normals
vn -0.0254 0 0
vn 0.0254 0 0
vn 0 0 0.0254
vn -0 -0 -0.0254
vn 0 0.0254 0
vn -0 -0.0254 -0
vn -0.021997 0 0.0127
vn -0.0245345 0 0.006574
vn 0.021997 0 -0.0127
vn 0.0245345 0 -0.006574
vn -0.0179605 0 0.0179605
vn 0.0179605 0 -0.0179605
vn 0.0245345 0 0.006574
vn 0.021997 0 0.0127
vn -0.0245345 -0 -0.006574
vn -0.021997 -0 -0.0127
vn 0.0179605 0 0.0179605
vn -0.0179605 -0 -0.0179605
vn -0.0127 0 0.021997
vn 0.0127 0 -0.021997
vn 0.0127 0 0.021997
vn -0.0127 -0 -0.021997
vn -0.006574 0 0.0245345
vn 0.006574 0 -0.0245345
vn 0.006574 0 0.0245345
vn -0.006574 -0 -0.0245345

# Mesh 'mesh1_mesh1-geometry' with 20 faces
g mesh1_mesh1-geometry
usemtl material_0_24
f  1//1 2//1 3//1
f  2//1 1//1 4//1
f  3//2 2//2 1//2
f  4//2 1//2 2//2
f  5//3 1//3 3//3
f  3//4 1//4 5//4
f  1//5 6//5 4//5
f  4//6 6//6 1//6
f  6//4 2//4 4//4
f  4//3 2//3 6//3
f  1//3 5//3 7//3
f  7//4 5//4 1//4
f  6//5 1//5 7//5
f  7//6 1//6 6//6
f  2//4 6//4 8//4
f  8//3 6//3 2//3
f  8//2 7//2 5//2
f  5//1 7//1 8//1
f  7//2 8//2 6//2
f  6//1 8//1 7//1

# Mesh 'mesh1_mesh1-geometry' with 4 faces
g mesh1_mesh1-geometry
usemtl material_2_24
f  2//6 5//6 3//6
f  3//5 5//5 2//5
f  5//6 2//6 8//6
f  8//5 2//5 5//5

# Mesh 'mesh2_mesh2-geometry' with 20 faces
g mesh2_mesh2-geometry
usemtl material_0_24
f  9//4 10//4 11//4
f  10//4 9//4 12//4
f  11//3 10//3 9//3
f  12//3 9//3 10//3
f  10//1 13//1 11//1
f  11//2 13//2 10//2
f  13//5 9//5 11//5
f  11//6 9//6 13//6
f  9//2 14//2 12//2
f  12//1 14//1 9//1
f  13//1 10//1 15//1
f  15//2 10//2 13//2
f  9//5 13//5 16//5
f  16//6 13//6 9//6
f  14//2 9//2 16//2
f  16//1 9//1 14//1
f  14//3 13//3 15//3
f  15//4 13//4 14//4
f  13//3 14//3 16//3
f  16//4 14//4 13//4

# Mesh 'mesh2_mesh2-geometry' with 4 faces
g mesh2_mesh2-geometry
usemtl material_2_24
f  14//6 10//6 12//6
f  12//5 10//5 14//5
f  10//6 14//6 15//6
f  15//5 14//5 10//5

# Mesh 'mesh3_mesh3-geometry' with 162 faces
g mesh3_mesh3-geometry
usemtl material_1_1_8
f  17/1/7 18/2/8 19/3/7
f  18/2/8 17/1/7 20/4/8
f  19/3/9 18/2/10 17/1/9
f  20/4/10 17/1/9 18/2/10
f  19/5/5 21/6/5 18/7/5
f  19/8/7 22/9/11 17/10/7
f  17/10/9 22/9/12 19/8/9
f  23/11/5 20/12/5 17/13/5
f  17/13/6 20/12/6 23/11/6
f  20/14/8 24/15/1 18/16/8
f  18/16/10 24/15/2 20/14/10
f  21/6/5 25/17/5 18/7/5
f  7/18/5 21/6/5 19/5/5
f  22/9/11 19/8/7 26/19/11
f  26/19/12 19/8/9 22/9/12
f  27/20/5 17/13/5 22/21/5
f  22/21/6 17/13/6 27/20/6
f  28/22/5 20/12/5 23/11/5
f  23/11/6 20/12/6 28/22/6
f  23/11/5 17/13/5 27/20/5
f  27/20/6 17/13/6 23/11/6
f  24/15/1 20/14/8 29/23/1
f  29/23/2 20/14/10 24/15/2
f  18/7/5 25/17/5 24/24/5
f  23/25/13 21/26/14 25/27/13
f  25/27/15 21/26/16 23/25/15
f  27/28/14 7/29/17 21/30/14
f  21/30/16 7/29/18 27/28/16
f  26/31/5 7/18/5 19/5/5
f  30/32/19 22/33/11 26/34/11
f  26/34/12 22/33/12 30/32/20
f  27/20/5 22/21/5 31/35/5
f  31/35/6 22/21/6 27/20/6
f  28/22/5 29/36/5 20/12/5
f  20/12/6 29/36/6 28/22/6
f  25/37/13 28/38/2 23/39/13
f  23/39/15 28/38/1 25/37/15
f  21/26/14 23/25/13 27/40/14
f  27/40/16 23/25/15 21/26/16
f  29/41/1 32/42/15 24/43/1
f  24/43/2 32/42/13 29/41/2
f  25/17/5 33/44/5 24/24/5
f  7/29/17 27/28/14 31/45/17
f  31/45/18 27/28/16 7/29/18
f  34/46/5 7/18/5 26/31/5
f  22/33/11 30/32/19 35/47/19
f  35/47/20 30/32/20 22/33/12
f  30/48/5 34/46/5 26/31/5
f  31/35/5 22/21/5 35/49/5
f  35/49/6 22/21/6 31/35/6
f  36/50/5 29/36/5 28/22/5
f  28/22/6 29/36/6 36/50/6
f  28/38/2 25/37/13 33/51/2
f  33/51/1 25/37/15 28/38/1
f  32/42/15 29/41/1 37/52/15
f  37/52/13 29/41/2 32/42/13
f  24/24/5 38/53/5 32/54/5
f  33/44/5 38/53/5 24/24/5
f  39/55/21 7/56/17 31/57/17
f  31/57/18 7/56/18 39/55/22
f  7/56/17 39/55/21 34/58/21
f  34/58/22 39/55/22 7/56/18
f  40/59/23 35/60/19 30/61/19
f  30/61/20 35/60/20 40/59/24
f  41/62/5 34/46/5 30/48/5
f  31/35/5 35/49/5 39/63/5
f  39/63/6 35/49/6 31/35/6
f  36/50/5 37/64/5 29/36/5
f  29/36/6 37/64/6 36/50/6
f  33/65/2 36/66/10 28/67/2
f  28/67/1 36/66/8 33/65/1
f  37/68/15 42/69/16 32/70/15
f  32/70/13 42/69/14 37/68/13
f  32/54/5 38/53/5 42/71/5
f  36/66/10 33/65/2 38/72/10
f  38/72/8 33/65/1 36/66/8
f  43/73/25 34/74/21 39/75/21
f  39/75/22 34/74/22 43/73/26
f  35/60/19 40/59/23 44/76/23
f  44/76/24 40/59/24 35/60/20
f  40/77/5 41/62/5 30/48/5
f  34/74/21 43/73/25 41/78/25
f  41/78/26 43/73/26 34/74/22
f  39/63/5 35/49/5 44/79/5
f  44/79/6 35/49/6 39/63/6
f  45/80/5 37/64/5 36/50/5
f  36/50/6 37/64/6 45/80/6
f  42/69/16 37/68/15 46/81/16
f  46/81/14 37/68/13 42/69/14
f  38/53/5 47/82/5 42/71/5
f  38/83/10 45/84/9 36/85/10
f  36/85/8 45/84/7 38/83/8
f  39/63/5 44/79/5 43/86/5
f  43/86/6 44/79/6 39/63/6
f  48/87/3 44/88/23 40/89/23
f  40/89/24 44/88/24 48/87/4
f  48/90/5 41/62/5 40/77/5
f  49/91/3 41/92/25 43/93/25
f  43/93/26 41/92/26 49/91/4
f  45/80/5 46/94/5 37/64/5
f  37/64/6 46/94/6 45/80/6
f  46/95/16 11/96/18 42/97/16
f  42/97/14 11/96/17 46/95/14
f  42/71/5 47/82/5 11/98/5
f  45/84/9 38/83/10 47/99/9
f  47/99/7 38/83/8 45/84/7
f  43/86/5 44/79/5 49/100/5
f  49/100/6 44/79/6 43/86/6
f  44/88/23 48/87/3 49/101/3
f  49/101/4 48/87/4 44/88/24
f  41/92/25 49/91/3 48/102/3
f  48/102/4 49/91/4 41/92/26
f  50/103/5 46/94/5 45/80/5
f  45/80/6 46/94/6 50/103/6
f  11/96/18 46/95/16 51/104/18
f  51/104/17 46/95/14 11/96/17
f  47/82/5 52/105/5 11/98/5
f  47/106/9 50/107/12 45/108/9
f  45/108/7 50/107/11 47/106/7
f  50/103/5 51/109/5 46/94/5
f  46/94/6 51/109/6 50/103/6
f  53/110/22 11/111/18 51/112/18
f  51/112/17 11/111/17 53/110/21
f  11/98/5 52/105/5 54/113/5
f  50/107/12 47/106/9 52/114/12
f  52/114/11 47/106/7 50/107/11
f  55/115/5 51/109/5 50/103/5
f  50/103/6 51/109/6 55/115/6
f  11/111/18 53/110/22 54/116/22
f  54/116/21 53/110/21 11/111/17
f  55/115/5 53/117/5 51/109/5
f  51/109/6 53/117/6 55/115/6
f  52/105/5 56/118/5 54/113/5
f  56/119/20 50/120/12 52/121/12
f  52/121/11 50/120/11 56/119/19
f  50/120/12 56/119/20 55/122/20
f  55/122/19 56/119/19 50/120/11
f  57/123/26 54/124/22 53/125/22
f  53/125/21 54/124/21 57/123/25
f  58/126/5 53/117/5 55/115/5
f  55/115/6 53/117/6 58/126/6
f  56/118/5 59/127/5 54/113/5
f  59/128/24 55/129/20 56/130/20
f  56/130/19 55/129/19 59/128/23
f  54/124/22 57/123/26 60/131/26
f  60/131/25 57/123/25 54/124/21
f  58/126/5 57/132/5 53/117/5
f  53/117/6 57/132/6 58/126/6
f  55/129/20 59/128/24 58/133/24
f  58/133/23 59/128/23 55/129/19
f  54/113/5 59/127/5 60/134/5
f  61/135/4 60/136/26 57/137/26
f  57/137/25 60/136/25 61/135/3
f  57/132/5 58/126/5 61/138/5
f  61/138/6 58/126/6 57/132/6
f  62/139/4 58/140/24 59/141/24
f  59/141/23 58/140/23 62/139/3
f  62/142/5 60/134/5 59/127/5
f  60/136/26 61/135/4 62/143/4
f  62/143/3 61/135/3 60/136/25
f  58/140/24 62/139/4 61/144/4
f  61/144/3 62/139/3 58/140/23

# Mesh 'mesh3_mesh3-geometry' with 22 faces
g mesh3_mesh3-geometry
usemtl material_2_24
f  18//6 21//6 19//6
f  18//6 25//6 21//6
f  19//6 21//6 7//6
f  24//6 25//6 18//6
f  19//6 7//6 26//6
f  24//6 33//6 25//6
f  26//6 7//6 34//6
f  26//6 34//6 30//6
f  32//6 38//6 24//6
f  24//6 38//6 33//6
f  30//6 34//6 41//6
f  42//6 38//6 32//6
f  30//6 41//6 40//6
f  42//6 47//6 38//6
f  40//6 41//6 48//6
f  11//6 47//6 42//6
f  11//6 52//6 47//6
f  54//6 52//6 11//6
f  54//6 56//6 52//6
f  54//6 59//6 56//6
f  60//6 59//6 54//6
f  59//6 60//6 62//6

# Mesh 'mesh4_mesh4-geometry' with 20 faces
g mesh4_mesh4-geometry
usemtl material_0_24
f  63//3 64//3 65//3
f  64//3 63//3 66//3
f  65//4 64//4 63//4
f  66//4 63//4 64//4
f  64//1 67//1 65//1
f  65//2 67//2 64//2
f  63//2 52//2 66//2
f  66//1 52//1 63//1
f  52//5 64//5 66//5
f  66//6 64//6 52//6
f  67//1 64//1 68//1
f  68//2 64//2 67//2
f  52//2 63//2 69//2
f  69//1 63//1 52//1
f  64//5 52//5 68//5
f  68//6 52//6 64//6
f  52//4 67//4 68//4
f  68//3 67//3 52//3
f  67//4 52//4 69//4
f  69//3 52//3 67//3

# Mesh 'mesh4_mesh4-geometry' with 4 faces
g mesh4_mesh4-geometry
usemtl material_2_24
f  67//6 63//6 65//6
f  65//5 63//5 67//5
f  63//6 67//6 69//6
f  69//5 67//5 63//5

# Mesh 'mesh5_mesh5-geometry' with 20 faces
g mesh5_mesh5-geometry
usemtl material_0_24
f  70//2 71//2 72//2
f  71//2 70//2 73//2
f  72//1 71//1 70//1
f  73//1 70//1 71//1
f  74//4 70//4 72//4
f  72//3 70//3 74//3
f  70//5 26//5 73//5
f  73//6 26//6 70//6
f  26//3 71//3 73//3
f  73//4 71//4 26//4
f  70//4 74//4 75//4
f  75//3 74//3 70//3
f  26//5 70//5 75//5
f  75//6 70//6 26//6
f  71//3 26//3 76//3
f  76//4 26//4 71//4
f  26//1 74//1 76//1
f  76//2 74//2 26//2
f  74//1 26//1 75//1
f  75//2 26//2 74//2

# Mesh 'mesh5_mesh5-geometry' with 4 faces
g mesh5_mesh5-geometry
usemtl material_2_24
f  71//6 74//6 72//6
f  72//5 74//5 71//5
f  74//6 71//6 76//6
f  76//5 71//5 74//5

# Mesh 'mesh6_mesh6-geometry' with 11 faces
g mesh6_mesh6-geometry
usemtl material_0_0
l  71 73
l  71 76
l  72 71
l  26 73
l  73 70
l  26 76
l  74 72
l  70 72
l  75 26
l  70 75
l  75 74

# Mesh 'mesh7_mesh7-geometry' with 9 faces
g mesh7_mesh7-geometry
usemtl material_0_0
l  64 65
l  68 64
l  64 66
l  63 65
l  68 67
l  52 68
l  63 66
l  66 52
l  52 69

# Mesh 'mesh8_mesh8-geometry' with 11 faces
g mesh8_mesh8-geometry
usemtl material_0_0
l  2 8
l  4 2
l  3 2
l  8 5
l  6 8
l  4 1
l  6 4
l  1 3
l  5 7
l  7 6
l  1 7

# Mesh 'mesh9_mesh9-geometry' with 10 faces
g mesh9_mesh9-geometry
usemtl material_0_0
l  15 10
l  13 15
l  10 12
l  11 10
l  11 13
l  13 16
l  9 12
l  9 11
l  14 16
l  16 9

