# Blender v2.91.0 OBJ File: ''
# www.blender.org
mtllib backseat.mtl
o backseat_mesh1_mesh1-geometry.001
v -0.152776 0.373484 -0.186794
v -0.152776 0.116500 -0.186794
v -0.146846 0.116500 0.196516
v -0.122663 0.116500 0.196516
v -0.134755 0.131617 0.201098
v -0.142246 0.131617 0.199527
v -0.130928 0.131617 0.200701
v -0.138582 0.131617 0.200701
v -0.145592 0.131617 0.197626
v -0.127264 0.131617 0.199527
v -0.146846 0.131617 0.196516
v -0.122663 0.131617 0.196516
v -0.123918 0.131617 0.197626
v -0.130928 0.373484 0.200701
v -0.134755 0.373484 0.201098
v -0.132522 0.373484 0.101518
v -0.127264 0.373484 0.199527
v -0.127754 0.373484 0.135102
v -0.138582 0.373484 0.200701
v -0.137984 0.373484 0.033913
v -0.142246 0.373484 0.199527
v -0.138967 0.373484 -0.198993
v -0.145592 0.373484 0.197626
v -0.142631 0.373484 -0.197819
v -0.151326 0.116500 -0.189925
v -0.123918 0.373484 0.197626
v -0.121635 0.373484 0.168465
v -0.135935 0.373484 0.067771
v -0.138667 0.373484 0.000000
v -0.145976 0.373484 -0.195917
v -0.148475 0.373484 0.195078
v -0.151159 0.373484 -0.190284
v -0.152392 0.373484 0.188501
v -0.132522 0.116500 0.101518
v -0.121034 0.373484 0.195078
v -0.135140 0.373484 -0.199391
v -0.148860 0.373484 -0.193370
v -0.156907 0.373484 -0.168465
v -0.150775 0.373484 0.191992
v -0.135935 0.116500 0.067771
v -0.127754 0.116500 0.135102
v -0.117119 0.373484 0.188501
v -0.137984 0.373484 -0.033913
v -0.145976 0.116500 -0.195917
v -0.148475 0.116500 0.195078
v -0.151159 0.116500 -0.190284
v -0.151108 0.116500 0.191271
v -0.156907 0.373484 0.168465
v -0.137984 0.116500 0.033913
v -0.121635 0.116500 0.168465
v -0.121034 0.116500 0.195078
v -0.118736 0.373484 0.191992
v -0.138667 0.116500 0.000000
v -0.137984 0.116500 -0.033913
v -0.135140 0.116500 -0.199391
v -0.138967 0.116500 -0.198993
v -0.142631 0.116500 -0.197819
v -0.135935 0.373484 -0.067772
v -0.148860 0.116500 -0.193370
v -0.150775 0.116500 0.191992
v -0.154828 0.116500 0.168224
v -0.163025 0.373484 -0.135103
v -0.117119 0.116500 0.188501
v -0.118736 0.116500 0.191992
v -0.135935 0.116500 -0.067772
v -0.132522 0.373484 -0.101520
v -0.131313 0.116500 -0.198993
v -0.132522 0.116500 -0.101520
v -0.154828 0.116500 -0.168225
v -0.163025 0.373484 0.135102
v -0.152392 0.116500 0.188501
v -0.131313 0.373484 -0.198993
v -0.127754 0.116500 -0.135103
v -0.159236 0.116500 0.134750
v -0.167795 0.373484 -0.101520
v -0.127754 0.373484 -0.135103
v -0.127649 0.116500 -0.197819
v -0.159236 0.116500 -0.134751
v -0.167795 0.373484 0.101518
v -0.127649 0.373484 -0.197819
v -0.121635 0.116500 -0.168465
v -0.162667 0.116500 0.101163
v -0.171207 0.373484 -0.067772
v -0.121635 0.373484 -0.168465
v -0.124303 0.116500 -0.195917
v -0.162667 0.116500 -0.101163
v -0.171207 0.373484 0.067771
v -0.124303 0.373484 -0.195917
v -0.121419 0.116500 -0.193370
v -0.165121 0.116500 -0.067490
v -0.173257 0.373484 -0.033913
v -0.121419 0.373484 -0.193370
v -0.117504 0.116500 -0.186794
v -0.165121 0.116500 0.067490
v -0.173257 0.373484 0.033913
v -0.117504 0.373484 -0.186794
v -0.119120 0.116500 -0.190284
v -0.166594 0.116500 0.033759
v -0.173940 0.373484 0.000000
v -0.119120 0.373484 -0.190284
v -0.166594 0.116500 -0.033759
v -0.166859 0.116500 0.015505
v -0.167085 0.116500 0.000000
vt 0.000000 0.000000
vt 0.000000 0.000000
vt 0.000000 0.000000
vt 0.000000 0.000000
vt 0.000000 0.000000
vt 0.000000 0.000000
vt 0.000000 0.000000
vt 0.000000 0.000000
vt 0.000000 0.000000
vt 0.000000 0.000000
vt 0.000000 0.000000
vt 0.000000 0.000000
vt 0.000000 0.000000
vt 0.000000 0.000000
vt 0.000000 0.000000
vt 0.000000 0.000000
vt 0.000000 0.000000
vt 0.000000 0.000000
vt 0.000000 0.000000
vt 0.000000 0.000000
vt 0.000000 0.000000
vt 0.000000 0.000000
vt 0.000000 0.000000
vt 0.000000 0.000000
vt 0.000000 0.000000
vt 0.000000 0.000000
vt 0.000000 0.000000
vt 0.000000 0.000000
vt 0.000000 0.000000
vt 0.000000 0.000000
vt 0.000000 0.000000
vt 0.000000 0.000000
vt 0.000000 0.000000
vt 0.000000 0.000000
vt 0.000000 0.000000
vt 0.000000 0.000000
vt 0.000000 0.000000
vt 0.000000 0.000000
vt 0.000000 0.000000
vt 0.000000 0.000000
vt 0.000000 0.000000
vt 0.000000 0.000000
vt 0.000000 0.000000
vt 0.000000 0.000000
vt 0.000000 0.000000
vt 0.000000 0.000000
vt 0.000000 0.000000
vt 0.000000 0.000000
vt 0.000000 0.000000
vt 0.000000 0.000000
vt 0.000000 0.000000
vt 0.000000 0.000000
vt 0.000000 0.000000
vt 0.000000 0.000000
vt 0.000000 0.000000
vt 0.000000 0.000000
vt 0.000000 0.000000
vt 0.000000 0.000000
vt 0.000000 0.000000
vt 0.000000 0.000000
vt 0.000000 0.000000
vt 0.000000 0.000000
vt 0.000000 0.000000
vt 0.000000 0.000000
vt 0.000000 0.000000
vt 0.000000 0.000000
vt 0.000000 0.000000
vt 0.000000 0.000000
vt 0.000000 0.000000
vt 0.000000 0.000000
vt 0.000000 0.000000
vt 0.000000 0.000000
vt 0.000000 0.000000
vt 0.000000 0.000000
vt 0.000000 0.000000
vt 0.000000 0.000000
vt 0.000000 0.000000
vt 0.000000 0.000000
vt 0.000000 0.000000
vt 0.000000 0.000000
vt 0.000000 0.000000
vt 0.000000 0.000000
vt 0.000000 0.000000
vt 0.000000 0.000000
vt 0.000000 0.000000
vt 0.000000 0.000000
vt 0.000000 0.000000
vt 0.000000 0.000000
vt 0.000000 0.000000
vt 0.000000 0.000000
vt 8.770589 10.986386
vt 8.760089 10.769409
vt 8.772208 10.773293
vt 8.754814 11.097465
vt 8.790827 10.876032
vt 8.734488 11.433251
vt 8.734771 10.769409
vt 8.736749 11.321079
vt 8.747430 10.768096
vt 8.743528 11.209090
vt 8.721378 12.087558
vt 8.722651 10.773293
vt 8.733497 12.091442
vt 8.710313 12.081269
vt 8.711587 10.779582
vt 8.702049 10.788009
vt -8.707435 10.783251
vt -8.754814 11.097465
vt -8.787425 10.783251
vt 8.746156 12.092755
vt 8.700776 12.072842
vt -8.743528 11.209090
vt -8.770589 10.986386
vt 8.693171 12.062637
vt 8.694444 10.798214
vt -8.736749 11.321079
vt -8.790827 10.876032
vt -8.792810 10.788009
vt -8.710313 12.081269
vt -8.734488 11.433251
vt -8.746156 12.092755
vt -8.736749 11.545422
vt -8.721378 12.087558
vt -8.733497 12.091442
vt -8.702049 10.788009
vt -8.700776 12.072842
vt -8.681036 10.876831
vt -8.692620 12.061447
vt -8.693338 10.800603
vt -8.693171 12.062637
vt 8.653922 11.880115
vt 8.674160 10.876032
vt 8.674160 11.990469
vt -8.805763 10.809763
vt -8.800415 10.798214
vt -8.743528 11.657411
vt -8.754814 11.769036
vt -8.758815 12.091442
vt -8.681036 11.989670
vt 8.653922 10.986386
vt 8.754814 11.769036
vt 8.758815 12.091442
vt -8.770589 11.880115
vt -8.666458 10.987549
vt 8.638147 11.769036
vt -8.666458 11.878952
vt 8.638147 11.097465
vt 8.770589 11.880115
vt 8.770935 12.087558
vt -8.770935 12.087558
vt -8.790827 11.990469
vt -8.655106 11.098644
vt -8.781999 12.081269
vt -8.655106 11.767857
vt 8.626861 11.657411
vt 8.626861 11.209090
vt 8.790827 11.990469
vt 8.781999 12.081269
vt -8.791537 12.072842
vt 8.791537 12.072842
vt -8.804490 12.051088
vt 8.620082 11.545422
vt 8.620082 11.321079
vt 8.804490 12.051088
vt -8.799142 12.062637
vt -8.642119 11.321589
vt -8.646991 11.656479
vt -8.646991 11.210022
vt 8.617821 11.433251
vt 8.799142 12.062637
vt -8.642119 11.544912
vt -8.641241 11.381966
vt 9.824629 2.502006
vt 9.811902 1.702006
vt 9.824629 1.702006
vt 9.811902 2.502006
vt 5.018776 1.702006
vt 5.031502 2.502006
vt 5.018776 2.502006
vt 2.246677 1.702006
vt 2.259404 2.502006
vt 2.246677 2.502006
vt 12.962792 2.502006
vt 12.950065 1.702006
vt 12.962792 1.702006
vt 12.950065 2.502006
vt -14.598906 2.502006
vt -14.586179 1.652006
vt -14.586179 2.502006
vt 13.719498 1.702006
vt 13.732225 2.502006
vt 13.719498 2.502006
vt -14.597594 1.652006
vt 0.292342 0.850000
vt 0.404543 0.000000
vt 0.404543 0.850000
vt 0.180140 0.850000
vt 0.292342 0.000000
vt 0.516745 0.850000
vt 0.628946 0.000000
vt 0.628946 0.850000
vt -12.006905 1.652006
vt -11.994179 2.502006
vt -12.006905 2.502006
vt -13.555339 1.652006
vt -13.542612 2.502006
vt -13.555339 2.502006
vt -3.463253 2.502006
vt -3.450526 1.652006
vt -3.450526 2.502006
vt 0.180140 0.000000
vt 0.067938 0.850000
vt 0.067938 0.000000
vt 0.741148 0.000000
vt -11.994179 1.652006
vt -9.947328 1.652006
vt -9.934601 2.502006
vt -9.947328 2.502006
vt -3.463253 1.652006
vt -14.526674 1.652006
vt -14.513948 2.502006
vt -14.526674 2.502006
vt -6.157879 2.502006
vt -6.145153 1.652006
vt -6.145153 2.502006
vt 0.741148 0.850000
vt -7.451603 2.502006
vt -7.464330 1.652006
vt -7.451603 1.652006
vt -14.513948 1.652006
vt -14.866813 1.652006
vt -14.879540 2.502006
vt -14.879540 1.652006
vt 13.904299 2.502006
vt 13.917026 1.652006
vt 13.917026 2.502006
vt 13.496597 2.502006
vt 13.509323 1.652006
vt 13.509323 2.502006
vt 13.496597 1.652006
vt -4.650945 2.502006
vt -4.663672 1.652006
vt -4.650945 1.652006
vt -4.663672 2.502006
vt 0.965551 0.850000
vt 1.077753 0.000000
vt 1.077753 0.850000
vt -1.651916 2.502006
vt -1.664643 1.652006
vt -1.651916 1.652006
vt 1.417744 2.502006
vt 1.405017 1.652006
vt 1.417744 1.652006
vt 1.252099 0.000000
vt 1.189954 0.850000
vt 1.189954 0.000000
vt 1.405017 2.502006
vt 1.252099 0.850000
vt 7.235805 2.502006
vt 7.248532 1.652006
vt 7.248532 2.502006
vn 0.0000 -1.0000 0.0000
vn 0.0975 -0.3245 -0.9408
vn 0.1940 -0.3261 -0.9252
vn -0.9742 -0.0529 0.2195
vn -0.9742 -0.0529 0.2196
vn -0.9755 -0.0103 0.2199
vn -0.9741 -0.0529 0.2197
vn -0.0000 1.0000 0.0000
vn 0.0819 0.6102 0.7880
vn -0.9959 -0.0254 -0.0872
vn -0.9981 -0.0139 -0.0605
vn 0.4094 0.5605 0.7199
vn -0.9924 -0.0242 -0.1205
vn -0.9959 -0.0255 -0.0871
vn 0.9073 0.0000 -0.4206
vn -0.9827 -0.0436 -0.1802
vn -0.9834 -0.0218 -0.1804
vn 0.1032 0.0000 -0.9947
vn 0.1713 0.0000 -0.9852
vn 0.0976 -0.3245 -0.9408
vn 0.3051 0.0000 -0.9523
vn 0.4940 0.0000 -0.8695
vn -0.3051 0.0000 -0.9523
vn 0.6628 0.0000 -0.7488
vn 0.6621 0.0000 -0.7494
vn 0.6622 0.0000 -0.7493
vn -0.6625 0.0000 -0.7491
vn 0.6618 0.0000 -0.7497
vn -0.9836 0.0000 0.1804
vn -0.9992 -0.0000 0.0403
vn -0.9989 0.0000 0.0470
vn -0.9982 0.0000 0.0604
vn -0.7552 0.0000 -0.6555
vn -0.6618 0.0000 -0.7497
vn -0.9949 0.0000 0.1006
vn -0.9998 0.0000 0.0201
vn 0.0820 0.6102 0.7880
vn 0.1034 -0.0000 0.9946
vn 0.4943 -0.0000 0.8693
vn 0.8019 -0.0000 0.5974
vn -0.8021 0.0000 -0.5972
vn -0.9755 -0.0000 0.2199
vn -0.9982 0.0000 -0.0604
vn -0.9981 -0.0139 -0.0604
vn -0.9973 0.0000 -0.0738
vn -0.1034 -0.0000 0.9946
vn -0.9935 0.0000 -0.1140
vn -0.9924 -0.0242 -0.1206
vn -0.9901 0.0000 -0.1406
vn -0.9836 0.0000 -0.1804
vn -0.4942 -0.0000 0.8694
vn -0.8019 -0.0000 0.5974
vn -0.9074 -0.0000 0.4202
vn 0.9883 0.0592 -0.1402
vn 0.9889 0.0481 -0.1404
vn 0.9883 0.0592 -0.1403
vn 1.0000 0.0051 0.0067
vn 0.9997 0.0154 -0.0201
vn -0.2697 0.6847 -0.6771
vn -0.1714 0.8273 -0.5349
vn -0.2804 0.8759 -0.3926
vn 0.9735 -0.1820 -0.1382
vn 0.0000 0.3611 -0.9325
vn -0.0819 0.6102 -0.7880
vn -0.6656 0.3550 -0.6564
vn 0.9869 -0.0188 -0.1605
vn 0.9868 -0.0188 -0.1606
vn 0.9828 -0.0411 -0.1803
vn 1.0000 -0.0009 0.0001
vn 0.0000 -0.4728 -0.8812
vn 0.9997 -0.0148 0.0202
vn -0.3767 -0.3477 -0.8586
vn -0.2863 -0.3461 -0.8935
vn -0.5162 -0.7127 -0.4750
vn -0.5758 -0.4932 -0.6521
vn -0.5999 -0.6637 -0.4469
vn -0.5162 -0.7127 -0.4749
vn 0.9059 -0.0562 0.4197
vn 0.8593 -0.0015 0.5115
vn 0.9997 -0.0149 0.0202
vn 0.0001 -0.4728 -0.8812
vn 0.0805 -0.6279 -0.7741
vn 0.3031 0.1155 -0.9460
vn 0.3991 0.1161 -0.9095
vn 0.3654 -0.1563 -0.9176
vn 0.9671 -0.1311 0.2179
vn 0.9671 -0.1311 0.2180
vn 0.3654 -0.1563 -0.9177
vn 0.5792 -0.0806 -0.8112
vn 0.9752 0.0267 0.2198
vn 0.6598 0.0802 -0.7471
vn 0.9671 -0.1311 0.2181
vn 0.6594 -0.0878 -0.7467
vn 0.9752 0.0267 0.2199
vn 0.6519 0.1736 -0.7382
vn 0.6595 -0.0878 -0.7466
vn 0.9755 -0.0105 0.2198
vn 0.6520 0.1736 -0.7381
vn 0.9933 0.0181 0.1145
vn 0.9755 -0.0106 0.2198
vn 0.9932 0.0181 0.1146
vn 0.9075 0.0031 -0.4201
vn 0.1032 -0.0000 0.9947
vn -0.3051 -0.0000 0.9523
vn -0.4940 -0.0000 0.8695
vn 0.5526 -0.0000 0.8334
vn 0.4940 -0.0000 0.8695
vn 0.5812 -0.0000 0.8138
vn -0.9073 0.0000 -0.4204
vn -0.9074 0.0000 -0.4202
vn 0.6621 -0.0000 0.7494
vn 0.9949 0.0000 -0.1006
vn 1.0000 -0.0009 0.0000
vn -0.3768 -0.3477 -0.8586
vn -0.2804 0.8759 -0.3925
vn -0.8410 -0.0000 0.5411
vn -0.8018 -0.0000 0.5976
vn 0.9836 0.0000 -0.1804
vn 0.9828 -0.0411 -0.1802
vn 0.9997 -0.0149 0.0201
vn -0.0820 0.6102 -0.7880
vn -0.8592 0.0000 0.5117
vn -0.5759 -0.4932 -0.6520
vn -0.9074 -0.0000 0.4203
vn 0.9998 -0.0000 0.0201
vn 0.8021 -0.0000 0.5973
vn 0.8764 0.0000 0.4816
vn 0.9060 -0.0562 0.4196
vn 0.9074 -0.0000 0.4203
vn 0.3031 0.1155 -0.9459
vn 0.3654 -0.1562 -0.9177
vn 0.9901 0.0000 0.1406
vn 0.5793 -0.0806 -0.8111
vn 0.5792 -0.0807 -0.8112
vn 0.9755 -0.0105 0.2199
vn 0.6519 0.1737 -0.7382
vn 0.9074 0.0000 -0.4202
vn 0.9074 0.0031 -0.4202
usemtl material_1_24
s off
f 14/1/1 15/2/1 16/3/1
f 15/2/2 19/4/3 20/5/1
f 19/4/1 21/6/1 22/7/1
f 21/6/1 23/8/1 24/9/1
f 26/10/1 17/11/1 27/12/4
f 16/3/1 15/2/1 28/13/1
f 32/14/1 33/15/1 1/16/1
f 35/17/1 26/10/1 27/12/5
f 1/16/1 33/15/1 38/18/1
f 39/19/1 33/15/1 32/14/1
f 42/20/6 35/17/1 27/12/7
f 3/21/8 44/22/8 45/23/8
f 31/24/1 39/19/1 37/25/1
f 33/15/1 48/26/1 38/18/1
f 56/27/9 53/28/8 55/29/9
f 58/30/10 43/31/11 36/32/1
f 57/33/12 44/22/12 53/28/8
f 49/34/8 44/22/8 3/21/8
f 45/23/8 59/35/8 60/36/8
f 66/37/13 58/30/14 36/32/1
f 60/36/8 59/35/8 47/38/8
f 71/39/15 33/15/15 47/38/15
f 76/40/1 66/37/1 72/41/1
f 77/42/8 67/43/8 73/44/8
f 75/45/1 79/46/1 83/47/1
f 84/48/16 76/40/17 80/49/1
f 86/50/8 90/51/8 82/52/8
f 83/47/1 87/53/1 91/54/1
f 82/52/8 90/51/8 94/55/8
f 103/56/8 102/57/8 101/58/8
s 1
f 5/59/18 8/60/19 15/2/20
f 8/60/19 6/61/21 19/4/3
f 6/61/22 9/62/22 21/6/22
f 10/63/23 7/64/23 17/11/23
f 14/1/23 17/11/23 7/64/23
f 19/4/3 15/2/20 8/60/19
f 9/62/24 11/65/25 23/8/26
f 23/8/26 11/65/25 31/24/26
f 13/66/27 35/17/27 12/67/27
f 31/24/26 11/65/25 45/23/28
f 18/68/29 41/69/29 27/12/29
f 20/5/30 49/34/31 28/13/32
f 51/70/33 4/71/34 35/17/33
f 34/72/35 16/3/35 40/73/35
f 40/73/32 28/13/32 49/34/31
f 49/34/31 20/5/30 53/28/36
f 56/27/9 55/29/37 22/7/38
f 44/22/12 57/33/12 30/74/39
f 32/14/40 46/75/40 37/25/40
f 51/70/33 35/17/33 64/76/41
f 27/12/5 50/77/42 42/20/6
f 63/78/42 42/20/6 50/77/42
f 54/79/43 43/31/44 65/80/45
f 58/30/10 65/80/45 43/31/44
f 72/41/46 36/32/46 67/43/46
f 65/80/45 58/30/10 68/81/47
f 66/37/48 68/81/47 58/30/10
f 68/81/47 66/37/48 73/44/49
f 73/44/50 76/40/17 81/82/50
f 88/83/51 80/49/51 85/84/51
f 84/48/16 81/82/50 76/40/17
f 92/85/52 89/86/52 100/87/52
f 93/88/53 96/89/53 97/90/53
f 97/90/52 100/87/52 89/86/52
usemtl material_2_2_8
s off
f 18/91/54 14/92/8 17/93/8
f 16/94/55 14/92/8 18/91/56
f 18/91/56 17/93/8 27/95/8
f 29/96/57 19/97/8 20/98/58
f 20/98/8 15/99/8 28/100/8
f 24/101/59 21/102/8 22/103/60
f 30/104/61 23/105/8 24/101/59
f 30/104/61 31/106/8 23/105/8
f 3/107/1 34/108/62 4/109/1
f 29/96/8 36/110/63 22/103/64
f 37/111/65 31/106/8 30/104/61
f 3/107/1 40/112/1 34/108/62
f 4/109/1 34/108/62 41/113/66
f 32/114/8 39/115/8 37/111/8
f 3/107/1 49/116/1 40/112/1
f 4/109/1 41/113/67 50/117/68
f 4/109/1 50/117/68 51/118/1
f 49/116/1 44/119/1 53/120/1
f 53/120/69 55/121/70 54/122/71
f 53/120/1 57/123/72 56/124/73
f 45/125/1 59/126/74 44/119/75
f 61/127/1 25/128/1 47/129/1
f 47/129/1 46/130/76 59/126/77
f 62/131/8 48/132/8 38/133/8
f 51/118/1 50/117/68 63/134/78
f 51/118/1 63/134/78 64/135/79
f 54/122/80 55/121/70 65/136/1
f 68/137/1 55/121/81 67/138/82
f 61/127/1 69/139/1 25/128/1
f 62/131/8 70/140/8 48/132/8
f 65/136/1 55/121/70 68/137/1
f 36/110/8 66/141/8 72/142/8
f 68/137/1 67/138/82 73/143/1
f 74/144/1 69/139/1 61/127/1
f 75/145/8 70/140/8 62/131/8
f 74/144/1 78/146/1 69/139/1
f 75/145/8 79/147/8 70/140/8
f 72/142/83 76/148/8 80/149/84
f 73/143/1 77/150/85 81/151/86
f 82/152/1 78/146/1 74/144/1
f 81/151/87 77/150/88 85/153/89
f 82/152/1 86/154/1 78/146/1
f 83/155/8 87/156/8 79/147/8
f 80/149/8 84/157/90 88/158/91
f 81/151/92 85/153/89 89/159/93
f 88/158/91 84/157/94 92/160/95
f 81/151/86 89/159/96 93/161/97
f 91/162/8 95/163/8 87/156/8
f 92/160/98 84/157/90 96/164/99
f 93/161/100 89/159/93 97/165/1
f 98/166/1 90/167/1 94/168/1
f 95/163/8 91/162/8 99/169/8
f 92/160/95 96/164/101 100/170/102
f 98/166/1 101/171/1 90/167/1
f 102/172/1 101/171/1 98/166/1
s 1
f 14/173/103 5/174/103 7/175/103
f 5/174/103 14/173/103 15/176/103
f 6/177/104 19/178/104 21/179/104
f 9/180/105 21/181/105 23/182/105
f 26/183/106 10/184/107 13/185/108
f 10/184/107 26/183/106 17/186/107
f 32/187/109 2/188/110 1/189/109
f 13/190/108 35/191/111 26/192/106
f 2/188/110 32/187/109 25/193/110
f 16/194/112 40/195/112 28/196/112
f 18/197/56 34/198/62 16/194/55
f 20/199/58 53/200/113 29/201/57
f 56/202/73 24/203/59 22/204/60
f 57/205/114 30/206/115 24/207/59
f 39/208/116 45/209/117 31/210/117
f 34/198/62 18/197/56 41/211/66
f 41/211/66 27/212/118 50/213/119
f 54/214/120 29/201/57 53/200/113
f 24/203/59 56/202/73 57/215/114
f 55/216/70 22/217/121 36/218/63
f 45/209/117 39/208/116 60/219/122
f 44/220/123 37/221/65 30/222/115
f 33/223/124 60/224/122 39/225/116
f 29/201/57 54/214/120 43/226/125
f 36/227/63 67/228/82 55/229/70
f 37/221/65 44/220/123 59/230/77
f 46/231/76 37/232/65 59/233/77
f 35/234/126 64/235/79 52/236/127
f 52/237/127 63/238/128 42/239/129
f 63/238/128 52/237/127 64/240/79
f 72/241/130 77/242/131 67/243/21
f 77/242/131 72/241/130 80/244/84
f 66/245/132 73/246/132 76/247/132
f 80/248/84 85/249/133 77/250/131
f 88/251/91 89/252/93 85/253/134
f 93/254/135 84/255/90 81/256/87
f 89/252/93 88/251/91 92/257/136
f 84/255/90 93/254/135 96/258/99
f 96/259/99 97/260/137 100/261/138
