# Blender v2.91.0 OBJ File: ''
# www.blender.org
o bl_foot_mesh1_mesh1-geometry.003
v 0.184063 0.230686 0.151421
v 0.177215 0.230686 0.154258
v 0.189943 0.230686 0.146910
v 0.169867 0.230686 0.155225
v 0.194455 0.230686 0.141029
v 0.184063 0.230686 0.102245
v 0.149790 0.230686 0.106757
v 0.197292 0.230686 0.134182
v 0.189943 0.230686 0.106757
v 0.177215 0.230686 0.099409
v 0.145279 0.230686 0.112637
v 0.155671 0.230686 0.102245
v 0.177215 -0.301667 0.154258
v 0.155671 -0.301667 0.151421
v 0.184063 -0.301667 0.151421
v 0.149790 -0.301667 0.146910
v 0.189943 -0.301667 0.146910
v 0.198259 0.230686 0.126833
v 0.194455 0.230686 0.112637
v 0.169867 0.230686 0.098441
v 0.142442 0.230686 0.119485
v 0.162518 0.230686 0.099409
v 0.162518 -0.301667 0.154258
v 0.169867 -0.301667 0.155225
v 0.145279 -0.301667 0.141029
v 0.194455 -0.301667 0.141029
v 0.197292 0.230686 0.119485
v 0.141475 0.230686 0.126833
v 0.162518 0.230686 0.154258
v 0.142442 -0.301667 0.134182
v 0.197292 -0.301667 0.134182
v 0.189943 -0.301667 0.106757
v 0.155671 -0.301667 0.102245
v 0.184063 -0.301667 0.102245
v 0.162518 -0.301667 0.099409
v 0.177215 -0.301667 0.099409
v 0.169867 -0.301667 0.098441
v 0.142442 0.230686 0.134182
v 0.194455 -0.301667 0.112637
v 0.145279 -0.301667 0.112637
v 0.149790 -0.301667 0.106757
v 0.155671 0.230686 0.151421
v 0.141475 -0.301667 0.126833
v 0.198259 -0.301667 0.126833
v 0.197292 -0.301667 0.119485
v 0.145279 0.230686 0.141029
v 0.142442 -0.301667 0.119485
v 0.149790 0.230686 0.146910
vn 0.0000 1.0000 -0.0000
vn 0.5374 0.0104 -0.8432
vn -0.6078 0.0528 -0.7923
vn 0.7061 0.0532 -0.7061
vn -0.4998 0.0232 -0.8658
vn 0.1304 0.0018 -0.9915
vn 0.0000 1.0000 -0.0001
vn 0.2587 0.0071 -0.9659
vn 0.5374 0.0104 -0.8433
vn 0.2588 0.0071 -0.9659
vn 0.0000 -1.0000 -0.0000
vn 0.8431 0.0201 -0.5373
vn -0.6079 0.0528 -0.7923
vn 0.7929 -0.0366 0.6083
vn 0.7690 -0.2460 0.5901
vn 0.7691 -0.2460 0.5899
vn -0.9563 -0.1411 0.2562
vn 0.7690 -0.2460 0.5900
vn -0.6084 0.0324 0.7929
vn 0.6069 0.0782 0.7909
vn -0.6030 0.1369 0.7859
vn -0.2588 0.0072 0.9659
vn 0.1305 0.0142 0.9914
vn -0.3827 0.0106 0.9238
vn 0.0000 0.0018 1.0000
vn 0.1305 0.0141 0.9913
vn -0.2588 0.0071 0.9659
vn -0.8857 -0.0565 -0.4608
vn -0.7372 -0.0246 -0.6752
vn 0.6068 0.0782 0.7910
vn 0.6053 0.1052 0.7890
vn -0.6031 0.1369 0.7859
vn -0.9966 -0.0696 0.0437
vn -0.9966 -0.0696 0.0438
vn 0.6054 0.1052 0.7889
vn -0.9205 0.0850 0.3813
vn -0.3827 -0.0102 -0.9238
vn -0.2589 -0.0103 -0.9659
vn 0.9612 -0.0990 -0.2576
vn -0.9064 -0.1936 -0.3755
vn 0.9902 -0.0510 -0.1302
vn -0.5112 0.3088 -0.8021
vn -0.4998 0.0231 -0.8658
vn -0.2585 0.0527 -0.9646
vn -0.6085 0.0222 -0.7932
vn -0.1305 0.0000 -0.9915
vn -0.0681 0.8530 -0.5174
vn 0.3827 -0.0000 0.9239
vn 0.7910 -0.0781 0.6068
vn 0.7919 -0.0621 0.6075
vn 0.1305 -0.0000 0.9915
vn -0.9238 0.0000 -0.3828
vn -0.9536 0.0000 -0.3009
vn 0.6055 -0.0864 -0.7911
vn 0.6088 0.0000 -0.7933
vn 0.6065 -0.0864 -0.7904
vn 0.3827 0.0000 -0.9239
vn -0.7718 -0.4031 -0.4918
vn -0.6762 -0.2922 -0.6762
vn -0.6087 0.0000 -0.7934
vn 0.1302 0.0591 -0.9897
vn 0.1305 0.0018 -0.9915
vn 0.1295 0.1225 -0.9840
vn -0.9764 0.0000 -0.2162
vn -0.9915 0.0000 -0.1305
vn 0.7933 0.0000 -0.6088
vn -0.6088 -0.0000 0.7933
vn -0.6085 0.0324 0.7929
vn -0.3826 0.0105 0.9238
vn -0.3827 -0.0000 0.9239
vn -0.1305 -0.0000 0.9914
vn 0.0000 -0.0000 1.0000
vn 0.1271 -0.1471 -0.9809
vn 0.1305 0.0000 -0.9914
vn -0.0001 -0.9786 -0.2056
vn -0.7465 -0.5891 -0.3093
vn -0.2942 -0.2097 -0.9324
vn -0.3528 -0.3877 -0.8516
vn 0.6087 -0.0000 0.7934
vn 0.4856 0.2385 -0.8411
vn 0.7061 0.0533 -0.7061
vn 0.6992 0.1493 -0.6992
vn 0.8432 0.0201 -0.5373
vn 0.9902 -0.0510 -0.1303
vn 0.9728 -0.0846 -0.2155
vn 0.9632 -0.2369 -0.1268
vn 0.9612 -0.0991 -0.2576
vn 0.9167 -0.1246 -0.3798
vn -0.9205 0.0850 0.3814
vn -0.9210 0.0850 0.3803
vn -0.9239 -0.0000 0.3827
vn 0.1305 -0.0000 0.9914
vn 0.1305 0.0142 0.9913
vn -0.0001 -0.9786 -0.2055
vn -0.2588 -0.0103 -0.9659
vn 0.9915 0.0000 0.1305
vn -0.9064 -0.1936 -0.3756
vn -0.3828 -0.0000 0.9238
vn 0.8660 0.0000 -0.5000
vn 0.9238 0.0000 -0.3828
vn -0.9966 -0.0697 0.0437
vn -0.9471 -0.2430 0.2098
vn -0.7978 -0.6029 -0.0000
vn -0.9238 -0.0000 0.3828
s off
f 15//1 14//2 13//1
f 17//3 16//4 15//5
f 24//6 13//7 23//8
f 14//9 23//10 13//1
f 15//11 14//11 16//11
f 25//12 16//4 17//13
f 17//14 25//11 26//15
f 26//16 25//11 30//17
f 26//18 30//17 31//11
f 34//19 33//20 32//21
f 36//22 35//23 34//24
f 37//25 35//26 36//27
f 39//11 40//28 41//29
f 33//30 41//31 32//32
f 31//11 30//17 43//33
f 31//11 43//34 44//11
f 32//21 41//35 39//1
f 39//36 40//1 45//36
f 34//11 33//37 35//38
f 45//39 47//40 40//28
f 47//1 43//1 44//1
f 44//41 47//40 45//39
s 1
f 1//42 15//43 2//44
f 3//45 17//3 1//42
f 2//44 13//46 4//47
f 15//48 2//48 13//48
f 15//43 1//42 17//3
f 17//14 5//49 3//50
f 13//51 4//51 24//51
f 5//49 17//14 26//18
f 5//52 8//53 26//52
f 9//54 34//55 6//56
f 6//57 36//57 10//57
f 41//29 11//58 7//59
f 12//60 41//29 7//59
f 4//61 24//62 29//63
f 31//64 26//52 8//53
f 8//53 18//65 31//64
f 39//66 9//66 19//66
f 32//21 9//67 34//68
f 34//69 6//70 36//27
f 36//27 10//71 37//72
f 10//73 37//74 20//75
f 40//28 21//76 11//58
f 11//58 41//29 40//28
f 22//77 33//37 12//78
f 33//30 12//79 41//31
f 23//10 29//63 24//62
f 14//9 42//80 23//10
f 16//81 48//82 14//9
f 16//81 25//83 48//82
f 44//65 31//64 18//65
f 44//84 27//85 18//86
f 45//87 19//88 27//85
f 9//66 39//66 32//66
f 39//89 45//90 19//91
f 37//25 20//92 35//93
f 20//94 35//95 22//77
f 21//96 28//96 47//96
f 21//76 40//28 47//97
f 33//37 22//77 35//95
f 42//98 23//98 29//98
f 42//80 14//9 48//82
f 46//99 48//82 25//83
f 25//83 30//100 46//99
f 27//85 44//84 45//87
f 43//101 38//102 28//103
f 28//103 47//65 43//101
f 30//17 46//104 38//102
f 38//102 43//101 30//17
