# Blender v2.91.0 OBJ File: 'model.blend'
# www.blender.org
o tl_foot_mesh1_mesh1-geometry.004
v -0.127400 0.230686 0.199018
v -0.120052 0.230686 0.198051
v -0.113204 0.230686 0.195214
v -0.134749 0.230686 0.198051
v -0.107324 0.230686 0.190702
v -0.134749 -0.301667 0.198051
v -0.120052 -0.301667 0.198051
v -0.127400 -0.301667 0.199018
v -0.141596 -0.301667 0.195214
v -0.113204 -0.301667 0.195214
v -0.102812 0.230686 0.184822
v -0.141596 0.230686 0.195214
v -0.147476 -0.301667 0.190702
v -0.107324 -0.301667 0.190702
v -0.099975 0.230686 0.177974
v -0.147476 0.230686 0.190702
v -0.151988 -0.301667 0.184822
v -0.099008 0.230686 0.170626
v -0.155792 0.230686 0.170626
v -0.151988 0.230686 0.184822
v -0.102812 -0.301667 0.184822
v -0.099975 0.230686 0.163277
v -0.154825 0.230686 0.177974
v -0.154825 0.230686 0.163277
v -0.154825 -0.301667 0.177974
v -0.099975 -0.301667 0.177974
v -0.102812 0.230686 0.156430
v -0.151988 0.230686 0.156430
v -0.155792 -0.301667 0.170626
v -0.127400 -0.301667 0.171384
v -0.099008 -0.301667 0.170626
v -0.107324 0.230686 0.150550
v -0.147476 0.230686 0.150550
v -0.127204 -0.301667 0.171359
v -0.127020 -0.301667 0.171283
v -0.126864 -0.301667 0.171162
v -0.126743 -0.301667 0.171006
v -0.126667 -0.301667 0.170822
v -0.126667 -0.301667 0.170429
v -0.099975 -0.301667 0.163277
v -0.128159 -0.301667 0.170626
v -0.154825 -0.301667 0.163277
v -0.141596 0.230686 0.146038
v -0.151988 -0.301667 0.156430
v -0.127597 -0.301667 0.171359
v -0.127780 -0.301667 0.171283
v -0.127937 -0.301667 0.171162
v -0.128058 -0.301667 0.171006
v -0.128133 -0.301667 0.170822
v -0.126642 -0.301667 0.170626
v -0.126743 -0.301667 0.170246
v -0.126864 -0.301667 0.170089
v -0.127020 -0.301667 0.169968
v -0.127204 -0.301667 0.169893
v -0.127400 -0.301667 0.169867
v -0.102812 -0.301667 0.156430
v -0.128133 -0.301667 0.170429
v -0.134749 0.230686 0.143201
v -0.147476 -0.301667 0.150550
v -0.127597 -0.301667 0.169893
v -0.107324 -0.301667 0.150550
v -0.113204 0.230686 0.146038
v -0.128058 -0.301667 0.170246
v -0.127937 -0.301667 0.170089
v -0.127780 -0.301667 0.169968
v -0.127400 0.230686 0.142234
v -0.127780 0.195196 0.171283
v -0.126743 0.195196 0.171006
v -0.127204 0.195196 0.171359
v -0.141596 -0.301667 0.146038
v -0.113204 -0.301667 0.146038
v -0.120052 0.230686 0.143201
v -0.134749 -0.301667 0.143201
v -0.120052 -0.301667 0.143201
v -0.127400 -0.301667 0.142234
vn 0.0000 -1.0000 0.0000
vn 0.0000 1.0000 0.0000
vn -0.6087 -0.0163 0.7933
vn -0.6084 -0.0324 0.7930
vn -0.7809 0.1763 -0.5992
vn 0.7889 0.1052 -0.6054
vn 0.7916 0.0664 -0.6074
vn 0.7890 0.1052 -0.6054
vn -0.7809 0.1763 -0.5993
vn -0.7912 0.0731 -0.6071
vn 0.9201 -0.0899 0.3812
vn -0.9205 -0.0850 0.3813
vn -0.9562 -0.1411 0.2563
vn 0.8985 -0.2329 0.3722
vn 0.8984 -0.2329 0.3723
vn -0.9563 -0.1411 0.2563
vn -0.9813 -0.1428 0.1291
vn 0.0000 -1.0000 0.0007
vn -0.0424 -0.0026 -0.9991
vn -0.9535 0.0177 0.3009
vn -0.9901 0.0514 0.1303
vn 0.9762 0.0173 0.2162
vn 0.9997 0.0259 0.0000
vn 0.6749 -0.0258 -0.7375
vn 0.6748 -0.0258 -0.7376
vn 0.0000 -1.0000 0.0004
vn 0.0000 -1.0000 -0.0001
vn 0.0000 -1.0000 0.0002
vn -0.8863 -0.0171 0.4627
vn 0.4592 0.0258 -0.8879
vn 0.9538 -0.0370 0.2982
vn 0.0000 1.0000 -0.0009
vn -0.6079 -0.0528 -0.7922
vn 0.9538 -0.0373 0.2982
vn 0.0000 -1.0000 -0.0003
vn -0.6079 -0.0528 -0.7923
vn -0.6081 -0.0459 -0.7925
vn -0.6075 0.0633 0.7918
vn -0.7070 0.0164 0.7070
vn -0.6076 0.0633 0.7917
vn 0.3009 -0.0012 -0.9536
vn 0.1305 -0.0036 -0.9914
vn 0.1305 -0.0000 0.9915
vn 0.2588 -0.0000 0.9659
vn -0.1305 0.0000 -0.9915
vn 0.3827 -0.0000 0.9239
vn -0.3827 0.0000 -0.9239
vn -0.1305 -0.0000 0.9915
vn 0.6088 -0.0000 0.7933
vn -0.6088 0.0000 -0.7933
vn 0.3009 -0.0000 -0.9536
vn 0.2588 0.0000 -0.9659
vn 0.1305 0.0000 -0.9915
vn 0.7933 -0.0000 0.6088
vn 0.7166 -0.4292 0.5498
vn 0.6114 -0.6373 0.4691
vn 0.3828 0.0000 -0.9238
vn -0.6087 -0.0163 0.7932
vn -0.6088 -0.0000 0.7933
vn -0.6084 -0.0324 0.7929
vn -0.7794 0.1762 -0.6012
vn -0.7933 0.0000 -0.6088
vn 0.9201 -0.0899 0.3811
vn 0.9239 -0.0000 0.3827
vn 0.7933 0.0000 -0.6088
vn -0.6440 0.7603 -0.0848
vn -0.8472 0.5195 -0.1115
vn -0.9914 0.0000 -0.1305
vn 0.9560 -0.2933 0.0000
vn 0.9914 -0.0000 0.1305
vn 1.0000 -0.0000 -0.0000
vn 0.8470 -0.5197 -0.1115
vn 0.9106 0.4114 0.0399
vn 0.9915 0.0000 -0.1305
vn 0.9997 0.0260 -0.0000
vn 0.9439 0.2123 0.2529
vn 0.9239 0.0000 -0.3827
vn -0.9239 0.0000 0.3827
vn -0.9563 -0.1411 0.2562
vn -0.9902 0.0514 0.1296
vn -0.7530 0.6263 0.2018
vn -0.8990 0.2306 0.3723
vn -0.9915 0.0000 0.1305
vn -0.8660 -0.0000 -0.5000
vn -0.9238 0.0000 -0.3828
vn -0.8660 0.0000 -0.5001
vn 0.9238 -0.0000 0.3828
vn -0.9239 -0.0000 0.3828
vn 0.7346 -0.3776 -0.5637
vn -0.1293 0.0438 -0.9906
vn -0.1264 0.0000 -0.9920
vn 0.6106 0.0000 -0.7920
vn -0.7070 0.0163 0.7070
vn -0.7933 -0.0000 0.6088
vn -0.7071 -0.0000 0.7071
vn -0.6006 -0.1636 -0.7827
vn -0.5652 -0.3713 -0.7366
vn -0.9243 0.0000 -0.3818
vn -0.9056 0.0000 -0.4242
vn -0.6076 0.0633 0.7918
vn 0.3828 -0.0000 0.9238
vn 0.6088 0.0000 -0.7933
vn 0.5000 -0.0000 -0.8660
vn 0.4616 0.0000 -0.8871
vn -0.0650 -0.9158 -0.3963
vn -0.2588 -0.0000 -0.9659
vn -0.2571 -0.1170 -0.9593
vn -0.3828 0.0000 -0.9238
vn 0.3010 -0.0012 -0.9536
vn 0.0000 -0.0000 1.0000
s off
f 6//1 7//1 8//1
f 10//2 9//2 7//2
f 7//1 6//1 9//1
f 10//1 9//3 13//4
f 14//5 13//6 10//2
f 17//7 13//8 14//9
f 21//10 17//7 14//5
f 21//11 17//12 25//13
f 21//11 25//13 26//14
f 26//15 25//16 29//17
f 26//2 31//2 30//2
f 26//14 29//17 30//1
f 31//18 30//19 34//18
f 40//20 39//2 31//21
f 42//22 29//23 41//2
f 40//1 42//1 44//1
f 46//1 29//1 47//24
f 47//25 29//1 48//1
f 48//26 29//26 49//26
f 46//2 29//2 45//2
f 49//1 29//1 41//1
f 35//2 34//2 31//2
f 36//2 35//2 31//2
f 37//2 36//2 31//2
f 38//2 37//2 31//2
f 31//27 50//27 39//27
f 50//2 38//2 31//2
f 40//28 51//29 52//28
f 51//2 39//2 40//20
f 53//30 52//2 40//2
f 54//2 53//30 40//2
f 55//2 54//2 40//2
f 40//1 44//1 56//1
f 41//1 42//1 57//31
f 59//2 44//2 56//2
f 40//1 55//1 42//1
f 55//32 42//32 60//32
f 56//1 59//33 61//1
f 57//34 42//35 63//35
f 63//1 42//1 64//1
f 64//1 42//1 65//1
f 65//1 42//1 60//1
f 61//1 59//36 70//37
f 71//38 70//2 61//39
f 73//2 70//2 71//40
f 74//2 73//2 71//38
f 74//41 73//1 75//42
s 1
f 1//43 7//44 2//44
f 8//45 1//45 7//45
f 10//46 2//44 7//44
f 3//47 10//47 2//47
f 4//48 8//48 1//48
f 14//49 3//49 10//49
f 5//50 14//50 3//50
f 6//51 4//52 8//53
f 14//54 11//55 5//56
f 4//52 6//51 12//57
f 9//57 12//57 6//51
f 9//58 16//59 13//60
f 21//10 14//61 11//62
f 21//63 15//64 11//64
f 16//59 9//58 12//59
f 13//6 17//7 16//65
f 15//64 21//63 26//14
f 15//66 18//67 26//68
f 20//65 16//65 17//7
f 18//69 26//70 31//71
f 31//71 22//72 18//69
f 19//73 23//74 29//75
f 24//76 19//73 42//22
f 23//77 20//77 25//77
f 20//78 25//79 17//12
f 40//20 31//80 22//81
f 22//81 27//82 40//20
f 23//83 29//17 25//79
f 29//75 42//22 19//73
f 44//84 24//85 28//86
f 42//22 44//87 24//76
f 56//88 40//20 27//82
f 56//65 32//89 27//89
f 33//54 28//54 59//54
f 28//86 59//62 44//84
f 30//90 69//91 34//91
f 47//24 67//92 46//92
f 61//93 56//94 32//95
f 43//96 59//33 33//97
f 68//98 38//98 37//99
f 61//93 32//95 71//100
f 43//101 70//101 58//101
f 59//33 43//96 70//37
f 32//102 71//103 62//104
f 66//105 73//106 58//107
f 70//108 58//107 73//106
f 74//109 62//104 71//103
f 62//104 74//109 72//52
f 75//110 66//110 73//43
f 66//110 75//110 72//48
f 75//42 72//52 74//109
