# Blender v2.91.0 OBJ File: 'model.blend'
# www.blender.org
mtllib seat.mtl
o seat_mesh18_mesh18-geometry
v 0.244755 -0.018837 -0.183710
v 0.244755 -0.045192 0.182972
v 0.244755 -0.045192 -0.183710
v 0.244755 -0.018837 0.182972
v -0.162444 -0.045192 -0.183710
v -0.162444 -0.018837 0.182972
v -0.162444 -0.018837 -0.183710
v -0.162444 -0.045192 0.182972
vt -1.101848 11.888414
vt -0.002292 11.013469
vt -0.002292 11.888414
vt 0.001128 11.985071
vt 1.100685 11.110126
vt 1.100685 11.985071
vt 0.000000 12.146991
vt -0.990148 11.272047
vt 0.000000 11.272047
vt 0.000000 0.000000
vt 0.000000 0.000000
vt 0.000000 0.000000
vt 0.000000 0.000000
vt 0.000000 0.000000
vt 0.000000 0.000000
vt 0.000000 0.000000
vt 0.000000 0.000000
vt 0.612253 0.022219
vt 0.001968 0.699938
vt 0.001968 0.022219
vn -0.0000 0.9974 0.0717
vn 0.0000 0.0000 1.0000
vn 0.0000 0.0000 -1.0000
vn -1.0000 0.0000 0.0000
vn -0.6692 -0.0000 0.7431
vn -0.8743 -0.0000 0.4854
vn 0.0000 -1.0000 -0.0000
vn -0.0000 0.9974 -0.0717
vn 0.0000 1.0000 0.0000
vn 0.0646 -0.9979 -0.0000
vn -0.0001 0.9974 -0.0717
vn 1.0000 0.0000 0.0000
usemtl material_3_1_8
s off
f 6/1/1 2/2/2 4/3/1
f 1/4/3 5/5/3 7/6/3
f 6/7/4 5/8/4 8/9/4
usemtl material_1_24
f 3/10/5 2/11/4 1/12/6
f 4/13/4 1/12/6 2/11/4
f 2/11/7 5/14/7 3/10/7
f 3/10/5 1/12/6 5/14/2
f 8/15/8 2/11/8 5/14/9
f 7/16/10 1/12/7 6/17/10
f 8/15/8 6/17/3 2/11/11
f 7/16/10 6/17/10 5/14/12
usemtl material_4_2_8
f 1/18/9 6/19/1 4/20/1
