# Blender v2.91.0 OBJ File: 'model.blend'
# www.blender.org
mtllib head.mtl
o head_mesh32_mesh32-geometry
v -0.136966 0.393617 -0.072576
v -0.137251 0.395215 0.076343
v -0.138210 0.395871 0.001589
v -0.165585 0.289142 0.020872
v -0.158828 0.293036 0.068526
v -0.157252 0.290462 0.074450
v -0.163002 0.286276 0.009168
v -0.122858 0.388769 -0.001104
v -0.118892 0.383457 0.077770
v -0.126048 0.394758 0.072210
v -0.114854 0.370005 0.072919
v -0.136250 0.397955 0.075226
v -0.131243 0.398167 -0.071680
v -0.114606 0.369773 -0.072110
v -0.113778 0.351017 0.079713
v -0.127492 0.385574 0.083670
v -0.120766 0.387808 -0.066575
v -0.135214 0.397368 -0.075425
v -0.121522 0.380817 -0.081023
v -0.114421 0.341378 -0.076335
v -0.126295 0.363067 0.082464
v -0.116401 0.332045 0.079180
v -0.125194 0.333252 0.083697
v -0.125073 0.371194 -0.080233
v -0.126031 0.356461 0.071073
v -0.122273 0.315280 -0.071834
v -0.124514 0.319629 -0.079612
v -0.133359 0.322918 0.081398
v -0.124562 0.334082 -0.080791
v -0.133847 0.382862 0.058686
v -0.141938 0.393857 0.001105
v -0.126208 0.307292 0.075894
v -0.140027 0.298503 0.084282
v -0.146160 0.302365 0.083142
v -0.140472 0.393054 0.041964
v -0.140514 0.311294 0.070665
v -0.133983 0.382862 -0.059240
v -0.134217 0.296610 -0.072239
v -0.139232 0.299367 -0.080423
v -0.139897 0.381084 0.022765
v -0.139728 0.381893 -0.020036
v -0.127982 0.366095 -0.066540
v -0.141066 0.290040 0.070941
v -0.147082 0.296435 -0.079295
v -0.142870 0.348853 0.003062
v -0.144052 0.341416 -0.000389
v -0.127405 0.370991 -0.079867
v -0.145568 0.287420 -0.072852
v -0.153092 0.284939 0.070671
v -0.148371 0.301535 0.052792
v -0.144421 0.335863 0.022106
v -0.147653 0.326107 -0.018609
v -0.128251 0.340543 -0.067024
v -0.158684 0.280493 0.024109
v -0.157806 0.286558 0.066751
v -0.157065 0.288794 -0.067918
v -0.152000 0.299420 0.022210
v -0.135058 0.342949 0.022153
v -0.156490 0.310395 0.003260
v -0.167084 0.291032 0.000402
v -0.132206 0.378608 -0.018955
v -0.130247 0.329292 -0.078912
v -0.155337 0.284082 -0.061026
v -0.163140 0.283059 0.012150
v -0.165943 0.288390 -0.017443
v -0.135536 0.340602 -0.018967
v -0.145210 0.304643 -0.064127
v -0.161300 0.282410 -0.019792
v -0.152316 0.299292 -0.019490
v -0.146119 0.303526 -0.078569
v -0.159062 0.291759 -0.066913
v -0.175040 0.256975 0.020492
v -0.170409 0.252097 0.026845
v -0.177804 0.239033 0.025592
v -0.171584 0.238413 0.025375
v -0.170421 0.252112 -0.024041
v -0.171166 0.257126 -0.016615
v -0.177635 0.239637 -0.022430
v -0.165585 0.289142 0.020872
v -0.174651 0.276146 0.019099
v -0.171695 0.238666 -0.022772
v -0.162964 0.288709 -0.003676
v -0.171511 0.276130 -0.005188
v -0.172081 0.256987 -0.002788
v -0.174467 0.276256 -0.015886
v -0.165414 0.288242 -0.015350
v -0.171038 0.275380 0.016898
v -0.169353 0.280403 0.003427
v -0.125680 0.348897 -0.079036
v -0.129219 0.390603 -0.072392
v -0.126726 0.356526 -0.008901
v -0.129447 0.390576 0.074936
v -0.128935 0.338231 0.010273
v -0.125570 0.355264 0.083826
v -0.129144 0.328945 0.082287
v -0.129475 0.327800 -0.079111
v -0.141052 0.305146 0.002921
v -0.139547 0.305160 0.082733
v -0.139727 0.305052 -0.079488
v -0.161108 0.282320 -0.000061
v -0.155715 0.287012 0.070491
v -0.155512 0.287251 -0.067549
vn 0.7978 0.6029 -0.0049
vn -0.9605 -0.2312 0.1551
vn -0.5027 -0.8587 0.0993
vn -0.6471 0.2991 0.7013
vn 0.0239 -0.1088 0.9938
vn -0.8236 0.4283 -0.3718
vn -0.2941 0.0752 0.9528
vn -0.0714 -0.0870 -0.9936
vn 0.3508 -0.1268 -0.9278
vn 0.5776 0.7642 0.2869
vn 0.8062 0.4037 0.4324
vn 0.8643 0.5029 -0.0059
vn 0.9764 0.1802 0.1184
vn -0.3429 0.8492 0.4015
vn 0.3488 0.9056 -0.2413
vn 0.9566 0.1675 -0.2383
vn 0.8108 -0.0051 0.5853
vn 0.0262 0.3224 0.9462
vn 0.8411 0.5304 -0.1054
vn -0.1943 0.8488 -0.4917
vn -0.8233 0.1875 0.5358
vn 0.4282 0.3050 -0.8506
vn 0.8476 -0.1144 -0.5181
vn -0.5484 -0.1021 0.8300
vn -0.9947 0.0910 -0.0469
vn 0.8333 -0.2299 0.5027
vn 0.0946 -0.0349 0.9949
vn -0.2644 0.0185 -0.9642
vn -0.9999 -0.0069 0.0042
vn 0.8767 -0.4266 -0.2220
vn 0.5636 -0.2599 -0.7841
vn -0.8383 0.4073 0.3624
vn 0.6541 -0.0516 -0.7547
vn -0.9358 -0.3438 0.0779
vn 0.2055 0.9786 -0.0089
vn -0.8606 0.5089 -0.0194
vn 0.8039 -0.4942 0.3308
vn 0.2163 -0.4581 0.8621
vn -0.6148 0.2511 0.7476
vn -0.9851 0.1396 0.1000
vn -0.8130 0.5777 0.0716
vn -0.9484 -0.3115 -0.0590
vn 0.7180 -0.6363 -0.2819
vn 0.2640 -0.3406 -0.9023
vn -0.9910 -0.0631 0.1182
vn -0.9227 0.0537 -0.3817
vn -0.9855 -0.1500 -0.0785
vn 0.5484 -0.8058 0.2234
vn -0.7349 -0.2374 0.6352
vn -0.0822 -0.4702 -0.8787
vn -0.9372 0.3093 0.1611
vn -0.9855 0.1583 0.0600
vn -0.9786 0.2044 -0.0224
vn -0.9783 -0.1845 -0.0938
vn 0.1792 -0.8556 -0.4855
vn -0.0702 -0.9181 0.3899
vn -0.6465 0.7627 -0.0177
vn -0.6182 0.1762 0.7660
vn -0.6292 0.2361 -0.7405
vn -0.9873 0.1584 -0.0099
vn -0.1469 -0.9871 0.0640
vn -0.8104 -0.5542 0.1899
vn -0.4755 -0.7250 -0.4982
vn -0.4157 0.4508 0.7899
vn 0.0033 -0.0110 0.9999
vn -0.9092 0.4107 0.0686
vn -0.8944 0.4469 -0.0194
vn 0.1074 -0.0381 -0.9935
vn -0.9344 0.3393 -0.1084
vn -0.3391 -0.9234 -0.1798
vn -0.8896 -0.4558 0.0285
vn -0.9586 -0.1547 0.2391
vn -0.7778 0.5844 -0.2311
vn -0.0392 0.0081 -0.9992
vn -0.7546 0.6555 -0.0292
vn -0.7465 -0.6600 -0.0845
vn -0.9983 -0.0579 -0.0092
vn -0.4838 0.4600 -0.7445
vn -0.7859 0.6182 0.0016
vn -0.6713 0.7409 -0.0203
vn -0.3859 0.7700 0.5080
vn -0.2486 0.4996 0.8298
vn 0.8554 0.1841 -0.4840
vn -0.6831 -0.4714 -0.5577
vn -0.6565 -0.4980 0.5666
vn -0.5797 0.4960 -0.6464
vn -0.0558 -0.7553 0.6530
vn -0.8087 0.2693 0.5229
vn -0.1570 -0.7249 -0.6706
vn -0.7017 0.3008 -0.6459
vn 0.4724 0.5028 -0.7239
vn 0.9594 -0.2568 -0.1162
vn -0.4770 0.8185 0.3201
vn 0.9923 -0.1148 0.0457
vn 0.9366 -0.2313 0.2633
vn 0.8809 -0.2456 -0.4044
vn 0.8850 -0.4559 -0.0944
vn -0.9999 0.0079 -0.0078
vn -0.9966 -0.0814 -0.0045
vn -0.9983 0.0572 -0.0117
vn -0.9949 -0.0999 0.0083
vn -0.9733 0.2295 0.0063
vn -0.9996 0.0229 0.0128
vn -0.9628 0.2693 0.0192
vn -0.9546 0.2972 -0.0177
vn -0.8558 0.5173 -0.0007
vn -0.8581 0.5133 0.0159
vn -0.8548 0.5188 -0.0147
vn -0.7513 0.6599 -0.0004
vn -0.7511 0.6600 0.0135
vn -0.7529 0.6580 -0.0143
usemtl material_0_24
s off
f 3//1 2//1 1//1
f 4//2 6//2 5//2
f 4//3 7//3 6//3
f 74//4 73//4 72//4
f 73//5 74//5 75//5
f 76//6 78//6 77//6
f 80//7 72//7 79//7
f 81//8 78//8 76//8
f 84//9 83//9 82//9
s 1
f 10//10 9//11 8//12
f 8//12 9//11 11//13
f 9//11 10//10 12//14
f 13//15 10//10 8//12
f 8//12 11//13 14//16
f 11//13 9//11 15//17
f 10//10 13//15 12//14
f 12//14 16//18 9//11
f 13//15 8//12 17//19
f 14//16 11//13 15//17
f 14//16 17//19 8//12
f 15//17 9//11 16//18
f 18//20 12//14 13//15
f 12//14 2//21 16//18
f 13//15 17//19 19//22
f 14//16 15//17 20//23
f 19//22 17//19 14//16
f 16//18 21//24 15//17
f 18//20 1//25 12//14
f 19//22 18//20 13//15
f 2//21 21//24 16//18
f 2//21 12//14 1//25
f 15//17 22//26 20//23
f 19//22 14//16 20//23
f 23//27 15//17 21//24
f 19//22 24//28 18//20
f 21//24 2//21 25//29
f 20//23 22//26 26//30
f 15//17 23//27 22//26
f 20//23 27//31 19//22
f 21//24 28//32 23//27
f 29//33 24//28 19//22
f 25//29 2//21 30//34
f 25//29 28//32 21//24
f 3//35 31//36 2//21
f 1//25 31//36 3//35
f 20//23 26//30 27//31
f 22//26 32//37 26//30
f 23//27 33//38 22//26
f 19//22 27//31 29//33
f 34//39 23//27 28//32
f 30//34 2//21 35//40
f 28//32 25//29 36//41
f 31//36 35//40 2//21
f 1//25 37//42 31//36
f 27//31 26//30 38//43
f 38//43 26//30 32//37
f 22//26 33//38 32//37
f 34//39 33//38 23//27
f 27//31 39//44 29//33
f 34//39 28//32 36//41
f 30//34 35//40 40//45
f 31//36 40//45 35//40
f 41//46 31//36 37//42
f 42//47 37//42 1//25
f 39//44 27//31 38//43
f 38//43 32//37 43//48
f 33//38 43//48 32//37
f 34//39 6//49 33//38
f 39//44 44//50 29//33
f 5//51 34//39 36//41
f 45//52 40//45 31//36
f 46//53 31//36 41//46
f 47//54 42//47 1//25
f 48//55 39//44 38//43
f 38//43 43//48 48//55
f 49//56 43//48 33//38
f 33//38 6//49 49//56
f 6//49 34//39 5//51
f 39//44 48//55 44//50
f 36//41 50//57 5//51
f 45//52 51//58 40//45
f 52//59 46//53 41//46
f 47//54 53//60 42//47
f 54//61 48//55 43//48
f 49//56 54//61 43//48
f 49//56 6//49 55//62
f 48//55 56//63 44//50
f 50//57 57//64 5//51
f 51//58 58//65 40//45
f 59//66 51//58 45//52
f 52//59 60//67 46//53
f 41//46 61//68 52//59
f 62//69 53//60 47//54
f 48//55 54//61 63//70
f 55//62 54//61 49//56
f 64//71 55//62 6//49
f 57//64 4//72 5//51
f 48//55 63//70 56//63
f 51//58 57//64 58//65
f 4//72 51//58 59//66
f 65//73 60//67 52//59
f 61//68 66//74 52//59
f 67//75 53//60 62//69
f 54//61 68//76 63//70
f 64//71 54//61 55//62
f 64//71 6//49 7//77
f 4//72 57//64 51//58
f 63//70 68//76 56//63
f 4//72 59//66 60//67
f 69//78 65//73 52//59
f 66//74 69//78 52//59
f 62//69 70//79 67//75
f 54//61 64//71 68//76
f 64//71 7//77 68//76
f 68//76 7//77 56//63
f 69//78 71//80 65//73
f 70//79 71//80 67//75
f 67//75 71//80 69//78
f 72//81 73//82 77//83
f 78//84 74//85 72//81
f 73//82 76//86 77//83
f 75//87 74//85 78//84
f 78//84 72//81 80//88
f 75//87 78//84 81//89
f 78//84 80//88 85//90
f 85//90 77//83 78//84
f 80//88 86//91 85//90
f 87//92 79//93 72//81
f 86//91 80//88 79//93
f 86//91 77//83 85//90
f 84//94 87//92 72//81
f 79//93 87//92 88//95
f 77//83 86//91 83//96
f 88//95 87//92 84//94
f 83//96 84//94 77//83
f 86//91 82//97 83//96
f 82//97 88//95 84//94
f 91//98 90//99 89//100
f 90//99 91//98 92//101
f 93//102 91//98 89//100
f 94//103 92//101 91//98
f 91//98 93//102 95//104
f 96//105 93//102 89//100
f 94//103 91//98 95//104
f 97//106 95//104 93//102
f 97//106 93//102 96//105
f 98//107 95//104 97//106
f 97//106 96//105 99//108
f 100//109 98//107 97//106
f 100//109 97//106 99//108
f 101//110 98//107 100//109
f 102//111 100//109 99//108
