# Blender v2.91.0 OBJ File: 'model.blend'
# www.blender.org
mtllib left_arm.mtl
o left_arm_mesh2_mesh2-geometry
v -0.069616 -0.136645 0.167825
v -0.078083 -0.155852 0.168318
v -0.077991 -0.135420 0.180946
v -0.084725 -0.158496 0.148856
v -0.074051 -0.131654 0.169653
v -0.075861 -0.149629 0.144573
v -0.050667 -0.040903 0.174153
v -0.063548 -0.144866 0.150710
v -0.088370 -0.174311 0.104880
v -0.037772 -0.044505 0.164826
v -0.045355 -0.042038 0.186401
v -0.085255 -0.167217 0.137717
v -0.060329 -0.134169 0.164200
v -0.073239 -0.157984 0.105480
v -0.066050 -0.135865 0.189266
v -0.056118 -0.139258 0.165370
v -0.072055 -0.173769 0.138254
v -0.047830 -0.137967 0.167877
v -0.050593 -0.158712 0.136974
v -0.087494 -0.178232 0.104481
v -0.020211 -0.050202 0.168465
v -0.027892 -0.047456 0.189531
v -0.059830 -0.163881 0.167075
v -0.042844 -0.140486 0.174723
v -0.050634 -0.164859 0.104739
v -0.052051 -0.140060 0.188079
v -0.046180 -0.149952 0.174441
v -0.065809 -0.183300 0.104555
v -0.047774 -0.158466 0.152935
v -0.044258 -0.141363 0.182667
v -0.016391 -0.051657 0.180250
v 0.070174 0.000619 0.159951
v 0.061287 0.004415 0.204908
v 0.064731 0.004756 0.150052
v 0.066888 -0.007654 0.206709
v 0.018265 0.010236 0.149378
v 0.010352 0.010910 0.207324
v -0.079481 0.010344 0.147749
v 0.000444 -0.002227 0.212423
v 0.064014 -0.007033 0.145480
v 0.017428 -0.002402 0.145326
v -0.074198 0.009955 0.202462
v -0.019319 0.008211 0.209148
v 0.072384 -0.008867 0.156285
v -0.081409 -0.004016 0.144877
v -0.084762 0.007277 0.156288
v -0.000433 -0.003992 0.210387
v -0.075390 -0.002745 0.205744
v -0.085803 -0.003063 0.154876
v 0.001580 -0.007575 0.173252
v -0.013260 -0.029158 0.174062
v 0.005972 -0.006766 0.178582
v -0.040345 -0.001825 0.161502
v -0.053638 -0.002760 0.172588
v -0.041898 -0.006496 0.163929
v -0.041032 -0.022457 0.173881
v 0.017964 -0.005084 0.163844
v -0.048313 -0.001639 0.191729
v -0.032862 -0.023546 0.168642
v -0.019926 -0.008154 0.167769
v -0.040471 -0.022493 0.180973
v -0.064837 -0.133900 0.168414
v -0.038760 -0.006553 0.190468
v -0.073691 -0.131474 0.174521
v 0.013750 -0.005691 0.190832
v -0.034657 -0.023023 0.185153
v -0.072462 -0.131843 0.181485
v -0.054354 -0.137171 0.168648
v -0.021561 -0.008178 0.186766
v -0.047100 -0.139349 0.173027
v -0.015316 -0.028039 0.182952
v -0.063610 -0.134365 0.186422
v -0.045819 -0.139575 0.178832
v -0.051638 -0.137958 0.185170
vn 0.7812 -0.3308 0.5295
vn 0.5573 0.8293 0.0401
vn 0.8901 0.4339 0.1393
vn 0.7032 -0.5024 -0.5031
vn -0.9897 0.1198 0.0779
vn -0.8488 0.2025 0.4884
vn -0.7291 0.4546 -0.5114
vn -0.5163 0.7955 -0.3171
vn -0.9171 0.2967 -0.2660
vn -0.4611 -0.4562 0.7611
vn 0.1821 0.8417 -0.5083
vn -0.9904 0.1373 0.0154
vn -0.1925 0.0745 -0.9785
vn -0.5802 0.1930 0.7913
vn -0.8006 -0.5312 0.2772
vn 0.0600 0.4487 -0.8917
vn -0.2582 0.9331 -0.2501
vn -0.2780 0.0680 0.9582
vn 0.4787 -0.1890 0.8574
vn -0.2986 -0.0174 0.9542
vn -0.1881 -0.9242 0.3324
vn 0.6411 -0.0735 -0.7639
vn 0.6116 0.7523 -0.2449
vn -0.6528 -0.7209 0.2326
vn 0.6272 -0.1679 -0.7606
vn 0.2258 -0.0517 0.9728
vn 0.1326 -0.6866 0.7148
vn 0.9585 -0.2194 -0.1821
vn 0.9733 0.1985 -0.1150
vn 0.3186 -0.0979 0.9428
vn 0.3503 -0.5919 0.7259
vn 0.2628 -0.9463 0.1879
vn 0.9433 -0.3309 0.0248
vn 0.6849 -0.3686 0.6285
vn 0.9205 -0.2540 0.2967
vn 0.0727 0.8169 0.5721
vn 0.4523 0.6991 0.5537
vn 0.0578 0.8146 -0.5771
vn 0.4610 0.7137 -0.5273
vn -0.3912 0.7074 -0.5887
vn 0.0031 -0.2493 0.9684
vn 0.4314 0.2879 -0.8549
vn 0.0146 0.1617 -0.9867
vn -0.5130 0.6825 0.5205
vn 0.6999 0.3721 0.6095
vn -0.0603 0.5314 0.8450
vn 0.9407 0.2392 -0.2404
vn 0.8488 0.5266 -0.0469
vn -0.4976 0.2160 -0.8401
vn -0.8616 0.5036 -0.0638
vn -0.0338 -0.7479 0.6629
vn -0.6264 0.2222 0.7471
vn -0.9825 0.1186 -0.1436
vn -0.2287 -0.3879 -0.8929
vn -0.3742 -0.3778 -0.8469
vn -0.8339 -0.5125 -0.2046
vn -0.8812 -0.1756 -0.4388
vn 0.1107 -0.9851 -0.1314
vn -0.5442 -0.5231 0.6559
vn -0.2419 -0.0789 -0.9671
vn 0.1367 -0.5842 -0.8000
vn -0.8581 -0.1196 0.4993
vn -0.2700 0.0753 -0.9599
vn 0.3515 -0.8505 -0.3913
vn -0.0465 -0.3726 0.9268
vn -0.8852 0.2589 -0.3865
vn 0.7888 -0.3918 -0.4736
vn 0.2761 -0.9586 0.0693
vn 0.0909 -0.9908 0.1005
vn -0.3215 -0.0675 0.9445
vn -0.7772 0.2254 0.5874
vn 0.2618 -0.0790 -0.9619
vn 0.1272 -0.5911 0.7965
vn 0.7688 -0.2305 -0.5965
vn 0.6141 -0.2839 0.7364
vn -0.1891 0.0497 0.9807
vn 0.9218 -0.2825 0.2652
vn 0.4172 -0.1315 0.8992
usemtl material_0_24
s off
f 3//1 2//1 1//1
f 34//2 33//2 32//2
f 32//3 33//3 35//3
f 52//4 51//4 50//4
s 1
f 4//5 3//6 5//7
f 6//8 4//5 5//7
f 3//6 7//9 5//7
f 4//5 2//10 3//6
f 8//11 6//8 5//7
f 4//5 6//8 9//12
f 7//9 10//13 5//7
f 3//6 11//14 7//9
f 2//10 4//5 12//15
f 8//11 5//7 13//16
f 8//11 14//17 6//8
f 6//8 14//17 9//12
f 12//15 4//5 9//12
f 10//13 13//16 5//7
f 3//6 15//18 11//14
f 1//19 2//10 16//20
f 17//21 2//10 12//15
f 18//22 8//11 13//16
f 19//23 14//17 8//11
f 12//15 9//12 20//24
f 21//25 13//16 10//13
f 11//14 15//18 22//26
f 2//10 23//27 16//20
f 17//21 12//15 20//24
f 2//10 17//21 23//27
f 18//22 13//16 21//25
f 18//22 24//28 8//11
f 24//28 19//23 8//11
f 25//29 14//17 19//23
f 15//18 26//30 22//26
f 23//27 27//31 16//20
f 17//21 20//24 28//32
f 23//27 17//21 28//32
f 21//25 24//28 18//22
f 19//23 24//28 27//31
f 25//29 19//23 29//33
f 22//26 26//30 30//34
f 27//31 30//34 16//20
f 27//31 23//27 29//33
f 29//33 23//27 28//32
f 21//25 31//35 24//28
f 19//23 27//31 29//33
f 24//28 30//34 27//31
f 25//29 29//33 28//32
f 22//26 30//34 31//35
f 24//28 31//35 30//34
f 37//36 33//37 36//38
f 34//39 36//38 33//37
f 37//36 36//38 38//40
f 39//41 33//37 37//36
f 34//39 40//42 36//38
f 36//38 41//43 38//40
f 37//36 38//40 42//44
f 33//37 39//41 35//45
f 43//46 39//41 37//36
f 40//42 41//43 36//38
f 40//42 34//39 44//47
f 32//48 44//47 34//39
f 41//43 45//49 38//40
f 42//44 38//40 46//50
f 42//44 43//46 37//36
f 39//41 47//51 35//45
f 48//52 39//41 43//46
f 41//43 40//42 45//49
f 44//47 32//48 35//45
f 45//49 46//50 38//40
f 46//50 48//52 42//44
f 48//52 43//46 42//44
f 48//52 47//51 39//41
f 49//53 46//50 45//49
f 48//52 46//50 49//53
f 53//54 55//55 54//56
f 55//55 56//57 54//56
f 57//58 55//55 53//54
f 54//56 56//57 58//59
f 59//60 56//57 55//55
f 57//58 60//61 55//55
f 56//57 61//62 58//59
f 56//57 59//60 62//63
f 55//55 60//61 59//60
f 50//64 60//61 57//58
f 61//62 63//65 58//59
f 64//66 61//62 56//57
f 56//57 62//63 64//66
f 62//63 59//60 60//61
f 50//64 51//67 60//61
f 52//68 50//64 57//58
f 63//65 65//69 58//59
f 63//65 61//62 66//70
f 64//66 67//71 61//62
f 60//61 68//72 62//63
f 60//61 51//67 68//72
f 57//58 65//69 52//68
f 65//69 63//65 69//73
f 63//65 66//70 69//73
f 61//62 67//71 66//70
f 70//74 68//72 51//67
f 52//68 71//75 51//67
f 65//69 69//73 52//68
f 69//73 66//70 72//76
f 66//70 67//71 72//76
f 51//67 73//77 70//74
f 51//67 71//75 73//77
f 52//68 69//73 71//75
f 72//76 74//78 69//73
f 71//75 74//78 73//77
f 74//78 71//75 69//73
