# Blender v2.91.0 OBJ File: 'model.blend'
# www.blender.org
mtllib right_arm.mtl
o right_arm_mesh1_mesh1-geometry
v -0.055841 -0.139855 -0.165761
v -0.061040 -0.162649 -0.167065
v -0.043987 -0.145958 -0.179078
v -0.077900 -0.135983 -0.180673
v -0.076899 -0.156420 -0.168182
v -0.068127 -0.135171 -0.167112
v -0.084832 -0.162260 -0.150197
v -0.063831 -0.173363 -0.144203
v -0.048871 -0.160382 -0.147695
v -0.065645 -0.183389 -0.104572
v -0.050715 -0.157611 -0.140897
v -0.087318 -0.178200 -0.104659
v -0.050535 -0.164470 -0.104883
v -0.044388 -0.140120 -0.170914
v -0.080432 -0.144658 -0.165217
v -0.085397 -0.161408 -0.143231
v -0.072622 -0.157957 -0.105412
v -0.059740 -0.142588 -0.155595
v -0.016204 -0.052196 -0.180052
v -0.075532 -0.127853 -0.173911
v -0.088381 -0.174171 -0.104668
v -0.063768 -0.153542 -0.130978
v -0.052140 -0.135133 -0.165431
v -0.047689 -0.133271 -0.187395
v -0.020987 -0.049663 -0.168048
v -0.050640 -0.040992 -0.174167
v -0.069427 -0.132662 -0.166214
v -0.075309 -0.150989 -0.139430
v -0.027867 -0.047975 -0.189375
v -0.045344 -0.042140 -0.186612
v -0.038499 -0.044418 -0.165005
v -0.066233 -0.133885 -0.189250
v 0.068904 0.002495 -0.156463
v 0.071446 -0.008246 -0.146816
v 0.060426 0.004991 -0.148340
v 0.064433 -0.006901 -0.204825
v 0.044091 -0.004060 -0.210470
v 0.002043 -0.003712 -0.210327
v -0.054073 -0.001742 -0.210728
v -0.076675 -0.003659 -0.204826
v -0.075713 0.010395 -0.198845
v -0.084928 0.007312 -0.154250
v -0.086508 -0.003514 -0.154834
v 0.061542 0.004976 -0.202306
v 0.018635 0.010218 -0.149535
v 0.024449 0.009550 -0.206730
v 0.020330 -0.004526 -0.145420
v -0.021486 0.011211 -0.207379
v -0.079394 -0.002943 -0.144699
v -0.079397 0.010342 -0.148762
v -0.038498 -0.022305 -0.183476
v -0.041400 -0.022250 -0.175666
v -0.073653 -0.131344 -0.178857
v -0.072447 -0.131840 -0.173027
v -0.067654 -0.133218 -0.185332
v -0.037639 -0.022760 -0.170982
v -0.025329 -0.025177 -0.186649
v -0.064899 -0.133924 -0.168502
v -0.055700 -0.136707 -0.186361
v -0.024586 -0.025450 -0.167687
v -0.013495 -0.028950 -0.181415
v -0.054328 -0.137029 -0.168538
v -0.046185 -0.139525 -0.180618
v -0.014301 -0.028720 -0.173141
v -0.046790 -0.139304 -0.173370
v -0.034197 -0.022811 -0.186345
v -0.053664 -0.003050 -0.181776
v -0.041102 -0.022926 -0.178254
v -0.040669 -0.006957 -0.190526
v -0.048192 -0.001695 -0.162422
v -0.014024 -0.029454 -0.182248
v -0.042111 -0.001804 -0.192787
v -0.036363 -0.023853 -0.170076
v 0.001433 -0.007679 -0.181175
v 0.010240 -0.005874 -0.191394
v -0.040822 -0.006580 -0.164371
v 0.006911 -0.006652 -0.175456
v 0.006379 -0.006575 -0.162928
v -0.017416 -0.032074 -0.171206
v 0.022502 -0.003262 -0.169871
v 0.007695 -0.001698 -0.161473
vn -0.6859 0.1965 -0.7006
vn 0.7833 -0.2958 -0.5468
vn -0.8211 -0.3264 -0.4682
vn 0.6420 0.5908 0.4886
vn -0.0089 -0.9058 -0.4237
vn -0.0291 -0.9125 -0.4080
vn -0.9706 0.1474 -0.1904
vn -0.9697 0.1518 -0.1912
vn 0.4469 -0.1291 -0.8852
vn -0.2627 0.1147 -0.9580
vn 0.0924 -0.6731 -0.7337
vn 0.8539 -0.3403 -0.3936
vn 0.1480 -0.9362 -0.3189
vn -0.3665 -0.5047 -0.7816
vn 0.9233 -0.3828 -0.0311
vn -0.8347 -0.4527 -0.3137
vn 0.2590 -0.9467 -0.1912
vn 0.7613 0.5950 0.2573
vn -0.6557 -0.7115 -0.2524
vn 0.9693 0.2144 0.1200
vn 0.8896 -0.0621 0.4525
vn -0.8939 0.4199 0.1570
vn -0.7968 0.1227 -0.5916
vn -0.9519 0.3007 0.0575
vn -0.2459 0.9413 0.2311
vn 0.2808 0.7715 0.5708
vn 0.9356 -0.2543 -0.2448
vn -0.8874 0.3175 0.3341
vn -0.9895 0.1430 -0.0216
vn 0.2897 0.9025 0.3186
vn 0.3822 0.1866 0.9050
vn 0.4796 -0.1528 -0.8640
vn 0.5824 -0.1514 0.7987
vn -0.9198 0.2949 0.2588
vn -0.3681 0.4959 0.7864
vn -0.4381 0.8379 0.3255
vn 0.2311 -0.0504 -0.9716
vn -0.5791 0.1913 -0.7924
vn -0.2140 0.0821 0.9734
vn -0.3512 0.0871 -0.9322
vn 0.2528 0.7327 0.6318
vn 0.5547 0.6909 -0.4636
vn 0.0482 0.8061 0.5898
vn 0.0789 0.8079 -0.5840
vn 0.0069 -0.0338 0.9994
vn 0.7637 0.6402 0.0825
vn 0.1109 -0.3131 -0.9432
vn -0.0017 0.7905 -0.6124
vn 0.7121 0.3553 0.6055
vn -0.4010 0.2387 0.8844
vn 0.7497 0.2165 -0.6253
vn -0.3543 0.7353 0.5777
vn -0.1309 -0.2733 -0.9530
vn -0.5545 0.7161 -0.4238
vn -0.8502 0.4933 0.1841
vn -0.0070 -0.4023 -0.9155
vn -0.9751 0.1327 0.1774
vn -0.6632 0.2519 -0.7047
vn -0.9261 0.2645 -0.2690
vn -0.9431 0.2875 0.1667
vn -0.6160 0.1923 -0.7639
vn -0.7741 0.2229 0.5925
vn -0.4093 0.1134 -0.9053
vn -0.5007 0.1562 0.8513
vn 0.0879 -0.0184 -0.9959
vn -0.2506 0.0682 0.9657
vn 0.2081 -0.0666 -0.9758
vn 0.1180 -0.0270 0.9926
vn 0.8243 -0.2393 -0.5130
vn 0.2631 -0.0819 0.9613
vn 0.8507 -0.2548 -0.4598
vn 0.7906 -0.2297 0.5675
vn 0.8163 -0.2414 0.5247
vn -0.8128 -0.5754 -0.0909
vn -0.8180 -0.5320 -0.2185
vn -0.1921 -0.3477 -0.9177
vn -0.2976 -0.4344 -0.8501
vn -0.5224 -0.5048 0.6872
vn 0.5959 -0.5090 -0.6211
vn -0.3332 -0.4555 -0.8255
vn -0.3744 -0.4549 0.8080
vn 0.3574 -0.8249 -0.4378
vn 0.1263 -0.9861 -0.1078
vn 0.0313 -0.3540 0.9347
vn 0.3027 -0.9521 0.0426
vn 0.1599 -0.7820 0.6024
vn 0.4467 -0.3960 0.8022
vn 0.2681 -0.9503 0.1583
vn 0.2333 -0.3352 0.9128
usemtl material_0_24
s off
f 3//1 2//1 1//1
f 6//2 5//2 4//2
f 4//3 5//3 7//3
f 35//4 34//4 33//4
f 38//5 37//5 36//5
f 40//6 39//6 38//6
f 40//7 42//7 41//7
f 43//8 42//8 40//8
s 1
f 6//9 1//10 2//11
f 3//12 8//13 2//11
f 6//9 2//11 5//14
f 8//13 5//14 2//11
f 9//15 8//13 3//12
f 8//13 7//16 5//14
f 10//17 8//13 9//15
f 3//12 11//18 9//15
f 12//19 7//16 8//13
f 10//17 12//19 8//13
f 13//20 10//17 9//15
f 9//15 11//18 13//20
f 3//12 14//21 11//18
f 7//16 15//22 4//23
f 12//19 16//24 7//16
f 13//20 11//18 17//25
f 18//26 11//18 14//21
f 19//27 14//21 3//12
f 15//22 20//28 4//23
f 15//22 7//16 16//24
f 16//24 12//19 21//29
f 11//18 22//30 17//25
f 18//26 22//30 11//18
f 23//31 18//26 14//21
f 19//27 3//12 24//32
f 19//27 25//33 14//21
f 20//28 26//34 4//23
f 15//22 27//35 20//28
f 15//22 16//24 28//36
f 21//29 28//36 16//24
f 22//30 28//36 17//25
f 28//36 22//30 18//26
f 25//33 23//31 14//21
f 23//31 27//35 18//26
f 29//37 19//27 24//32
f 4//23 26//34 30//38
f 20//28 27//35 26//34
f 27//35 15//22 28//36
f 21//29 17//25 28//36
f 27//35 28//36 18//26
f 23//31 25//33 31//39
f 27//35 23//31 31//39
f 24//32 32//40 29//37
f 32//40 4//23 30//38
f 27//35 31//39 26//34
f 29//37 32//40 30//38
f 35//41 44//42 45//43
f 44//42 46//44 45//43
f 45//43 47//45 35//41
f 33//46 44//42 35//41
f 44//42 37//47 46//44
f 46//44 48//48 45//43
f 35//41 47//45 34//49
f 45//43 49//50 47//45
f 44//42 33//46 36//51
f 48//48 46//44 37//47
f 36//51 37//47 44//42
f 50//52 45//43 48//48
f 34//49 47//45 49//50
f 49//50 45//43 50//52
f 36//51 33//46 34//49
f 37//47 39//53 48//48
f 48//48 41//54 50//52
f 49//50 50//52 42//55
f 39//53 41//54 48//48
f 37//47 38//56 39//53
f 42//55 50//52 41//54
f 43//57 49//50 42//55
f 41//54 39//53 40//58
f 53//59 52//60 51//61
f 53//59 54//62 52//60
f 55//63 53//59 51//61
f 54//62 56//64 52//60
f 57//65 55//63 51//61
f 54//62 58//66 56//64
f 59//67 55//63 57//65
f 56//64 58//66 60//68
f 61//69 59//67 57//65
f 58//66 62//70 60//68
f 63//71 59//67 61//69
f 60//68 62//70 64//72
f 65//73 63//71 61//69
f 62//70 65//73 64//72
f 61//69 64//72 65//73
f 68//74 67//75 66//76
f 69//77 66//76 67//75
f 68//74 70//78 67//75
f 69//77 71//79 66//76
f 72//80 69//77 67//75
f 73//81 70//78 68//74
f 74//82 71//79 69//77
f 75//83 69//77 72//80
f 73//81 76//84 70//78
f 71//79 74//82 77//85
f 74//82 69//77 75//83
f 70//78 76//84 78//86
f 76//84 73//81 79//87
f 77//85 79//87 71//79
f 80//88 77//85 74//82
f 80//88 74//82 75//83
f 78//86 81//89 70//78
f 78//86 76//84 77//85
f 76//84 79//87 77//85
f 78//86 77//85 80//88
f 78//86 80//88 81//89
