# Blender v2.91.0 OBJ File: 'model.blend'
# www.blender.org
mtllib seat.mtl
o seat_mesh30_mesh30-geometry
v 0.137175 -0.165303 0.017894
v 0.136785 -0.164411 0.080934
v 0.135479 -0.158765 0.140104
v 0.066932 -0.137123 0.153604
v 0.120705 -0.146723 0.154638
v 0.044253 -0.147585 0.138868
v 0.073440 -0.129331 0.154049
v 0.102055 -0.156204 0.130037
v -0.068011 -0.137053 0.145254
v -0.074860 -0.131330 0.148415
v 0.117179 -0.159897 0.086646
v -0.070910 -0.127202 0.148339
v 0.115362 -0.159420 -0.103915
v -0.067113 -0.139916 0.126518
v -0.093013 -0.136176 0.129437
v -0.096296 -0.126142 0.131295
v 0.136305 -0.167238 -0.009857
v 0.102021 -0.156378 -0.130074
v -0.081603 -0.141125 0.100833
v -0.111716 -0.150055 0.057195
v 0.136785 -0.163273 -0.081462
v 0.133812 -0.156230 -0.144014
v -0.083892 -0.144128 -0.020063
v -0.111684 -0.139993 0.085355
v 0.048243 -0.149324 -0.136958
v -0.067165 -0.139601 -0.120312
v -0.115293 -0.154458 0.004037
v -0.119587 -0.146019 0.044454
v -0.118040 -0.137899 0.063033
v 0.069394 -0.139351 -0.151649
v -0.080549 -0.138793 -0.126274
v -0.096326 -0.146779 -0.063309
v -0.122441 -0.148284 0.000536
v 0.108747 -0.138007 -0.155894
v -0.071914 -0.136454 -0.145548
v -0.111703 -0.149852 -0.058618
v -0.119755 -0.145992 -0.043450
v -0.123224 -0.142301 -0.000006
v -0.091241 -0.136391 -0.131282
v -0.118854 -0.138616 -0.057568
v -0.075974 -0.127326 -0.148550
v -0.111225 -0.139993 -0.086869
v 0.066643 -0.129145 -0.153898
v -0.096561 -0.126198 -0.131658
v -0.086092 -0.106669 -0.126482
v -0.107210 -0.118013 -0.049802
v -0.123789 -0.125480 0.007587
v -0.024715 -0.134291 -0.151117
v 0.085717 -0.138446 -0.155050
v 0.120113 -0.153392 -0.156706
v -0.080580 -0.129837 -0.146202
v 0.078643 -0.115376 0.147648
v 0.119983 -0.131153 0.156086
v 0.080940 -0.124173 0.154980
v 0.119706 -0.120640 0.143394
v 0.083315 -0.138382 0.155427
v -0.071216 -0.110927 0.142782
v 0.078391 -0.112745 0.138877
v 0.135445 -0.139071 0.146908
v 0.121378 -0.149504 0.156307
v -0.069402 -0.121213 0.148905
v -0.024122 -0.110391 0.135207
v 0.126621 -0.129961 0.070548
v 0.139733 -0.132423 0.126943
v 0.121664 -0.155469 0.153379
v -0.070374 -0.133361 0.148707
v -0.078570 -0.106580 0.129499
v -0.084972 -0.116194 0.142778
v 0.061677 -0.116862 0.102182
v 0.093107 -0.121883 0.079723
v 0.140402 -0.160027 0.141929
v 0.146383 -0.149260 0.128968
v -0.092622 -0.109861 0.126307
v -0.038202 -0.120898 0.077119
v 0.140243 -0.140619 0.047134
v 0.125654 -0.131735 0.020559
v 0.146991 -0.155978 0.011466
v 0.145453 -0.171033 0.126448
v -0.098056 -0.130975 0.134582
v -0.106526 -0.115415 0.070058
v -0.097941 -0.119746 0.130057
v 0.060547 -0.121864 0.046685
v 0.134325 -0.136152 -0.037714
v 0.092534 -0.125245 0.016625
v 0.139755 -0.170971 0.125706
v -0.113256 -0.123110 0.085879
v -0.109845 -0.120380 0.012718
v -0.032833 -0.126063 0.014777
v 0.142954 -0.144376 -0.041564
v 0.124543 -0.130096 -0.058021
v 0.146018 -0.174832 -0.073648
v 0.140389 -0.176249 0.049916
v 0.061890 -0.123227 -0.018320
v 0.146573 -0.149822 -0.125037
v 0.143177 -0.138820 -0.124569
v 0.092914 -0.123420 -0.062107
v 0.132068 -0.126492 -0.135086
v 0.145536 -0.175340 0.046091
v -0.122318 -0.145575 0.050632
v -0.122876 -0.131139 0.044900
v -0.035713 -0.125067 -0.032189
v 0.117807 -0.120010 -0.143420
v 0.143507 -0.178070 -0.015581
v 0.145701 -0.168821 -0.126280
v -0.125764 -0.148166 -0.017523
v 0.060160 -0.118836 -0.085319
v 0.139719 -0.144131 -0.144126
v 0.093347 -0.115116 -0.139997
v 0.119224 -0.130557 -0.156590
v 0.141967 -0.170966 -0.130592
v 0.140588 -0.176628 -0.036004
v -0.121592 -0.128418 -0.051270
v -0.040789 -0.120412 -0.079182
v -0.110731 -0.119972 -0.092044
v 0.082239 -0.118409 -0.151582
v 0.139509 -0.159348 -0.143119
v -0.114967 -0.139686 -0.083699
v -0.031330 -0.110190 -0.134751
v -0.094193 -0.116087 -0.135565
v 0.056647 -0.111813 -0.137706
v -0.073032 -0.118279 -0.148308
v 0.139709 -0.170816 -0.125615
v -0.069788 -0.110241 -0.140977
v -0.097201 -0.131331 -0.132599
vn 0.9814 0.1918 0.0034
vn 0.7620 0.5765 0.2951
vn 0.0344 -0.0315 0.9989
vn -0.0070 -0.7793 0.6266
vn -0.1154 -0.9582 0.2618
vn -0.1541 -0.8007 0.5790
vn -0.0668 -0.4104 0.9095
vn -0.0550 -0.8279 0.5581
vn -0.0294 -0.0317 0.9991
vn -0.1195 -0.9859 0.1170
vn -0.1406 -0.8253 0.5468
vn -0.4098 -0.1813 0.8939
vn -0.2134 -0.9764 0.0326
vn -0.1793 0.1894 0.9654
vn 0.6943 -0.7178 0.0527
vn -0.1442 -0.9882 -0.0523
vn -0.1164 -0.9847 0.1297
vn -0.5588 -0.6925 0.4563
vn -0.7695 -0.2867 0.5707
vn 0.4410 -0.8975 -0.0074
vn -0.0915 -0.9819 -0.1656
vn 0.1647 -0.9861 0.0198
vn -0.3048 -0.9378 0.1662
vn 0.8383 -0.5450 0.0123
vn -0.0957 -0.9931 -0.0678
vn -0.0707 -0.9372 -0.3415
vn 0.2722 -0.9622 -0.0085
vn -0.8566 -0.4000 0.3258
vn -0.0811 -0.9031 -0.4217
vn -0.0125 -0.9988 -0.0472
vn -0.2215 -0.9749 0.0235
vn -0.8760 -0.4690 0.1123
vn -0.9361 -0.2752 0.2188
vn -0.0695 -0.7504 -0.6573
vn -0.0929 -0.9857 -0.1401
vn 0.2361 -0.9688 -0.0753
vn -0.8773 -0.4798 -0.0053
vn -0.0634 -0.5751 -0.8156
vn -0.2142 -0.7349 -0.6434
vn -0.3207 -0.9307 -0.1755
vn -0.8824 -0.4581 -0.1074
vn -0.9921 -0.1248 -0.0101
vn -0.5065 -0.7320 -0.4556
vn -0.9450 -0.2514 -0.2090
vn -0.3630 -0.4051 -0.8391
vn -0.8676 -0.3789 -0.3220
vn -0.0368 0.0500 -0.9980
vn -0.7484 -0.3779 -0.5450
vn 0.0127 0.3696 0.9291
vn 0.3232 0.3988 0.8582
vn 0.0661 0.8381 0.5415
vn 0.3850 0.8756 0.2917
vn -0.0350 0.0032 0.9994
vn -0.1050 0.7754 0.6226
vn 0.0956 0.9922 0.0794
vn 0.7316 0.3020 0.6112
vn 0.2157 -0.2072 0.9542
vn -0.1598 0.2329 0.9593
vn 0.0331 0.9991 0.0236
vn 0.3816 0.9219 -0.0667
vn 0.7544 0.6489 0.0987
vn 0.2076 -0.4822 0.8511
vn -0.2340 -0.0236 0.9720
vn -0.1058 0.9848 0.1378
vn -0.4671 0.4284 0.7734
vn 0.0349 0.9920 -0.1213
vn 0.1484 0.9853 -0.0849
vn 0.6410 -0.3874 0.6626
vn 0.9654 0.1570 0.2080
vn -0.5238 0.8146 0.2491
vn 0.0449 0.9899 -0.1341
vn 0.7597 0.6496 -0.0279
vn 0.2247 0.9740 -0.0273
vn 0.9875 0.1576 0.0052
vn 0.6428 -0.7100 0.2875
vn -0.7907 0.1084 0.6025
vn -0.3351 0.9418 -0.0265
vn -0.8221 0.3643 0.4374
vn 0.0231 0.9980 -0.0579
vn 0.5989 0.8006 0.0175
vn 0.1320 0.9911 -0.0165
vn -0.0471 -0.9583 0.2820
vn -0.9003 0.3834 0.2059
vn -0.1359 0.9903 -0.0281
vn 0.0235 0.9993 -0.0297
vn 0.8307 0.5564 0.0206
vn 0.3103 0.9484 0.0642
vn 0.6571 -0.7523 -0.0474
vn 0.1927 -0.9801 0.0478
vn -0.8121 0.5835 0.0080
vn 0.0161 0.9996 0.0232
vn 0.9813 0.1231 -0.1482
vn 0.8686 0.4885 -0.0819
vn 0.1375 0.9882 0.0670
vn 0.6292 0.7549 -0.1850
vn 0.7575 -0.6522 0.0284
vn -0.9870 0.0069 0.1602
vn -0.9629 0.2452 0.1122
vn 0.4503 0.8675 0.2111
vn 0.0289 0.9980 0.0559
vn 0.3456 0.8939 -0.2853
vn 0.2198 -0.9755 0.0004
vn 0.8806 -0.4277 -0.2041
vn -0.9959 0.0803 -0.0419
vn 0.0327 0.9943 0.1012
vn 0.7921 0.2093 -0.5733
vn 0.1349 0.9829 -0.1253
vn 0.3339 0.4008 -0.8531
vn 0.2488 -0.8801 -0.4042
vn -0.0893 -0.9943 -0.0576
vn -0.9414 0.3137 -0.1235
vn 0.0514 0.9886 0.1411
vn -0.2640 0.9520 -0.1546
vn -0.8276 0.5284 -0.1895
vn 0.0401 0.7073 -0.7058
vn 0.6619 -0.3436 -0.6661
vn -0.9642 0.0655 -0.2568
vn 0.0344 0.9988 0.0342
vn -0.6847 0.4476 -0.5751
vn 0.0399 0.9916 -0.1229
vn 0.3179 -0.1121 -0.9415
vn -0.2199 0.3491 -0.9109
vn -0.2796 -0.9551 -0.0981
vn -0.0923 0.8569 -0.5072
vn -0.8481 0.0569 -0.5267
vn -0.0617 -0.8880 -0.4557
vn -0.4144 0.0216 -0.9098
usemtl material_0_24
s off
f 3//1 2//1 1//1
f 47//2 46//2 45//2
f 50//3 49//3 48//3
f 49//4 51//4 48//4
s 1
f 3//5 5//6 4//7
f 4//7 6//8 3//5
f 7//9 4//7 5//6
f 6//8 8//10 3//5
f 9//11 6//8 4//7
f 7//9 10//12 4//7
f 8//10 11//13 3//5
f 8//10 6//8 9//11
f 10//12 9//11 4//7
f 10//12 7//9 12//14
f 3//5 11//13 2//15
f 11//13 8//10 13//16
f 8//10 9//11 14//17
f 9//11 10//12 15//18
f 16//19 10//12 12//14
f 2//15 11//13 17//20
f 17//20 11//13 13//16
f 8//10 18//21 13//16
f 9//11 19//22 14//17
f 15//18 20//23 9//11
f 15//18 10//12 16//19
f 1//24 2//15 17//20
f 21//25 17//20 13//16
f 22//26 13//16 18//21
f 19//22 23//27 14//17
f 20//23 19//22 9//11
f 15//18 24//28 20//23
f 24//28 15//18 16//19
f 21//25 1//24 17//20
f 21//25 13//16 22//26
f 22//26 18//21 25//29
f 14//17 23//27 26//30
f 19//22 27//31 23//27
f 20//23 27//31 19//22
f 28//32 20//23 24//28
f 24//28 16//19 29//33
f 25//29 30//34 22//26
f 18//21 31//35 25//29
f 23//27 31//35 26//30
f 27//31 32//36 23//27
f 20//23 33//37 27//31
f 28//32 24//28 29//33
f 28//32 33//37 20//23
f 34//38 22//26 30//34
f 25//29 35//39 30//34
f 25//29 31//35 35//39
f 31//35 23//27 32//36
f 27//31 36//40 32//36
f 33//37 37//41 27//31
f 28//32 29//33 38//42
f 33//37 28//32 38//42
f 30//34 35//39 34//38
f 35//39 31//35 39//43
f 32//36 39//43 31//35
f 39//43 32//36 36//40
f 27//31 37//41 36//40
f 37//41 33//37 40//44
f 33//37 38//42 40//44
f 41//45 34//38 35//39
f 35//39 39//43 41//45
f 36//40 42//46 39//43
f 36//40 37//41 42//46
f 42//46 37//41 40//44
f 41//45 43//47 34//38
f 41//45 39//43 44//48
f 39//43 42//46 44//48
f 42//46 40//44 44//48
f 54//49 53//50 52//51
f 55//52 52//51 53//50
f 54//49 56//53 53//50
f 54//49 52//51 57//54
f 58//55 52//51 55//52
f 59//56 55//52 53//50
f 53//50 56//53 60//57
f 61//58 56//53 54//49
f 62//59 57//54 52//51
f 57//54 61//58 54//49
f 58//55 62//59 52//51
f 63//60 58//55 55//52
f 53//50 60//57 59//56
f 55//52 59//56 64//61
f 56//53 65//62 60//57
f 61//58 66//63 56//53
f 62//59 67//64 57//54
f 68//65 61//58 57//54
f 58//55 69//66 62//59
f 63//60 55//52 64//61
f 70//67 58//55 63//60
f 60//57 71//68 59//56
f 59//56 72//69 64//61
f 65//62 71//68 60//57
f 66//63 61//58 68//65
f 57//54 67//64 73//70
f 74//71 67//64 62//59
f 73//70 68//65 57//54
f 74//71 62//59 69//66
f 70//67 69//66 58//55
f 75//72 63//60 64//61
f 63//60 76//73 70//67
f 72//69 59//56 71//68
f 64//61 72//69 77//74
f 71//68 65//62 78//75
f 68//65 79//76 66//63
f 67//64 80//77 73//70
f 74//71 80//77 67//64
f 73//70 81//78 68//65
f 69//66 82//79 74//71
f 70//67 82//79 69//66
f 77//74 75//72 64//61
f 75//72 83//80 63//60
f 76//73 84//81 70//67
f 76//73 63//60 83//80
f 72//69 71//68 78//75
f 77//74 72//69 78//75
f 78//75 65//62 85//82
f 81//78 79//76 68//65
f 73//70 80//77 86//83
f 87//84 80//77 74//71
f 81//78 73//70 86//83
f 88//85 74//71 82//79
f 70//67 84//81 82//79
f 89//86 75//72 77//74
f 89//86 83//80 75//72
f 90//87 84//81 76//73
f 83//80 90//87 76//73
f 91//88 77//74 78//75
f 78//75 85//82 92//89
f 79//76 81//78 86//83
f 47//90 86//83 80//77
f 87//84 47//90 80//77
f 88//85 87//84 74//71
f 88//85 82//79 93//91
f 93//91 82//79 84//81
f 94//92 89//86 77//74
f 95//93 83//80 89//86
f 96//94 84//81 90//87
f 97//95 90//87 83//80
f 78//75 98//96 91//88
f 77//74 91//88 94//92
f 98//96 78//75 92//89
f 99//97 79//76 86//83
f 47//90 100//98 86//83
f 47//90 87//84 46//99
f 101//100 87//84 88//85
f 93//91 101//100 88//85
f 93//91 84//81 96//94
f 94//92 95//93 89//86
f 83//80 95//93 97//95
f 90//87 102//101 96//94
f 102//101 90//87 97//95
f 91//88 98//96 103//102
f 104//103 94//92 91//88
f 92//89 103//102 98//96
f 100//98 99//97 86//83
f 100//98 47//90 105//104
f 46//99 87//84 101//100
f 106//105 101//100 93//91
f 96//94 106//105 93//91
f 107//106 95//93 94//92
f 97//95 95//93 107//106
f 102//101 108//107 96//94
f 97//95 109//108 102//101
f 91//88 103//102 110//109
f 91//88 110//109 104//103
f 94//92 104//103 107//106
f 92//89 111//110 103//102
f 99//97 100//98 105//104
f 112//111 105//104 47//90
f 113//112 46//99 101//100
f 45//113 46//99 113//112
f 114//114 47//90 45//113
f 106//105 113//112 101//100
f 106//105 96//94 108//107
f 97//95 107//106 109//108
f 115//115 108//107 102//101
f 115//115 102//101 109//108
f 103//102 111//110 110//109
f 116//116 104//103 110//109
f 104//103 116//116 107//106
f 112//111 47//90 114//114
f 105//104 112//111 117//117
f 45//113 113//112 118//118
f 45//113 119//119 114//114
f 106//105 120//120 113//112
f 108//107 120//120 106//105
f 109//108 107//106 50//121
f 115//115 120//120 108//107
f 115//115 109//108 121//122
f 110//109 111//110 122//123
f 50//121 116//116 110//109
f 107//106 116//116 50//121
f 117//117 112//111 114//114
f 118//118 113//112 120//120
f 118//118 123//124 45//113
f 124//125 114//114 119//119
f 119//119 45//113 123//124
f 50//121 48//126 109//108
f 115//115 123//124 120//120
f 121//122 109//108 48//126
f 115//115 121//122 123//124
f 122//123 50//121 110//109
f 117//117 114//114 124//125
f 120//120 123//124 118//118
f 51//127 124//125 119//119
f 121//122 119//119 123//124
f 121//122 48//126 51//127
f 119//119 121//122 51//127
