# Blender v2.91.0 OBJ File: 'model.blend'
# www.blender.org
mtllib base.mtl
o base_mesh7_mesh7-geometry
v -0.297599 -0.225454 -0.234472
v 0.297599 -0.058967 -0.234472
v 0.297599 -0.225454 -0.234472
v -0.297599 -0.058967 -0.234472
v 0.297599 -0.058967 0.234472
v -0.297599 -0.225454 0.234472
v 0.297599 -0.225454 0.234472
v -0.297599 -0.058967 0.234472
vn 0.0000 -0.0000 1.0000
vn 1.0000 -0.0000 0.0000
vn 0.0000 1.0000 0.0000
vn -1.0000 -0.0000 0.0000
vn 0.0000 -1.0000 -0.0000
vn 0.0000 0.0000 -1.0000
usemtl material_0_24
s off
f 3//1 2//1 1//1
f 4//1 1//1 2//1
f 5//2 3//2 2//2
f 1//3 6//3 3//3
f 6//4 4//4 1//4
f 2//5 5//5 4//5
f 3//2 5//2 7//2
f 7//3 3//3 6//3
f 4//4 6//4 8//4
f 8//5 4//5 5//5
f 7//6 6//6 5//6
f 8//6 5//6 6//6
