# Blender v2.91.0 OBJ File: 'model.blend'
# www.blender.org
mtllib left_arm.mtl
o left_arm_mesh11_mesh11-geometry
v -0.297599 0.153309 0.234472
v 0.297599 0.153309 0.279563
v 0.297599 0.153309 0.234472
v -0.297599 0.153309 0.279563
v 0.297599 0.129636 0.234472
v -0.297599 0.129636 0.279563
v 0.297599 0.129636 0.279563
v -0.297599 0.129636 0.234472
v 0.279719 0.129636 0.234472
v 0.297599 -0.225454 0.236990
v 0.279719 -0.225454 0.234472
v 0.297599 0.129636 0.236990
v -0.297599 -0.225454 0.279563
v -0.297599 0.129636 0.234472
v 0.297599 0.129636 0.279563
v 0.297599 -0.225454 0.279563
v -0.297599 -0.225454 0.234472
v -0.297599 0.129636 0.279563
vn 0.0000 -1.0000 0.0000
vn 1.0000 0.0000 0.0000
vn 0.0000 0.0000 -1.0000
vn -1.0000 0.0000 0.0000
vn 0.0000 1.0000 0.0000
vn -0.1395 -0.0000 0.9902
usemtl material_0_24
s off
f 3//1 2//1 1//1
f 4//1 1//1 2//1
f 2//2 5//2 3//2
f 5//3 1//3 3//3
f 1//4 6//4 4//4
f 4//3 2//3 6//3
f 7//4 2//4 5//4
f 1//3 5//3 8//3
f 6//4 1//4 8//4
f 7//3 6//3 2//3
f 7//5 5//5 6//5
f 8//5 6//5 5//5
f 11//6 10//6 9//6
f 12//6 9//6 10//6
f 10//1 13//1 11//1
f 11//3 14//3 9//3
f 9//5 15//5 12//5
f 12//4 10//4 15//4
f 16//5 10//5 13//5
f 11//1 13//1 17//1
f 14//3 11//3 17//3
f 14//1 9//1 18//1
f 15//5 9//5 18//5
f 10//2 15//2 16//2
f 16//3 13//3 15//3
f 13//4 14//4 17//4
f 14//4 13//4 18//4
f 18//3 15//3 13//3
