# Blender v2.91.0 OBJ File: 'model.blend'
# www.blender.org
mtllib back.mtl
o back_mesh1_mesh1-geometry
v -0.201296 -0.145566 0.201632
v -0.201296 -0.228611 0.194697
v -0.201296 -0.228611 -0.007190
v -0.229459 -0.145566 0.201632
v -0.229459 -0.228611 0.194697
v -0.201296 -0.144537 -0.202057
v -0.201296 -0.061492 0.208651
v -0.229459 -0.228611 -0.007190
v -0.201296 -0.228611 -0.209077
v -0.201296 -0.061492 0.006764
v -0.229459 -0.061492 0.208651
v -0.229459 -0.144537 -0.202057
v -0.201296 -0.061492 -0.195124
v -0.229459 -0.061492 0.006764
v -0.229459 -0.228611 -0.209077
v -0.229459 -0.061492 -0.195124
vt 0.000000 0.000000
vt 0.000000 0.000000
vt 0.000000 0.000000
vt 0.000000 0.000000
vt 0.000000 0.000000
vt 0.000000 0.000000
vt 0.000000 0.000000
vt 0.000000 0.000000
vt 0.000000 0.000000
vt 0.000000 0.000000
vt 0.000000 0.000000
vt 0.000000 0.000000
vt 0.000000 0.000000
vt 0.000000 0.000000
vt 0.000000 0.000000
vt 0.000000 0.000000
vn 1.0000 0.0000 0.0000
vn 0.0000 -1.0000 0.0000
vn -1.0000 0.0000 0.0000
vn 0.0000 0.0832 -0.9965
vn 0.0000 1.0000 0.0000
vn 0.0000 -0.0832 0.9965
usemtl material_0_24
s off
f 1/1/1 2/2/1 3/3/1
f 5/4/2 3/3/2 2/2/2
f 1/1/1 3/3/1 6/5/1
f 8/6/2 3/3/2 5/4/2
f 3/3/1 9/7/1 6/5/1
f 4/8/3 8/6/3 5/4/3
f 7/9/1 1/1/1 10/10/1
f 8/6/2 9/7/2 3/3/2
f 6/5/4 9/7/4 12/11/4
f 11/12/3 14/13/3 4/8/3
f 14/13/5 7/9/5 10/10/5
f 15/14/2 9/7/2 8/6/2
f 13/15/4 6/5/4 12/11/4
f 8/6/3 12/11/3 15/14/3
f 14/13/5 10/10/5 16/16/5
f 13/15/4 12/11/4 16/16/4
f 14/13/3 16/16/3 12/11/3
usemtl material_1_24
f 1/1/4 2/2/4 4/8/4
f 2/2/4 5/4/4 4/8/4
f 1/1/4 4/8/4 7/9/4
f 10/10/3 6/5/3 1/1/3
f 7/9/4 4/8/4 11/12/4
f 13/15/3 6/5/3 10/10/3
f 8/6/1 12/11/1 4/8/1
f 14/13/2 7/9/2 11/12/2
f 15/14/6 9/7/6 12/11/6
f 13/15/2 10/10/2 16/16/2
f 12/11/1 14/13/1 4/8/1
