# Blender v2.91.0 OBJ File: 'model.blend'
# www.blender.org
o drawer_mesh1_mesh1-geometry.002
v 0.220355 0.122043 0.230526
v 0.220355 0.271207 0.230526
v 0.220355 0.271207 -0.230526
v 0.267817 0.210185 0.040681
v 0.267817 0.210185 -0.040681
v 0.267817 0.183064 0.040681
v 0.220355 0.122043 -0.230526
v 0.267817 0.183064 -0.040681
v 0.220355 0.122043 0.237306
v 0.220355 0.122043 0.250867
v 0.220355 0.122043 0.230526
v 0.240696 0.271207 -0.230526
v 0.240696 0.122043 -0.230526
v 0.240696 0.183064 -0.054241
v 0.240696 0.122043 0.230526
v 0.240696 0.271207 0.230526
v 0.240696 0.183064 0.054242
v 0.220355 0.271207 0.250867
v 0.240696 0.210185 -0.054241
v 0.240696 0.210185 0.054242
v -0.240696 0.271207 0.250867
v -0.240696 0.122043 -0.230526
v -0.261036 0.122043 -0.230526
v -0.240696 0.122043 0.230526
v -0.240696 0.271207 -0.250866
v 0.240696 0.210185 -0.040681
v 0.267817 0.210185 -0.054241
v 0.240696 0.210185 0.040681
v 0.240696 0.183064 -0.040681
v -0.261036 0.122043 0.230526
v -0.240696 0.122043 0.250867
v -0.240696 0.122043 0.237306
v -0.261036 0.271207 -0.230526
v -0.261036 0.271207 0.230526
v 0.220355 0.271207 -0.250866
v 0.267817 0.183064 -0.054241
v 0.267817 0.210185 0.040681
v 0.240696 0.183064 0.040681
v 0.267817 0.210185 -0.040681
v 0.281377 0.210185 -0.054241
v 0.267817 0.210185 0.054242
v 0.281377 0.210185 -0.047461
v 0.281377 0.183064 -0.054241
v 0.281377 0.210185 0.040681
v 0.267817 0.183064 0.040681
v 0.281377 0.210185 -0.040681
v 0.281377 0.183064 -0.040681
v 0.281377 0.210185 0.054242
v 0.281377 0.183064 0.040681
v 0.281377 0.183064 0.054242
v 0.220355 0.122043 -0.230526
v -0.240696 0.122043 -0.250866
v 0.220355 0.122043 -0.250866
v 0.267817 0.183064 0.054242
v 0.267817 0.183064 -0.040681
vt 0.000000 0.000000
vt 0.000000 0.000000
vt 0.000000 0.000000
vt 0.000000 0.000000
vt 0.000000 0.000000
vt 0.000000 0.000000
vt 0.000000 0.000000
vt 0.000000 0.000000
vt 0.000000 0.000000
vt 0.000000 0.000000
vt 0.000000 0.000000
vt 0.000000 0.000000
vt 0.000000 0.000000
vt 0.000000 0.000000
vt 0.000000 0.000000
vt 0.000000 0.000000
vt 0.000000 0.000000
vt 0.000000 0.000000
vt 0.000000 0.000000
vt 0.000000 0.000000
vt 0.000000 0.000000
vt 0.000000 0.000000
vt 0.000000 0.000000
vt 0.000000 0.000000
vt 0.000000 0.000000
vt 0.000000 0.000000
vt 0.000000 0.000000
vt 0.000000 0.000000
vt 0.000000 0.000000
vt 0.000000 0.000000
vt 0.000000 0.000000
vt 0.000000 0.000000
vt 0.000000 0.000000
vt 0.000000 0.000000
vt 0.000000 0.000000
vt 0.000000 0.000000
vt 0.000000 0.000000
vt 0.000000 0.000000
vt 0.000000 0.000000
vt 0.000000 0.000000
vt 0.000000 0.000000
vt 0.000000 0.000000
vt 0.000000 0.000000
vt 0.000000 0.000000
vt 0.000000 0.000000
vt -0.870833 0.447917
vt -0.870833 0.333333
vt -1.012500 0.447917
vt -1.451389 0.298611
vt -1.687500 0.222222
vt -1.451389 0.222222
vt 0.000000 0.000000
vt 0.000000 0.000000
vt 0.000000 0.000000
vt 0.000000 0.000000
vt 0.000000 0.000000
vt 0.000000 0.000000
vt 0.000000 0.000000
vt 0.000000 0.000000
vn -1.0000 0.0000 0.0000
vn 0.0000 -0.0000 1.0000
vn 0.0000 1.0000 0.0000
vn 0.0000 -1.0000 -0.0000
vn 1.0000 -0.0000 0.0000
vn 0.0000 0.0000 -1.0000
s off
f 16/1/1 17/2/1 15/3/1
f 15/3/1 14/4/1 13/5/1
f 12/6/1 20/7/1 16/1/1
f 26/8/1 12/6/1 19/9/1
f 19/9/2 14/4/2 27/10/2
f 20/7/1 12/6/1 28/11/1
f 30/12/3 24/13/3 23/14/3
f 28/11/4 37/15/4 20/7/4
f 27/10/2 36/16/2 40/17/2
f 41/18/4 20/7/4 37/15/4
f 28/11/2 38/19/2 37/15/2
f 29/20/1 38/19/1 26/8/1
f 27/10/4 42/21/4 39/22/4
f 43/23/2 40/17/2 36/16/2
f 40/17/4 42/21/4 27/10/4
f 37/15/4 44/24/4 41/18/4
f 48/25/4 41/18/4 44/24/4
f 44/24/4 37/15/4 46/26/4
f 47/27/1 49/28/1 46/26/1
f 39/22/4 46/26/4 37/15/4
f 44/24/1 46/26/1 49/28/1
f 3/29/5 2/30/5 7/31/5
f 14/4/5 13/5/5 12/6/5
f 15/3/4 51/32/4 13/5/4
f 51/32/4 15/3/4 11/33/4
f 10/34/4 32/35/4 9/36/4
f 9/36/4 24/13/4 11/33/4
f 53/37/3 52/38/3 51/32/3
f 14/4/5 12/6/5 19/9/5
f 51/32/3 22/39/3 11/33/3
f 17/2/5 15/3/5 14/4/5
f 16/1/5 17/2/5 20/7/5
f 31/40/3 10/34/3 32/35/3
f 9/36/4 32/35/4 24/13/4
f 22/39/3 24/13/3 11/33/3
f 24/13/4 23/14/4 22/39/4
f 35/41/6 52/38/6 25/42/6
f 52/38/4 51/32/4 22/39/4
f 52/38/6 35/41/6 53/37/6
f 10/34/2 21/43/2 31/40/2
f 23/14/1 34/44/1 33/45/1
f 26/8/5 12/6/5 28/11/5
f 34/44/1 23/14/1 30/12/1
f 38/19/5 26/8/5 28/11/5
f 18/46/6 10/47/6 21/48/6
f 2/49/1 7/50/1 1/51/1
f 5/52/5 4/53/5 8/54/5
f 6/55/5 8/54/5 4/53/5
f 17/2/6 20/7/6 54/56/6
f 26/8/3 27/10/3 19/9/3
f 14/4/6 27/10/6 36/16/6
f 14/4/4 55/57/4 29/20/4
f 41/18/6 54/56/6 20/7/6
f 38/19/4 54/56/4 17/2/4
f 27/10/3 26/8/3 39/22/3
f 47/27/3 14/4/3 55/57/3
f 29/20/6 26/8/6 55/57/6
f 50/58/2 41/18/2 54/56/2
f 54/56/4 38/19/4 50/58/4
f 26/8/2 55/57/2 39/22/2
f 43/23/3 14/4/3 47/27/3
f 38/19/6 37/15/6 45/59/6
f 49/28/4 55/57/4 47/27/4
f 48/25/6 50/58/6 41/18/6
f 50/58/4 38/19/4 49/28/4
f 42/21/3 39/22/3 46/26/3
f 40/17/5 47/27/5 43/23/5
f 49/28/4 45/59/4 55/57/4
f 50/58/5 44/24/5 48/25/5
f 44/24/5 50/58/5 49/28/5
f 47/27/5 40/17/5 46/26/5
