# Blender v2.91.0 OBJ File: 'model.blend'
# www.blender.org
mtllib bl_foot.mtl
o bl_foot_mesh1_mesh1-geometry.001
v 0.196529 -0.227515 0.379191
v 0.233348 -0.227515 0.340092
v 0.233348 -0.227515 0.379191
v 0.196529 -0.227515 0.340092
v 0.196529 0.161508 0.379191
v 0.196529 0.161508 0.340092
v 0.233348 0.161508 0.340092
v 0.233348 0.207186 0.379191
vt 0.000000 0.000000
vt 0.000000 0.000000
vt 0.000000 0.000000
vt 0.000000 0.000000
vt 0.000000 0.000000
vt 0.000000 0.000000
vt 0.000000 0.000000
vt 0.053083 0.852638
vt 0.001705 0.002839
vt 0.053083 0.002839
vt -0.048383 0.003975
vt 0.000000 0.003975
vt -0.048383 0.853774
vt 0.001705 0.952418
vt 0.048550 0.000000
vt 0.000000 1.000000
vt 0.048550 1.000000
vn 0.0000 1.0000 0.0000
vn 1.0000 -0.0000 0.0000
vn -0.0000 0.0000 -1.0000
vn 0.0000 -0.0000 1.0000
usemtl material_1_24
s off
f 3/1/1 2/2/1 1/3/1
f 4/4/1 1/3/1 2/2/1
f 1/3/2 4/4/2 5/5/2
f 3/1/3 5/5/3 8/6/3
f 6/7/2 5/5/2 4/4/2
usemtl material_4_4_8
f 7/8/2 3/9/2 2/10/2
f 1/11/4 3/12/4 5/13/4
f 3/9/2 7/8/2 8/14/2
usemtl material_3_3_8
f 4/15/3 7/16/3 2/2/3
f 7/16/3 4/15/3 6/17/3
