# Blender v2.91.0 OBJ File: 'model.blend'
# www.blender.org
o br_foot_mesh1_mesh1-geometry.002
v 0.233348 0.161508 -0.336823
v 0.233348 0.207186 -0.379191
v 0.199077 0.161508 -0.336823
v 0.233348 -0.227515 -0.336823
v 0.199077 -0.227515 -0.379191
v 0.233348 -0.227515 -0.379191
v 0.199077 -0.227515 -0.336823
v 0.199077 0.161508 -0.379191
vt 0.000000 0.000000
vt 0.000000 0.000000
vt 0.000000 0.000000
vt 0.000000 0.000000
vt 0.000000 0.000000
vt 0.000000 0.000000
vt 0.942589 0.002839
vt 0.998262 0.952418
vt 0.942589 0.852638
vt 0.998262 0.002839
vt -0.000000 0.949578
vt 0.045035 0.000000
vt 0.045035 0.849799
vt -0.822911 0.992762
vt -0.000000 0.992762
vt -17.192324 0.992762
vt -18.209620 0.000000
vt -17.192324 0.000000
vt -18.209620 0.992762
vn 0.0000 1.0000 0.0000
vn 0.0000 -0.0000 1.0000
vn 0.0000 0.0000 -1.0000
vn 1.0000 0.0000 0.0000
vn -1.0000 0.0000 0.0000
s off
f 6/1/1 5/2/1 4/3/1
f 6/1/2 2/4/2 5/2/2
f 7/5/3 3/6/3 4/3/3
f 7/5/1 4/3/1 5/2/1
f 4/7/4 2/8/4 1/9/4
f 2/8/4 4/7/4 6/10/4
f 2/11/3 5/12/3 8/13/3
f 3/14/2 4/3/2 1/15/2
f 3/16/5 5/17/5 7/18/5
f 5/17/5 3/16/5 8/19/5
