# Blender v2.91.0 OBJ File: 'model.blend'
# www.blender.org
o tl_foot_mesh1_mesh1-geometry.004
v -0.192494 0.161508 0.340092
v -0.192494 0.161508 0.379191
v -0.233348 0.161508 0.340092
v -0.192494 -0.227515 0.379191
v -0.233348 -0.227515 0.340092
v -0.192494 -0.227515 0.340092
v -0.233348 -0.227515 0.379191
v -0.233348 0.161508 0.379191
vt -0.050181 0.956973
vt -0.000000 0.873201
vt 0.000000 0.956973
vt 0.000000 0.000000
vt 0.000000 0.000000
vt 0.000000 0.000000
vt 0.000000 0.000000
vt 0.000000 0.000000
vt 0.000000 0.000000
vt 0.000000 0.000000
vt -0.054791 0.003499
vt -0.003414 0.853298
vt -0.054791 0.853298
vt 0.970513 0.996079
vt 0.031713 0.003317
vt 0.970513 0.003317
vt 10.224973 0.992762
vt 11.205921 0.000000
vt 11.205921 0.992762
vt 10.224973 0.000000
vn 0.0000 -1.0000 0.0000
vn -1.0000 0.0000 0.0000
vn 0.0000 0.0000 -1.0000
vn 0.0000 1.0000 0.0000
vn 1.0000 0.0000 0.0000
s off
f 5/1/1 4/2/1 7/3/1
f 2/4/2 1/5/2 4/6/2
f 2/4/3 4/6/3 8/7/3
f 7/8/3 8/7/3 4/6/3
f 6/9/4 5/10/4 4/6/4
f 7/8/5 5/10/5 8/7/5
f 5/11/2 8/12/2 3/13/2
f 1/14/5 4/15/5 6/16/5
f 1/17/3 5/18/3 3/19/3
f 5/18/3 1/17/3 6/20/3
