# Blender v2.91.0 OBJ File: 'model.blend'
# www.blender.org
o base_mesh1_mesh1-geometry
v 0.209529 -0.081484 0.395778
v 0.209529 0.151327 0.419058
v 0.209529 -0.081484 0.419058
v 0.209529 0.151327 0.395778
v 0.186248 -0.081484 0.419058
v 0.209529 -0.104765 0.395778
v 0.186248 0.034565 0.395771
v 0.186248 0.151327 0.395771
v 0.186248 0.151327 0.419058
v 0.186248 -0.104765 0.419058
v 0.209529 -0.104765 0.419058
v 0.186248 -0.081484 0.395771
v 0.186248 0.092946 0.395771
v 0.209529 0.151327 -0.395777
v -0.186248 -0.104765 0.419058
v -0.177517 -0.081484 0.395672
v 0.186248 -0.104765 0.395771
v -0.186248 0.058024 0.395663
v 0.186248 0.174608 0.395663
v 0.186248 0.174608 0.419058
v -0.177517 0.151327 0.395669
v 0.186248 0.092946 0.186242
v -0.186248 0.116226 0.395663
v 0.186248 0.151327 0.186242
v -0.186248 -0.081484 0.419058
v -0.177517 -0.104765 0.395672
v 0.186248 0.057935 0.320108
v 0.209529 0.174608 -0.395777
v 0.186248 0.174608 -0.395777
v -0.186248 0.151327 0.419058
v -0.186248 0.151327 0.395663
v 0.186248 0.069576 0.320108
v 0.186248 0.151327 -0.186248
v -0.209529 -0.104765 0.419058
v -0.186248 -0.104765 0.395669
v -0.177517 -0.104774 0.186143
v -0.186248 -0.081484 0.395669
v 0.186248 0.011373 0.314288
v -0.186248 0.116226 -0.395777
v -0.209529 0.151327 0.395663
v 0.209529 0.151327 -0.419058
v -0.186248 0.174608 0.395663
v -0.186248 0.174608 0.419058
v -0.186248 0.151327 -0.395777
v 0.186248 0.151327 -0.395777
v 0.186248 0.122136 0.186242
v -0.209529 -0.081484 0.419058
v -0.177517 -0.104882 -0.395777
v 0.186248 0.034565 0.186242
v -0.209529 -0.081484 0.395663
v -0.186248 -0.082848 -0.395777
v 0.186248 0.005463 0.314288
v 0.186248 0.063755 0.320108
v 0.186248 0.069576 0.267726
v 0.186248 0.005553 0.314288
v -0.186248 0.058024 -0.395777
v 0.209529 -0.082938 -0.419058
v 0.186248 0.174608 -0.419058
v -0.186248 0.174608 -0.419058
v -0.186248 0.174608 -0.395777
v -0.209529 0.151327 0.419058
v -0.186248 0.168788 0.395663
v 0.186248 0.122136 -0.186248
v 0.186248 0.092946 -0.395777
v -0.209529 -0.104765 0.395663
v -0.186248 -0.104765 0.186143
v -0.209529 -0.082848 -0.395777
v -0.177517 -0.104790 -0.186248
v -0.177517 0.151327 0.186143
v 0.186248 0.058024 0.320108
v -0.186248 0.151327 -0.419058
v -0.209529 0.151327 -0.395777
v 0.186248 0.151327 -0.419058
v 0.209529 -0.082938 -0.395777
v 0.186248 -0.082848 -0.419058
v -0.209529 0.174608 0.395663
v -0.209529 0.174608 -0.395777
v -0.177517 0.151327 -0.395777
v 0.186248 0.034743 -0.395777
v -0.186248 -0.104765 -0.395777
v -0.186248 -0.104765 -0.186248
v -0.177517 -0.104798 -0.395777
v 0.186248 0.034743 0.186242
v -0.177517 -0.082848 -0.395777
v -0.209529 -0.082848 -0.419058
v 0.186248 0.011373 0.267726
v 0.186248 -0.082848 -0.395777
v 0.209529 -0.106219 -0.419058
v 0.186248 -0.106219 -0.419058
v -0.186248 0.168788 -0.395777
v -0.209529 0.151327 -0.419058
v -0.177517 0.151327 -0.186248
v 0.203711 0.069576 0.314288
v -0.209529 -0.104765 -0.395777
v -0.186248 -0.082848 -0.419058
v 0.197889 0.011373 0.267726
v 0.197889 0.069576 0.267726
v 0.203711 0.069576 0.267726
v 0.186248 0.058024 0.267726
v 0.186248 -0.082938 -0.395777
v 0.209529 -0.106219 -0.395777
v 0.186248 -0.106219 -0.395777
v -0.186248 -0.104765 -0.419058
v -0.177517 0.034743 -0.186248
v -0.209529 -0.104765 -0.419058
v 0.203711 0.011373 0.267726
v 0.203711 0.057935 0.267726
v 0.197889 0.057935 0.267726
v -0.177517 0.092946 -0.186248
v 0.203711 0.069576 0.291007
v 0.186248 -0.000267 -0.267732
v 0.186248 0.005553 -0.267732
v 0.186248 0.011373 -0.267732
v 0.186248 0.168788 0.395663
v 0.186248 0.168788 -0.395777
vt 0.000000 0.000000
vt 0.000000 0.000000
vt 0.000000 0.000000
vt 0.000000 0.000000
vt 0.000000 0.000000
vt 0.000000 0.000000
vt 0.000000 0.000000
vt 0.000000 0.000000
vt 0.000000 0.000000
vt 0.000000 0.000000
vt 0.000000 0.000000
vt 0.000000 0.000000
vt 0.000000 0.000000
vt 0.000000 0.000000
vt 0.000000 0.000000
vt 0.000000 0.000000
vt 0.000000 0.000000
vt 0.000000 0.000000
vt 0.000000 0.000000
vt 0.000000 0.000000
vt 0.000000 0.000000
vt 0.000000 0.000000
vt 0.000000 0.000000
vt 0.000000 0.000000
vt 0.000000 0.000000
vt 0.000000 0.000000
vt 0.000000 0.000000
vt 0.000000 0.000000
vt 0.000000 0.000000
vt 0.000000 0.000000
vt 0.000000 0.000000
vt 0.000000 0.000000
vt 0.000000 0.000000
vt 0.000000 0.000000
vt 0.000000 0.000000
vt 0.000000 0.000000
vt 0.000000 0.000000
vt 0.000000 0.000000
vt 0.000000 0.000000
vt 0.000000 0.000000
vt 0.000000 0.000000
vt 0.000000 0.000000
vt 0.000000 0.000000
vt 0.000000 0.000000
vt 0.000000 0.000000
vt 0.000000 0.000000
vt 0.000000 0.000000
vt 0.000000 0.000000
vt 0.000000 0.000000
vt 0.000000 0.000000
vt 0.000000 0.000000
vt 0.000000 0.000000
vt 0.000000 0.000000
vt 0.000000 0.000000
vt 0.000000 0.000000
vt 0.000000 0.000000
vt 0.000000 0.000000
vt 0.000000 0.000000
vt 0.000000 0.000000
vt 0.000000 0.000000
vt 0.000000 0.000000
vt 0.000000 0.000000
vt 0.000000 0.000000
vt 0.000000 0.000000
vt 0.000000 0.000000
vt 0.000000 0.000000
vt 0.000000 0.000000
vt 0.000000 0.000000
vt 0.000000 0.000000
vt 0.000000 0.000000
vt 0.000000 0.000000
vt 0.000000 0.000000
vt 0.000000 0.000000
vt 0.000000 0.000000
vt 0.000000 0.000000
vt 0.000000 0.000000
vt 0.000000 0.000000
vt 0.000000 0.000000
vt 0.000000 0.000000
vt 0.000000 0.000000
vt 0.000000 0.000000
vt 0.000000 0.000000
vt 0.000000 0.000000
vt 0.000000 0.000000
vt 0.000000 0.000000
vt 0.000000 0.000000
vt 0.000000 0.000000
vt 0.000000 0.000000
vt 0.000000 0.000000
vt 0.000000 0.000000
vt 0.000000 0.000000
vt 0.000000 0.000000
vt 0.000000 0.000000
vt 0.000000 0.000000
vt 0.000000 0.000000
vt 0.000000 0.000000
vt 0.000000 0.000000
vt 0.000000 0.000000
vt 27.628960 0.333333
vt 27.545628 0.333333
vt 27.628960 1.166667
vt 27.628960 22.869043
vt 27.628960 22.785711
vt 27.545628 22.869068
vt -27.622593 1.166675
vt -27.539261 0.748730
vt -27.622593 0.333342
vt -27.622683 0.333337
vt -27.539349 0.333337
vt -27.622683 0.250004
vt -22.785711 1.166667
vt -22.785711 0.333333
vt -22.869068 1.166667
vt 22.869068 0.250000
vt 22.785711 0.333333
vt 22.785711 0.250000
vt 22.869068 0.333333
vt -27.545628 22.785711
vt -27.628960 22.869043
vt -27.628960 22.785711
vt -22.869068 0.957694
vt -22.869068 0.748722
vt -27.545628 22.869068
vt -27.628960 25.702379
vt -27.545628 23.619068
vt -27.545628 22.785711
vt -26.243544 22.869436
vt -26.212294 22.785711
vt -22.869455 1.229167
vt -22.869455 1.250000
vt -27.545628 24.952379
vt -22.869436 0.333333
vt -22.785711 0.250000
vt -22.785711 0.333333
vt -27.628960 1.166667
vt -27.545628 1.229167
vt -27.628960 1.250000
vt -26.212294 22.869455
vt -27.545628 25.702379
vt -24.952379 1.166667
vt -25.702379 1.229167
vt -23.619068 1.166667
vt -22.869434 0.250000
vt -25.702379 0.328451
vt -22.869455 0.832694
vt -25.702379 0.832694
vt -25.702379 1.041028
vt -27.545628 1.166667
vt -27.545628 1.250000
vt -22.785711 1.250000
vt -22.785711 1.166667
vt -22.869455 1.250000
vt -26.212294 25.702379
vt -22.869455 1.166667
vt -26.243544 23.619425
vt -26.243544 25.702379
vt -25.702379 1.166667
vt -23.619425 0.250000
vt 26.128960 22.785711
vt 26.128960 22.869455
vt 26.212294 22.785711
vt -26.212294 1.041028
vt -26.212294 0.832694
vt -27.545628 0.957694
vt -26.212294 1.166667
vt -25.785711 1.166667
vt -25.702379 1.166667
vt -22.869455 0.333333
vt -22.869455 1.166667
vt -22.785711 0.333333
vt -27.545628 25.785711
vt -27.628960 25.785711
vt 25.702379 0.328125
vt 25.702379 1.166667
vt 25.785711 0.328125
vt -25.785711 1.250000
vt -25.702379 1.250000
vt -25.702379 1.250000
vt -25.702379 1.229167
vt -25.785711 1.250000
vt -26.212294 25.785711
vt -26.128960 22.785711
vt -22.869455 1.229167
vt -26.243544 24.952379
vt -27.545628 0.749361
vt -22.869455 0.250000
vt -22.785711 0.250000
vt 26.237040 1.166667
vt 27.539124 0.748722
vt 27.539124 0.749361
vt -26.212294 0.328451
vt -26.243544 0.328451
vt -26.128960 1.166667
vt -22.785711 1.166667
vt -25.785711 1.166667
vt -26.212294 1.229167
vt -26.128960 1.250000
vt -26.212294 1.250000
vt -27.545628 0.328451
vt -26.212294 0.250000
vt -25.702379 0.250000
vt -25.702379 0.328450
vt -24.952379 0.250000
vt -25.785711 0.328451
vt -27.628960 0.328125
vt -27.545628 0.328125
vt 27.545628 0.328451
vt 26.212294 0.250000
vt 27.545628 0.244792
vt -25.702379 0.244792
vt -25.702379 0.749361
vt -25.702379 0.328451
vt -25.785711 0.250000
vt -26.128960 25.785711
vt -26.128960 25.702379
vt -25.785711 0.328451
vt -25.702379 0.328125
vt -27.545628 0.244792
vt -26.243544 0.249910
vt 27.545628 22.785711
vt 27.545628 0.250000
vt 26.212294 0.250000
vt -27.545628 22.869068
vt 26.212294 22.869436
vt -26.212294 22.785711
vt -26.212294 22.869434
vt -26.128960 22.785711
vt -26.206013 0.333592
vt -26.237261 0.250259
vt -26.206013 0.250259
vt -26.237261 0.333592
vt -26.128960 22.869455
vt -27.628960 0.244792
vt -7.595237 0.388889
vt -7.623152 0.416667
vt -7.623023 0.388889
vt -7.595237 0.416667
vt -7.623152 0.409722
vt -7.873022 0.388889
vt -9.181876 7.873022
vt -9.181876 8.567460
vt -8.747848 7.623145
vt -9.181876 0.416667
vt -8.737431 0.416667
vt -9.181876 0.409722
vt 8.709225 0.388982
vt 8.737003 0.347102
vt 8.737003 0.388982
vt -7.595237 0.111111
vt -7.623152 0.388889
vt -7.623145 0.111111
vt -7.623152 0.277565
vt 8.737003 0.277657
vt 8.709225 0.111204
vt 8.737003 0.111204
vt -7.713300 0.277458
vt -7.713300 0.291347
vt -7.713300 0.284403
vt -8.567460 0.409722
vt -8.567460 0.416667
vt 8.737003 0.409815
vt -7.720245 0.214852
vt -7.720245 0.221903
vt -7.720245 0.214958
vt -8.747848 7.873142
vt -8.747848 8.317460
vt -8.747848 8.567460
vt -7.873022 0.249574
vt -7.873022 0.319231
vt -7.873022 0.249787
vt -9.179711 0.111218
vt -8.735266 0.277672
vt -9.179711 0.249681
vt -9.179782 0.083377
vt -8.745754 0.111155
vt -9.179782 0.111155
vt -8.745754 0.083377
vt 0.000000 0.000000
vt 0.000000 0.000000
vt 0.000000 0.000000
vt 0.000000 0.000000
vt 0.000000 0.000000
vt -26.243544 1.166667
vt -11.434728 0.614583
vt -12.851189 0.625000
vt -12.851189 0.614583
vt 52.424587 2.830964
vt 52.257919 0.796998
vt 52.424587 0.796998
vn -1.0000 0.0000 0.0000
vn 1.0000 -0.0000 0.0000
vn 0.0000 -1.0000 -0.0000
vn 0.0000 -0.0000 1.0000
vn 0.0003 0.0000 -1.0000
vn 0.0000 1.0000 0.0000
vn -0.0003 -0.0000 1.0000
vn 0.0000 0.0000 -1.0000
vn -1.0000 -0.0009 0.0000
vn -0.0000 -1.0000 0.0017
vn 0.0010 1.0000 0.0000
vn 1.0000 -0.0005 0.0000
vn 0.0000 1.0000 -0.0017
vn -0.0800 -0.9968 -0.0000
vn -0.0010 -1.0000 0.0000
vn -0.1826 -0.9832 0.0000
vn 0.0029 1.0000 0.0000
vn 0.0038 1.0000 0.0000
vn -0.0039 -1.0000 0.0000
vn -0.0038 -1.0000 0.0000
vn 0.0927 0.9957 0.0000
vn -0.2892 -0.9573 0.0000
vn -0.0929 -0.9957 0.0000
s off
f 3/1/1 2/2/1 1/3/1
f 4/4/1 1/3/1 2/2/1
f 3/1/2 6/5/2 1/3/2
f 2/2/3 8/6/3 4/4/3
f 5/7/4 2/2/4 9/8/4
f 10/9/4 3/1/4 5/7/4
f 6/5/2 3/1/2 11/10/2
f 7/11/5 1/3/5 12/12/5
f 4/4/5 7/11/5 13/13/5
f 8/6/3 2/2/3 9/8/3
f 4/4/5 13/13/5 8/6/5
f 8/6/3 14/14/3 4/4/3
f 3/1/4 10/9/4 11/10/4
f 5/7/1 7/11/1 12/12/1
f 16/15/6 5/7/6 12/12/6
f 12/12/5 6/5/5 17/16/5
f 13/13/7 18/17/7 7/11/7
f 9/8/3 21/18/3 8/6/3
f 8/6/7 23/19/7 13/13/7
f 15/20/4 5/7/4 25/21/4
f 10/9/6 26/22/6 15/20/6
f 10/9/3 26/22/3 17/16/3
f 5/7/3 25/21/3 16/15/3
f 12/12/7 18/17/7 16/15/7
f 23/19/7 18/17/7 13/13/7
f 21/18/3 31/23/3 8/6/3
f 31/23/7 23/19/7 8/6/7
f 25/21/4 34/24/4 15/20/4
f 26/22/3 15/20/3 35/25/3
f 37/26/3 16/15/3 25/21/3
f 37/26/7 16/15/7 18/17/7
f 23/19/4 31/23/4 18/17/4
f 39/27/1 18/17/1 23/19/1
f 23/19/8 18/17/8 40/28/8
f 44/29/1 23/19/1 31/23/1
f 24/30/2 46/31/2 33/32/2
f 47/33/8 25/21/8 34/24/8
f 26/22/6 36/34/6 35/25/6
f 26/22/9 36/34/9 48/35/9
f 23/19/1 44/29/1 39/27/1
f 40/28/8 18/17/8 50/36/8
f 45/37/3 41/38/3 14/14/3
f 14/14/2 57/39/2 41/38/2
f 30/40/2 25/21/2 31/23/2
f 45/37/4 64/41/4 14/14/4
f 63/42/2 33/32/2 46/31/2
f 46/31/4 24/30/4 22/43/4
f 35/25/5 65/44/5 37/26/5
f 50/36/5 37/26/5 65/44/5
f 50/36/10 67/45/10 37/26/10
f 25/21/8 47/33/8 30/40/8
f 50/36/1 34/24/1 47/33/1
f 66/46/11 35/25/11 36/34/11
f 36/34/12 48/35/12 68/47/12
f 51/48/1 18/17/1 56/49/1
f 66/46/1 37/26/1 51/48/1
f 67/45/13 37/26/13 51/48/13
f 70/50/4 53/51/4 27/52/4
f 56/49/2 71/53/2 39/27/2
f 39/27/4 72/54/4 56/49/4
f 44/29/4 72/54/4 39/27/4
f 57/39/8 75/55/8 41/38/8
f 47/33/4 30/40/4 61/56/4
f 42/57/8 62/58/8 76/59/8
f 45/37/4 44/29/4 78/60/4
f 76/59/8 62/58/8 40/28/8
f 73/61/1 64/41/1 45/37/1
f 46/31/14 69/62/14 63/42/14
f 65/44/3 80/63/3 35/25/3
f 35/25/2 81/64/2 66/46/2
f 67/45/1 65/44/1 50/36/1
f 36/34/15 66/46/15 68/47/15
f 82/65/1 48/35/1 68/47/1
f 68/47/2 69/62/2 36/34/2
f 66/46/1 51/48/1 81/64/1
f 80/63/8 67/45/8 51/48/8
f 51/48/6 85/66/6 67/45/6
f 67/45/4 51/48/4 72/54/4
f 77/67/4 72/54/4 44/29/4
f 73/61/8 41/38/8 75/55/8
f 14/14/4 87/68/4 74/69/4
f 74/69/2 88/70/2 57/39/2
f 75/55/8 57/39/8 89/71/8
f 40/28/3 71/53/3 61/56/3
f 92/72/1 68/47/1 69/62/1
f 92/72/14 63/42/14 69/62/14
f 90/73/4 77/67/4 44/29/4
f 79/74/4 87/68/4 14/14/4
f 64/41/1 73/61/1 79/74/1
f 94/75/6 65/44/6 80/63/6
f 35/25/16 80/63/16 81/64/16
f 81/64/17 66/46/17 68/47/17
f 94/75/2 67/45/2 65/44/2
f 68/47/17 82/65/17 81/64/17
f 51/48/3 95/76/3 84/77/3
f 95/76/2 71/53/2 51/48/2
f 67/45/8 80/63/8 94/75/8
f 95/76/3 51/48/3 85/66/3
f 85/66/2 91/78/2 67/45/2
f 67/45/2 94/75/2 85/66/2
f 72/54/2 67/45/2 91/78/2
f 87/68/8 56/49/8 79/74/8
f 87/68/1 73/61/1 75/55/1
f 88/70/2 74/69/2 101/79/2
f 88/70/8 89/71/8 57/39/8
f 89/71/2 75/55/2 102/80/2
f 72/54/3 71/53/3 40/28/3
f 92/72/2 68/47/2 104/81/2
f 79/74/1 73/61/1 87/68/1
f 94/75/3 103/82/3 80/63/3
f 80/63/18 81/64/18 82/65/18
f 75/55/6 84/77/6 87/68/6
f 80/63/8 84/77/8 82/65/8
f 95/76/6 84/77/6 75/55/6
f 85/66/8 95/76/8 105/83/8
f 91/78/8 71/53/8 85/66/8
f 105/83/2 85/66/2 94/75/2
f 97/84/4 54/85/4 98/86/4
f 89/71/6 101/79/6 88/70/6
f 102/80/3 89/71/3 101/79/3
f 102/80/19 82/65/19 89/71/19
f 95/76/8 75/55/8 103/82/8
f 89/71/19 82/65/19 103/82/19
f 92/72/1 104/81/1 109/87/1
f 105/83/6 94/75/6 103/82/6
f 80/63/20 103/82/20 82/65/20
f 103/82/8 105/83/8 95/76/8
f 96/88/4 86/89/4 106/90/4
f 107/91/4 99/92/4 108/93/4
f 110/94/2 93/95/2 98/86/2
f 112/96/4 113/97/4 111/98/4
f 3/99/8 5/100/8 2/101/8
f 1/102/3 3/103/3 12/104/3
f 4/105/7 7/106/7 1/107/7
f 1/108/7 12/109/7 6/110/7
f 9/111/2 5/112/2 8/113/2
f 17/114/2 5/115/2 10/116/2
f 5/115/2 17/114/2 12/117/2
f 10/118/3 6/119/3 11/120/3
f 13/121/2 8/113/2 7/122/2
f 8/123/6 14/124/6 24/125/6
f 7/122/2 8/113/2 5/112/2
f 9/126/6 21/127/6 30/128/6
f 21/127/3 24/125/3 8/123/3
f 114/129/2 19/130/2 8/113/2
f 24/125/6 14/124/6 33/131/6
f 37/132/1 15/133/1 25/134/1
f 14/135/8 115/136/8 28/137/8
f 31/138/6 30/128/6 21/127/6
f 45/139/6 33/131/6 14/124/6
f 24/125/21 45/139/21 33/131/21
f 33/140/2 115/141/2 24/142/2
f 115/141/2 114/129/2 24/142/2
f 35/143/2 37/132/2 15/133/2
f 37/132/2 51/144/2 18/145/2
f 56/146/2 39/147/2 18/145/2
f 45/148/4 14/135/4 115/136/4
f 29/149/4 115/136/4 28/137/4
f 43/150/2 30/151/2 42/152/2
f 31/138/22 44/153/22 30/128/22
f 30/151/1 42/152/1 31/154/1
f 69/155/3 45/139/3 21/127/3
f 69/155/6 78/156/6 31/138/6
f 44/153/6 31/138/6 78/156/6
f 45/157/2 115/141/2 33/140/2
f 35/143/2 66/158/2 37/132/2
f 47/159/3 50/160/3 25/161/3
f 39/162/4 56/163/4 64/164/4
f 44/165/4 39/162/4 45/148/4
f 71/166/1 39/147/1 44/167/1
f 50/168/2 40/169/2 47/170/2
f 73/171/6 45/139/6 41/172/6
f 74/173/1 14/174/1 57/175/1
f 115/141/1 58/176/1 45/157/1
f 58/176/1 115/141/1 29/177/1
f 60/178/2 90/179/2 59/180/2
f 30/128/6 71/181/6 61/182/6
f 44/153/2 71/181/2 30/128/2
f 62/183/4 42/152/4 31/154/4
f 92/184/23 78/156/23 69/155/23
f 78/156/6 73/171/6 44/153/6
f 14/135/8 79/185/8 64/164/8
f 45/148/4 39/162/4 64/164/4
f 65/186/2 50/168/2 34/187/2
f 69/188/7 49/189/7 83/190/7
f 51/191/4 84/192/4 56/163/4
f 56/146/1 71/166/1 51/144/1
f 51/191/8 72/193/8 56/163/8
f 64/164/4 56/163/4 79/185/4
f 71/181/6 44/153/6 73/171/6
f 71/166/2 59/180/2 44/167/2
f 61/194/2 47/170/2 40/169/2
f 45/139/6 73/171/6 78/156/6
f 45/157/1 58/176/1 73/195/1
f 90/196/8 77/197/8 60/198/8
f 90/179/1 59/180/1 44/167/1
f 87/199/4 56/163/4 84/192/4
f 51/191/4 80/200/4 84/192/4
f 80/201/2 51/202/2 81/203/2
f 51/144/2 80/201/2 95/204/2
f 87/199/8 74/205/8 100/206/8
f 75/207/4 103/208/4 89/209/4
f 102/210/4 79/211/4 87/212/4
f 100/206/8 84/192/8 87/199/8
f 80/201/1 95/204/1 103/213/1
f 91/214/6 72/215/6 71/181/6
f 75/216/1 100/217/1 87/212/1
f 102/210/1 87/212/1 100/217/1
f 100/217/1 75/216/1 102/210/1
f 102/218/4 100/206/4 82/219/4
f 84/192/4 82/219/4 100/206/4
f 3/103/6 12/104/6 5/220/6
f 10/221/8 15/222/8 5/100/8
f 17/223/6 10/118/6 6/119/6
f 50/160/6 25/161/6 37/224/6
f 15/225/6 35/226/6 34/227/6
f 37/228/5 26/229/5 35/230/5
f 26/229/5 37/228/5 16/231/5
f 31/154/2 44/167/2 62/183/2
f 65/232/6 34/227/6 35/226/6
f 90/179/2 62/183/2 44/167/2
f 101/233/8 100/206/8 74/205/8
f 100/206/8 101/233/8 102/218/8
f 9/234/1 19/235/1 8/236/1
f 19/235/1 9/234/1 20/237/1
f 8/236/1 114/238/1 24/239/1
f 24/240/6 45/241/6 21/242/6
f 19/243/4 42/244/4 114/245/4
f 40/246/4 23/247/4 31/248/4
f 25/249/1 31/250/1 37/251/1
f 37/251/1 31/250/1 18/252/1
f 18/253/7 50/254/7 37/255/7
f 27/256/1 32/257/1 53/258/1
f 115/259/2 29/260/2 114/238/2
f 40/246/4 31/248/4 62/261/4
f 52/262/4 38/263/4 55/264/4
f 69/265/6 45/241/6 92/266/6
f 78/267/6 92/266/6 45/241/6
f 49/268/4 22/269/4 83/270/4
f 12/271/5 18/272/5 7/273/5
f 17/274/5 16/275/5 12/276/5
f 16/275/5 17/274/5 26/277/5
f 29/278/1 114/279/1 19/280/1
f 29/278/4 60/281/4 115/282/4
f 42/57/8 114/279/8 62/58/8
f 42/57/2 62/58/2 60/281/2
f 90/73/4 115/282/4 60/281/4
f 31/138/3 69/155/3 21/127/3
f 115/136/4 90/196/4 45/148/4
f 44/165/4 78/283/4 90/196/4
f 45/148/4 90/196/4 78/283/4
f 62/284/1 60/285/1 90/286/1
f 90/73/6 114/279/6 115/282/6
f 114/279/6 90/73/6 62/58/6
f 71/287/4 85/288/4 95/289/4
