# Blender v2.91.0 OBJ File: 'model.blend'
# www.blender.org
o top_mesh1_mesh1-geometry.005
v 0.209529 0.151327 0.419058
v 0.209529 0.151327 0.395778
v 0.209529 0.174608 0.419058
v 0.186248 0.151327 0.419058
v 0.209529 0.174608 0.395663
v 0.209529 0.151327 -0.395777
v 0.186248 0.174608 0.395663
v 0.186248 0.174608 0.419058
v 0.209529 0.174608 -0.395777
v 0.186248 0.174608 -0.395777
v -0.186248 0.151327 0.419058
v -0.209529 0.151327 0.395663
v 0.209529 0.151327 -0.419058
v -0.186248 0.174608 0.395663
v -0.186248 0.174608 0.419058
v 0.209529 0.174608 -0.419058
v 0.186248 0.174608 -0.419058
v -0.186248 0.174608 -0.419058
v -0.186248 0.174608 -0.395777
v -0.209529 0.151327 0.419058
v -0.186248 0.151327 -0.419058
v -0.209529 0.151327 -0.395777
v 0.186248 0.151327 -0.419058
v -0.209529 0.174608 0.395663
v -0.209529 0.174608 -0.395777
v -0.209529 0.174608 -0.419058
v -0.209529 0.174608 0.419058
v -0.209529 0.151327 -0.419058
vt 0.000000 0.000000
vt 0.000000 0.000000
vt 0.000000 0.000000
vt 0.000000 0.000000
vt 0.000000 0.000000
vt 0.000000 0.000000
vt 0.000000 0.000000
vt 0.000000 0.000000
vt 0.000000 0.000000
vt 0.000000 0.000000
vt 0.000000 0.000000
vt 0.000000 0.000000
vt 0.000000 0.000000
vt 0.000000 0.000000
vt 0.000000 0.000000
vt 0.000000 0.000000
vt 0.000000 0.000000
vt 0.000000 0.000000
vt 0.000000 0.000000
vt 0.000000 0.000000
vt 0.000000 0.000000
vt 0.000000 0.000000
vt 0.000000 0.000000
vt 0.000000 0.000000
vt 0.000000 0.000000
vt 0.000000 0.000000
vt 0.000000 0.000000
vt 27.628960 1.166667
vt 27.545628 1.166667
vt 27.628960 1.250000
vt 22.869043 1.166667
vt 22.869455 1.250000
vt 25.702379 1.166667
vt 25.702379 1.250000
vt 27.545628 22.785711
vt 27.545628 22.869455
vt 27.628960 22.785711
vt 27.545628 25.702379
vt 27.628960 22.869455
vt 25.785711 1.166667
vt 27.628960 25.702379
vt 26.212294 22.869455
vt 26.212294 1.250000
vt 27.545628 1.250000
vt 26.212294 1.166667
vt 25.785711 1.250000
vt 26.128960 1.166667
vt 26.212294 1.250000
vt 26.128960 1.250000
vt -22.785711 1.250000
vt -22.785711 1.166667
vt -22.869455 1.250000
vt 11.649908 11.423279
vt 12.242501 10.164203
vt 12.242501 11.423279
vt 11.649908 10.164203
vn 1.0000 0.0000 0.0000
vn 0.0000 1.0000 0.0000
vn 0.0000 0.0000 1.0000
vn 0.0000 -1.0000 0.0000
vn 0.0000 0.0000 -1.0000
vn -1.0000 0.0000 0.0000
s off
f 2/1/1 3/2/1 1/3/1
f 3/2/1 2/1/1 5/4/1
f 7/5/2 3/2/2 5/4/2
f 4/6/3 3/2/3 8/7/3
f 8/7/3 11/8/3 4/6/3
f 10/9/4 17/10/4 9/11/4
f 8/7/2 14/12/2 15/13/2
f 10/9/2 18/14/2 19/15/2
f 11/8/5 20/16/5 15/13/5
f 13/17/5 23/18/5 16/19/5
f 16/19/4 9/11/4 17/10/4
f 18/14/2 10/9/2 17/10/2
f 24/20/2 15/13/2 14/12/2
f 25/21/2 14/12/2 19/15/2
f 18/14/4 19/15/4 26/22/4
f 20/16/3 15/13/3 27/23/3
f 23/18/3 16/19/3 17/10/3
f 18/14/5 17/10/5 21/24/5
f 27/23/4 24/20/4 15/13/4
f 14/12/2 25/21/2 24/20/2
f 19/15/2 26/22/2 25/21/2
f 25/21/6 12/25/6 24/20/6
f 20/16/6 24/20/6 12/25/6
f 23/18/5 21/24/5 17/10/5
f 21/24/5 28/26/5 18/14/5
f 12/25/6 25/21/6 22/27/6
f 25/21/1 22/27/1 26/22/1
f 28/26/1 26/22/1 22/27/1
f 1/28/5 4/29/5 3/30/5
f 2/31/6 5/32/6 6/33/6
f 9/34/6 6/33/6 5/32/6
f 8/35/4 7/36/4 3/37/4
f 7/36/4 10/38/4 5/39/4
f 6/33/6 9/34/6 13/40/6
f 9/41/4 5/39/4 10/38/4
f 7/36/4 8/35/4 14/42/4
f 15/43/5 8/44/5 11/45/5
f 16/46/6 13/40/6 9/34/6
f 28/47/3 18/48/3 26/49/3
f 27/50/1 20/51/1 24/52/1
f 19/53/2 7/54/2 10/55/2
f 7/54/2 19/53/2 14/56/2
