# Blender v2.91.0 OBJ File: 'model.blend'
# www.blender.org
mtllib seat.mtl
o mesh1_mesh1-geometry
v -0.202611 -0.019557 -0.175210
v -0.200346 -0.024539 0.175210
v -0.202611 -0.019558 0.175210
v -0.200346 -0.024539 -0.175210
v 0.226940 -0.019558 0.175210
v -0.204628 -0.014447 -0.175210
v 0.224674 -0.024539 -0.175210
v 0.224674 -0.024539 0.175210
v 0.228956 -0.014448 0.175210
v -0.204628 -0.014448 0.175210
v 0.228956 -0.014447 -0.175210
v 0.226940 -0.019557 -0.175210
v -0.206390 -0.009225 -0.175210
v 0.230717 -0.009225 -0.175210
v 0.230717 -0.009225 0.175210
v -0.206390 -0.009225 0.175210
v -0.207890 -0.003905 -0.175210
v 0.232219 -0.003905 -0.175210
v 0.232219 -0.003905 0.175210
v -0.207890 -0.003905 0.175210
v -0.209127 0.001497 -0.175210
v 0.233455 0.001497 -0.175210
v 0.233455 0.001497 0.175210
v -0.209127 0.001497 0.175210
v -0.210095 0.006966 -0.175210
v 0.234423 0.006966 -0.175210
v 0.234423 0.006966 0.175210
v -0.210095 0.006966 0.175210
v -0.210791 0.012483 -0.175210
v 0.235120 0.012483 0.175210
v -0.210791 0.012483 0.175210
v 0.235120 0.012483 -0.175210
v -0.211215 0.018034 -0.175210
v 0.235542 0.018034 0.175210
v -0.211215 0.018034 0.175210
v 0.235542 0.018034 -0.175210
v -0.211363 0.023602 -0.175210
v 0.235692 0.023602 0.175210
v -0.211363 0.023602 0.175210
v 0.235692 0.023602 -0.175210
v -0.211246 0.025423 -0.175210
v 0.235574 0.025422 0.175210
v -0.211246 0.025422 0.175210
v 0.235574 0.025423 -0.175210
v -0.210961 0.027222 -0.175210
v 0.235290 0.027222 0.175210
v -0.210961 0.027222 0.175210
v 0.235290 0.027222 -0.175210
v -0.210513 0.028980 -0.175210
v 0.234842 0.028980 0.175210
v -0.210513 0.028980 0.175210
v 0.234842 0.028980 -0.175210
v -0.209905 0.030679 -0.175210
v 0.234233 0.030679 -0.175210
v 0.234233 0.030679 0.175210
v -0.209905 0.030679 0.175210
v -0.209142 0.032302 -0.175210
v 0.233471 0.032302 -0.175210
v 0.233471 0.032302 0.175210
v -0.209142 0.032302 0.175210
v -0.208235 0.033830 -0.175210
v 0.232563 0.033830 -0.175210
v 0.232563 0.033830 0.175210
v -0.208235 0.033830 0.175210
v -0.207190 0.035249 -0.175210
v 0.231519 0.035249 -0.175210
v 0.231519 0.035249 0.175210
v -0.207190 0.035249 0.175210
v -0.206021 0.036545 -0.175210
v 0.230349 0.036545 -0.175210
v 0.230349 0.036545 0.175210
v -0.206021 0.036545 0.175210
v -0.204738 0.037704 0.175210
v 0.229066 0.037704 -0.175210
v 0.229066 0.037704 0.175210
v -0.204738 0.037704 -0.175210
v -0.203354 0.038713 0.175210
v 0.227683 0.038713 0.175210
v 0.227683 0.038713 -0.175210
v -0.203354 0.038713 -0.175210
v -0.201886 0.039563 0.175210
v 0.226214 0.039563 0.175210
v 0.226214 0.039563 -0.175210
v -0.201886 0.039563 -0.175210
v -0.200346 0.040244 0.175210
v 0.224674 0.040244 0.175210
v 0.224674 0.040244 -0.175210
v -0.200346 0.040244 -0.175210
v -0.165004 0.043542 0.175210
v 0.189332 0.043542 0.175210
v 0.189332 0.043542 -0.175210
v -0.165004 0.043542 -0.175210
v -0.129621 0.046241 0.175210
v 0.153950 0.046241 0.175210
v 0.153950 0.046241 -0.175210
v -0.129621 0.046241 -0.175210
v -0.094204 0.048341 0.175210
v 0.118533 0.048341 0.175210
v 0.118533 0.048341 -0.175210
v -0.094204 0.048341 -0.175210
v -0.058763 0.049841 0.175210
v 0.083090 0.049841 0.175210
v 0.083090 0.049841 -0.175210
v -0.058763 0.049841 -0.175210
v -0.023303 0.050741 0.175210
v 0.047631 0.050741 0.175210
v 0.047631 0.050741 -0.175210
v -0.023303 0.050741 -0.175210
v 0.012164 0.051042 0.175210
v 0.012164 0.051042 -0.175210
vt 0.000000 0.000000
vt 0.000000 0.000000
vt 0.000000 0.000000
vt 0.000000 0.000000
vt 0.000000 0.000000
vt 0.000000 0.000000
vt 0.000000 0.000000
vt 0.000000 0.000000
vt 0.000000 0.000000
vt 0.000000 0.000000
vt 0.000000 0.000000
vt 0.000000 0.000000
vt 0.000000 0.000000
vt 0.000000 0.000000
vt 0.000000 0.000000
vt 0.000000 0.000000
vt 0.000000 0.000000
vt 0.000000 0.000000
vt 0.000000 0.000000
vt 0.000000 0.000000
vt 0.000000 0.000000
vt 0.000000 0.000000
vt 0.000000 0.000000
vt 0.000000 0.000000
vt 0.000000 0.000000
vt 0.000000 0.000000
vt 0.000000 0.000000
vt 0.000000 0.000000
vt 0.000000 0.000000
vt 0.000000 0.000000
vt 0.000000 0.000000
vt 0.000000 0.000000
vt 0.000000 0.000000
vt 0.000000 0.000000
vt 0.000000 0.000000
vt 0.000000 0.000000
vt 0.000000 0.000000
vt 0.000000 0.000000
vt 0.000000 0.000000
vt 0.000000 0.000000
vt 0.000000 0.000000
vt 0.000000 0.000000
vt 0.000000 0.000000
vt 0.000000 0.000000
vt 0.000000 0.000000
vt 0.000000 0.000000
vt 0.000000 0.000000
vt 0.000000 0.000000
vt 0.000000 0.000000
vt 0.000000 0.000000
vt 0.000000 0.000000
vt 0.000000 0.000000
vt 0.000000 0.000000
vt 0.000000 0.000000
vt 0.000000 0.000000
vt 0.000000 0.000000
vt 0.000000 0.000000
vt 0.000000 0.000000
vt 0.000000 0.000000
vt 0.000000 0.000000
vt 0.000000 0.000000
vt 0.000000 0.000000
vt 0.000000 0.000000
vt 0.000000 0.000000
vt 0.000000 0.000000
vt 0.000000 0.000000
vt 0.000000 0.000000
vt 0.000000 0.000000
vt 0.000000 0.000000
vt 0.000000 0.000000
vt 0.000000 0.000000
vt 0.000000 0.000000
vt 0.000000 0.000000
vt 0.000000 0.000000
vt 0.000000 0.000000
vt 0.000000 0.000000
vt 0.000000 0.000000
vt 0.000000 0.000000
vt 0.000000 0.000000
vt 0.000000 0.000000
vt 0.000000 0.000000
vt 0.000000 0.000000
vt 0.000000 0.000000
vt 0.000000 0.000000
vt 0.000000 0.000000
vt 0.000000 0.000000
vt 0.000000 0.000000
vt 0.000000 0.000000
vt 0.000000 0.000000
vt 0.000000 0.000000
vt 0.000000 0.000000
vt 0.000000 0.000000
vt 0.000000 0.000000
vt 0.000000 0.000000
vt 0.000000 0.000000
vt 0.000000 0.000000
vt 0.000000 0.000000
vt 0.000000 0.000000
vt 0.000000 0.000000
vt 0.000000 0.000000
vt 0.000000 0.000000
vt 0.000000 0.000000
vt 0.000000 0.000000
vt 0.000000 0.000000
vt 0.000000 0.000000
vt 0.000000 0.000000
vt 0.000000 0.000000
vt 0.000000 0.000000
vt 0.000000 0.000000
vt 0.000000 0.000000
vn 0.9206 0.3906 0.0000
vn 0.9103 0.4139 0.0000
vn 0.9172 0.3984 0.0000
vn 0.0000 0.0000 1.0000
vn 0.9302 0.3672 0.0000
vn 0.0000 0.0000 -1.0000
vn 0.0000 1.0000 0.0000
vn -0.9302 -0.3671 -0.0000
vn 0.0000 -1.0000 -0.0000
vn 0.9103 -0.4140 -0.0000
vn -0.9206 0.3906 0.0000
vn -0.9363 0.3513 0.0000
vn -0.9239 0.3827 0.0000
vn 0.9475 0.3197 0.0000
vn -0.9103 0.4140 0.0000
vn -0.9392 0.3433 0.0000
vn -0.9475 -0.3197 -0.0000
vn 0.9476 -0.3195 -0.0000
vn -0.9476 0.3195 0.0000
vn 0.9625 0.2714 0.0000
vn 0.9668 0.2554 0.0000
vn -0.9624 0.2717 0.0000
vn 0.9689 0.2473 0.0000
vn 0.9689 -0.2474 -0.0000
vn 0.9624 -0.2717 -0.0000
vn 0.9709 -0.2393 -0.0000
vn 0.9748 0.2232 0.0000
vn 0.9748 -0.2231 -0.0000
vn -0.9748 -0.2232 -0.0000
vn 0.9847 0.1743 0.0000
vn 0.9874 0.1580 0.0000
vn -0.9847 0.1743 0.0000
vn 0.9899 0.1415 0.0000
vn 0.9847 -0.1743 -0.0000
vn 0.9921 0.1252 0.0000
vn -0.9921 0.1253 0.0000
vn 0.9921 -0.1253 -0.0000
vn -0.9971 -0.0762 -0.0000
vn -0.9982 -0.0596 -0.0000
vn -0.9971 0.0758 0.0000
vn -0.9982 0.0595 0.0000
vn -0.9987 -0.0514 -0.0000
vn -0.9991 0.0433 0.0000
vn -0.9996 -0.0266 -0.0000
vn -0.9999 0.0140 -0.0000
vn 0.9996 0.0266 0.0000
vn -1.0000 -0.0093 -0.0000
vn -0.9979 0.0641 0.0000
vn -0.9955 -0.0952 -0.0000
vn 0.9979 -0.0641 -0.0000
vn -0.9921 -0.1256 -0.0000
vn -0.9877 0.1564 0.0000
vn -0.9824 0.1867 0.0000
vn -0.9825 -0.1864 -0.0000
vn -0.9762 0.2169 0.0000
vn -0.9762 -0.2167 -0.0000
vn -0.9690 0.2469 0.0000
vn -0.9690 -0.2469 -0.0000
vn 0.9415 -0.3369 -0.0000
vn 0.9303 -0.3667 -0.0000
vn 0.9415 -0.3370 -0.0000
vn 0.9413 0.3374 0.0000
vn 0.9181 -0.3963 -0.0000
vn -0.9244 -0.3815 -0.0000
vn -0.9413 -0.3374 -0.0000
vn 0.9050 -0.4255 -0.0000
vn -0.9052 -0.4250 -0.0000
vn 0.9052 0.4250 0.0000
vn -0.8600 0.5104 0.0000
vn -0.8597 -0.5108 -0.0000
vn 0.8597 0.5108 0.0000
vn 0.8053 -0.5929 -0.0000
vn 0.7853 -0.6191 -0.0000
vn -0.8055 -0.5926 -0.0000
vn 0.7749 -0.6320 -0.0000
vn 0.7749 0.6321 -0.0000
vn 0.8055 0.5926 0.0000
vn 0.7643 0.6449 0.0000
vn 0.7424 -0.6700 -0.0000
vn 0.7421 0.6703 0.0000
vn -0.6954 0.7187 0.0000
vn -0.7424 0.6700 0.0000
vn -0.7073 0.7069 0.0000
vn -0.6704 0.7420 0.0000
vn -0.6704 -0.7420 -0.0000
vn 0.6704 0.7420 0.0000
vn 0.5892 -0.8080 -0.0000
vn -0.5894 -0.8078 -0.0000
vn -0.5891 0.8080 0.0000
vn 0.5894 0.8078 0.0000
vn 0.5012 -0.8653 -0.0000
vn -0.5009 -0.8655 -0.0000
vn 0.5009 0.8655 0.0000
vn 0.4535 0.8912 0.0000
vn 0.4374 0.8993 0.0000
vn -0.4044 0.9146 0.0000
vn 0.4044 0.9146 0.0000
vn 0.0929 -0.9957 -0.0000
vn -0.0929 -0.9957 -0.0000
vn -0.0929 0.9957 0.0000
vn 0.0929 0.9957 0.0000
vn 0.0761 -0.9971 -0.0000
vn -0.0761 -0.9971 -0.0000
vn -0.0761 0.9971 0.0000
vn -0.0676 0.9977 -0.0000
vn -0.0649 0.9979 0.0000
vn 0.0761 0.9971 0.0000
vn -0.0592 0.9982 0.0000
vn -0.0592 -0.9982 -0.0000
vn 0.0592 0.9982 0.0000
vn 0.0423 -0.9991 -0.0000
vn -0.0423 -0.9991 -0.0000
vn -0.0423 0.9991 0.0000
vn -0.0338 0.9994 0.0000
vn 0.0423 0.9991 0.0000
vn -0.0254 0.9997 0.0000
vn -0.0254 -0.9997 -0.0000
vn 0.0254 -0.9997 -0.0000
vn 0.0254 0.9997 0.0000
vn -0.0085 1.0000 0.0000
vn -0.0085 -1.0000 -0.0000
vn 0.0085 -1.0000 -0.0000
vn 0.0085 1.0000 0.0000
usemtl material_0_24
s 1
f 3/1/1 2/2/2 1/3/3
f 4/4/2 1/3/3 2/2/2
f 2/2/4 5/5/4 3/1/4
f 1/3/3 6/6/5 3/1/1
f 1/3/6 7/7/6 4/4/6
f 4/4/7 2/2/7 7/7/7
f 5/5/4 2/2/4 8/8/4
f 9/9/6 5/5/6 3/1/6
f 6/6/8 3/1/8 10/10/8
f 11/11/6 1/3/6 6/6/6
f 7/7/6 1/3/6 12/12/6
f 2/2/9 7/7/9 8/8/9
f 7/7/10 5/5/10 8/8/10
f 5/5/11 9/9/12 12/12/13
f 10/10/6 9/9/6 3/1/6
f 6/6/14 13/13/14 10/10/14
f 11/11/4 1/3/4 12/12/4
f 14/14/4 6/6/4 11/11/4
f 12/12/13 7/7/15 5/5/11
f 11/11/16 12/12/13 9/9/12
f 15/15/6 9/9/6 10/10/6
f 13/13/17 10/10/17 16/16/17
f 13/13/4 6/6/4 14/14/4
f 15/15/18 11/11/18 14/14/18
f 9/9/12 15/15/19 11/11/16
f 10/10/4 15/15/4 16/16/4
f 13/13/20 17/17/21 16/16/20
f 14/14/6 13/13/6 18/18/6
f 15/15/22 19/19/22 14/14/22
f 19/19/6 15/15/6 16/16/6
f 20/20/23 16/16/20 17/17/21
f 18/18/6 13/13/6 17/17/6
f 19/19/24 14/14/25 18/18/26
f 16/16/4 19/19/4 20/20/4
f 17/17/21 21/21/27 20/20/23
f 18/18/6 17/17/6 22/22/6
f 18/18/26 23/23/28 19/19/24
f 23/23/6 19/19/6 20/20/6
f 21/21/29 20/20/29 24/24/29
f 21/21/4 17/17/4 22/22/4
f 23/23/28 18/18/26 22/22/28
f 20/20/4 23/23/4 24/24/4
f 21/21/30 25/25/31 24/24/30
f 22/22/6 21/21/6 26/26/6
f 23/23/32 27/27/32 22/22/32
f 24/24/4 23/23/4 27/27/4
f 28/28/33 24/24/30 25/25/31
f 25/25/4 21/21/4 26/26/4
f 27/27/34 22/22/34 26/26/34
f 28/28/6 27/27/6 24/24/6
f 25/25/31 29/29/35 28/28/33
f 26/26/6 25/25/6 29/29/6
f 27/27/36 30/30/36 26/26/36
f 28/28/4 27/27/4 30/30/4
f 31/31/35 28/28/33 29/29/35
f 32/32/4 29/29/4 26/26/4
f 30/30/37 26/26/37 32/32/37
f 31/31/6 30/30/6 28/28/6
f 31/31/38 33/33/39 29/29/38
f 33/33/4 29/29/4 32/32/4
f 30/30/40 34/34/41 32/32/40
f 31/31/4 30/30/4 34/34/4
f 33/33/39 31/31/38 35/35/42
f 36/36/4 33/33/4 32/32/4
f 36/36/43 32/32/40 34/34/41
f 35/35/6 34/34/6 31/31/6
f 35/35/42 37/37/44 33/33/39
f 37/37/4 33/33/4 36/36/4
f 34/34/41 38/38/45 36/36/43
f 35/35/4 34/34/4 38/38/4
f 39/39/46 35/35/46 37/37/46
f 40/40/4 37/37/4 36/36/4
f 40/40/47 36/36/43 38/38/45
f 39/39/6 38/38/6 35/35/6
f 39/39/48 41/41/48 37/37/48
f 41/41/4 37/37/4 40/40/4
f 38/38/45 42/42/49 40/40/47
f 39/39/4 38/38/4 42/42/4
f 43/43/50 39/39/50 41/41/50
f 44/44/4 41/41/4 40/40/4
f 44/44/51 40/40/47 42/42/49
f 43/43/6 42/42/6 39/39/6
f 43/43/52 45/45/53 41/41/52
f 45/45/4 41/41/4 44/44/4
f 42/42/49 46/46/54 44/44/51
f 43/43/4 42/42/4 46/46/4
f 45/45/53 43/43/52 47/47/55
f 48/48/4 45/45/4 44/44/4
f 48/48/56 44/44/51 46/46/54
f 47/47/6 46/46/6 43/43/6
f 47/47/55 49/49/57 45/45/53
f 49/49/4 45/45/4 48/48/4
f 46/46/54 50/50/58 48/48/56
f 47/47/4 46/46/4 50/50/4
f 49/49/57 47/47/55 51/51/57
f 52/52/4 49/49/4 48/48/4
f 52/52/58 48/48/56 50/50/58
f 51/51/6 50/50/6 47/47/6
f 49/49/59 53/53/60 51/51/61
f 54/54/4 49/49/4 52/52/4
f 52/52/62 55/55/62 50/50/62
f 55/55/6 50/50/6 51/51/6
f 56/56/63 51/51/61 53/53/60
f 54/54/6 49/49/6 53/53/6
f 54/54/64 52/52/65 55/55/64
f 51/51/4 55/55/4 56/56/4
f 53/53/60 57/57/66 56/56/63
f 54/54/6 53/53/6 58/58/6
f 55/55/64 59/59/67 54/54/64
f 56/56/4 55/55/4 59/59/4
f 60/60/66 56/56/63 57/57/66
f 57/57/4 53/53/4 58/58/4
f 59/59/68 54/54/68 58/58/68
f 60/60/6 59/59/6 56/56/6
f 60/60/69 61/61/69 57/57/69
f 62/62/4 57/57/4 58/58/4
f 59/59/70 63/63/70 58/58/70
f 63/63/6 59/59/6 60/60/6
f 61/61/69 60/60/69 64/64/69
f 62/62/6 57/57/6 61/61/6
f 63/63/71 58/58/71 62/62/71
f 64/64/6 63/63/6 60/60/6
f 61/61/72 65/65/73 64/64/72
f 62/62/6 61/61/6 66/66/6
f 63/63/74 67/67/74 62/62/74
f 67/67/6 63/63/6 64/64/6
f 68/68/75 64/64/72 65/65/73
f 66/66/6 61/61/6 65/65/6
f 67/67/76 62/62/77 66/66/78
f 64/64/4 67/67/4 68/68/4
f 65/65/73 69/69/79 68/68/75
f 66/66/6 65/65/6 70/70/6
f 66/66/78 71/71/80 67/67/76
f 71/71/6 67/67/6 68/68/6
f 69/69/81 68/68/82 72/72/83
f 69/69/4 65/65/4 70/70/4
f 71/71/80 66/66/78 70/70/80
f 72/72/6 71/71/6 68/68/6
f 73/73/84 69/69/81 72/72/83
f 74/74/4 69/69/4 70/70/4
f 70/70/85 71/71/85 74/74/85
f 75/75/6 71/71/6 72/72/6
f 69/69/81 73/73/84 76/76/84
f 73/73/6 75/75/6 72/72/6
f 74/74/6 69/69/6 76/76/6
f 71/71/86 74/74/86 75/75/86
f 73/73/87 76/76/87 77/77/87
f 73/73/4 75/75/4 78/78/4
f 79/79/4 76/76/4 74/74/4
f 74/74/88 75/75/88 79/79/88
f 76/76/89 77/77/89 80/80/89
f 77/77/6 78/78/6 73/73/6
f 75/75/90 79/79/90 78/78/90
f 79/79/6 76/76/6 80/80/6
f 77/77/91 80/80/91 81/81/91
f 77/77/4 78/78/4 82/82/4
f 79/79/92 78/78/92 83/83/92
f 79/79/6 80/80/6 83/83/6
f 84/84/91 81/81/91 80/80/91
f 81/81/6 82/82/6 77/77/6
f 78/78/93 83/83/94 82/82/95
f 84/84/4 80/80/4 83/83/4
f 85/85/96 84/84/96 81/81/96
f 86/86/6 82/82/6 81/81/6
f 87/87/97 82/82/95 83/83/94
f 83/83/6 84/84/6 87/87/6
f 84/84/96 85/85/96 88/88/96
f 85/85/6 86/86/6 81/81/6
f 82/82/95 87/87/97 86/86/97
f 88/88/4 84/84/4 87/87/4
f 85/85/98 88/88/98 89/89/98
f 85/85/4 86/86/4 90/90/4
f 87/87/99 86/86/99 91/91/99
f 92/92/4 88/88/4 87/87/4
f 88/88/100 89/89/100 92/92/100
f 85/85/4 90/90/4 89/89/4
f 86/86/101 91/91/101 90/90/101
f 87/87/6 92/92/6 91/91/6
f 89/89/102 92/92/102 93/93/102
f 89/89/4 90/90/4 94/94/4
f 91/91/103 90/90/103 95/95/103
f 95/95/4 92/92/4 91/91/4
f 92/92/104 93/93/105 96/96/106
f 89/89/4 94/94/4 93/93/4
f 90/90/107 95/95/107 94/94/107
f 96/96/4 92/92/4 95/95/4
f 97/97/108 96/96/106 93/93/105
f 98/98/6 94/94/6 93/93/6
f 95/95/109 94/94/109 99/99/109
f 100/100/4 96/96/4 95/95/4
f 96/96/106 97/97/108 100/100/108
f 93/93/4 98/98/4 97/97/4
f 94/94/110 99/99/110 98/98/110
f 95/95/6 100/100/6 99/99/6
f 97/97/111 100/100/111 101/101/111
f 97/97/4 98/98/4 102/102/4
f 99/99/112 98/98/112 103/103/112
f 104/104/4 100/100/4 99/99/4
f 100/100/113 101/101/114 104/104/114
f 101/101/6 102/102/6 97/97/6
f 98/98/115 103/103/115 102/102/115
f 99/99/6 104/104/6 103/103/6
f 105/105/116 104/104/114 101/101/114
f 106/106/6 102/102/6 101/101/6
f 103/103/117 102/102/117 107/107/117
f 103/103/6 104/104/6 108/108/6
f 108/108/118 105/105/118 104/104/118
f 105/105/6 106/106/6 101/101/6
f 102/102/119 107/107/119 106/106/119
f 103/103/6 108/108/6 107/107/6
f 109/109/120 108/108/120 105/105/120
f 109/109/6 106/106/6 105/105/6
f 107/107/121 106/106/121 110/110/121
f 107/107/6 108/108/6 110/110/6
f 110/110/122 109/109/122 108/108/122
f 106/106/123 110/110/123 109/109/123
