# Blender v2.91.0 OBJ File: 'model_modified.blend'
# www.blender.org
mtllib tabletop.mtl
o tabletop_model_normalized
v 0.232257 0.018324 0.246183
v 0.232257 0.018324 0.232257
v 0.246183 0.018324 0.232257
v 0.246183 0.018324 0.246183
v -0.232257 0.018324 -0.246183
v -0.246183 0.018324 -0.246183
v -0.246183 0.018324 -0.232257
v -0.232257 0.018324 -0.232257
v -0.301511 0.053139 0.174078
v -0.336292 0.018324 0.090109
v -0.301511 0.018324 0.174078
v -0.336292 0.053139 0.090109
v 0.301511 0.018324 0.174078
v -0.246183 0.053139 0.246183
v 0.336292 0.053139 0.090109
v -0.348155 0.018324 0.000000
v 0.336292 0.018324 0.090109
v -0.246183 0.018324 0.246183
v 0.301511 0.053139 0.174078
v 0.348155 0.053139 0.000000
v -0.348155 0.053139 0.000000
v -0.174078 0.018324 0.301511
v 0.246183 0.053139 0.246183
v -0.336292 0.018324 -0.090109
v 0.348155 0.018324 0.000000
v 0.174078 0.018324 0.301511
v -0.174078 0.053139 0.301511
v 0.336292 0.053139 -0.090109
v -0.336292 0.053139 -0.090109
v 0.336292 0.018324 -0.090109
v 0.174078 0.053139 0.301511
v -0.090109 0.018324 0.336292
v 0.090109 0.018324 0.336292
v -0.301511 0.018324 -0.174078
v 0.090109 0.053139 0.336292
v -0.090109 0.053139 0.336292
v 0.301511 0.053139 -0.174078
v -0.301511 0.053139 -0.174078
v 0.301511 0.018324 -0.174078
v 0.000000 0.018324 0.348155
v 0.000000 0.053139 0.348155
v 0.246183 0.053139 -0.246183
v -0.246183 0.053139 -0.246183
v 0.246183 0.018324 -0.246183
v -0.174078 0.053139 -0.301511
v -0.174078 0.018324 -0.301511
v 0.174078 0.053139 -0.301511
v 0.174078 0.018324 -0.301511
v -0.090109 0.053139 -0.336292
v 0.090109 0.053139 -0.336292
v 0.090109 0.018324 -0.336292
v -0.090109 0.018324 -0.336292
v 0.000000 0.053139 -0.348155
v 0.000000 0.018324 -0.348155
v 0.232257 0.018324 -0.232257
v 0.246183 0.018324 -0.232257
v 0.232257 0.018324 -0.246183
v -0.232257 0.018324 0.232257
v -0.232257 0.018324 0.246183
v -0.246183 0.018324 0.232257
vt 10.088500 0.752941
vt 10.088500 0.752941
vt 10.088500 0.752941
vt 10.088500 0.752941
vt 10.088500 0.752941
vt 10.088500 0.752941
vt 10.088500 0.752941
vt 10.088500 0.752941
vt 10.088500 0.752941
vt 10.088500 0.752941
vt 10.088500 0.752941
vt 10.088500 0.752941
vt 10.088500 0.752941
vt 10.088500 0.752941
vt 10.088500 0.752941
vt 10.088500 0.752941
vt 10.088500 0.752941
vt 10.088500 0.752941
vt 10.088500 0.752941
vt 10.088500 0.752941
vt 10.088500 0.752941
vt 10.088500 0.752941
vt 10.088500 0.752941
vt 10.088500 0.752941
vt 10.088500 0.752941
vt 10.088500 0.752941
vt 10.088500 0.752941
vt 10.088500 0.752941
vt 10.088500 0.752941
vt 10.088500 0.752941
vt 10.088500 0.752941
vt 10.088500 0.752941
vt 9.827460 0.602353
vt 10.088500 0.602353
vt 9.827460 0.752941
vt 9.403020 0.602353
vt 9.664070 0.752941
vt 9.403020 0.752941
vt 9.825850 3.976810
vt 9.584670 3.826370
vt 9.584670 6.735520
vt 9.834330 0.752941
vt 9.573280 0.602353
vt 9.834330 0.602353
vt -10.033000 6.345770
vt -9.825850 6.585080
vt -9.825850 3.976810
vt 9.664070 0.602353
vt 9.825850 6.585080
vt 10.033000 4.216130
vt 9.325850 6.786830
vt 9.573280 0.752941
vt -9.584670 3.826370
vt -9.584670 6.735520
vt -9.325850 3.775060
vt -7.143410 0.752941
vt -7.404460 0.602353
vt -7.143410 0.602353
vt -5.133310 0.602353
vt -5.394370 0.602353
vt -5.133310 0.752941
vt 8.589940 0.602353
vt 8.328880 0.752941
vt 8.328880 0.602353
vt 10.033000 6.345770
vt 9.325850 3.775060
vt -8.918850 0.752941
vt -8.657800 0.752941
vt -8.918850 0.602353
vt -7.404460 0.752941
vt 8.918850 0.752941
vt 8.657800 0.602353
vt 8.918850 0.602353
vt -5.394370 0.752941
vt 8.589940 0.752941
vt 10.191900 4.528000
vt 9.067030 6.735520
vt -8.657800 0.602353
vt 8.657800 0.752941
vt -9.067030 6.735520
vt -9.067030 3.826370
vt -9.325850 6.786830
vt -2.764500 0.752941
vt -2.764500 0.602353
vt -3.025550 0.752941
vt -3.025550 0.602353
vt 6.678250 0.602353
vt 6.678250 0.752941
vt 6.939310 0.602353
vt -10.291800 5.670700
vt -10.191900 6.033890
vt -10.191900 4.528000
vt 10.191900 6.033890
vt 9.067030 3.826370
vt -9.834330 0.752941
vt -9.573280 0.752941
vt -9.834330 0.602353
vt 7.404460 0.752941
vt 7.143410 0.602353
vt 7.404460 0.602353
vt -8.825850 3.976810
vt -9.573280 0.602353
vt -0.459441 0.752941
vt -0.198388 0.602353
vt -0.198388 0.752941
vt 6.939310 0.752941
vt -10.291800 4.891190
vt -0.459441 0.602353
vt 10.291800 4.891190
vt 8.825850 6.585080
vt 7.143410 0.752941
vt -8.825850 6.585080
vt -10.088500 0.602353
vt -9.827460 0.752941
vt -10.088500 0.752941
vt 10.291800 5.670700
vt 4.563620 0.602353
vt 4.563620 0.752941
vt 4.824670 0.602353
vt -10.325800 5.280940
vt 2.129080 0.752941
vt 2.390140 0.602353
vt 2.390140 0.752941
vt 8.825850 3.976810
vt 5.394370 0.752941
vt 5.133310 0.602353
vt 5.394370 0.602353
vt -9.827460 0.602353
vt 10.325800 5.280940
vt 4.824670 0.752941
vt 2.129080 0.602353
vt 8.618740 6.345770
vt 5.133310 0.752941
vt -8.618740 6.345770
vt -8.618740 4.216130
vt -9.664070 0.752941
vt -9.403020 0.752941
vt -9.664070 0.602353
vt 8.618740 4.216130
vt 3.025550 0.752941
vt 3.025550 0.602353
vt 2.764500 0.752941
vt -8.459820 4.528000
vt -9.403020 0.602353
vt 8.459820 6.033890
vt 2.764500 0.602353
vt 8.459820 4.528000
vt -8.328880 0.602353
vt -8.589940 0.752941
vt -8.589940 0.602353
vt -8.328880 0.752941
vt 0.198388 0.752941
vt 0.459441 0.602353
vt 0.459441 0.752941
vt 8.359920 5.670700
vt -6.939310 0.602353
vt -6.939310 0.752941
vt -6.678250 0.602353
vt 0.198388 0.602353
vt 8.359920 4.891190
vt -6.678250 0.752941
vt -2.390140 0.752941
vt -2.129080 0.602353
vt -2.129080 0.752941
vt 8.325850 5.280940
vt -4.824670 0.602353
vt -4.824670 0.752941
vt -4.563620 0.602353
vt -2.390140 0.602353
vt -4.563620 0.752941
vn 0.0000 -1.0000 -0.0000
vn 0.0000 1.0000 0.0000
vn -0.8660 -0.0000 0.5000
vn -0.9659 -0.0000 0.2588
vn 0.9659 -0.0000 -0.2588
vn 0.8660 0.0000 -0.5000
vn -0.7071 0.0000 0.7071
vn -1.0000 -0.0000 -0.0000
vn 0.7071 0.0000 -0.7071
vn 1.0000 -0.0000 0.0000
vn 0.9659 0.0000 0.2588
vn 0.8660 -0.0000 0.5000
vn -0.8660 -0.0000 -0.5000
vn -0.7071 0.0000 -0.7071
vn -0.5000 0.0000 0.8660
vn -0.9659 0.0000 -0.2588
vn -0.5000 0.0000 -0.8660
vn 0.5000 -0.0000 -0.8660
vn 0.2588 0.0000 -0.9659
vn 0.2588 0.0000 0.9659
vn 0.5000 -0.0000 0.8660
vn -0.2588 0.0000 -0.9659
vn -0.0000 0.0000 -1.0000
vn -0.0000 0.0000 1.0000
vn -0.2588 0.0000 0.9659
vn 0.7071 -0.0000 0.7071
usemtl material_0_24
s 1
f 2/1/1 3/2/1 1/3/1
f 3/2/2 1/3/2 4/4/2
f 6/5/1 5/6/1 7/7/1
f 8/8/1 7/7/1 5/6/1
f 56/9/1 55/10/1 44/11/1
f 55/10/2 44/11/2 57/12/2
f 58/13/2 18/14/2 59/15/2
f 18/14/2 58/13/2 60/16/2
usemtl material_2_24
f 10/17/1 13/18/1 11/19/1
f 10/17/1 17/20/1 13/18/1
f 11/19/1 4/4/1 18/14/1
f 16/21/1 25/22/1 17/20/1
f 18/14/1 4/4/1 26/23/1
f 18/14/1 26/23/1 22/24/1
f 6/5/1 39/25/1 34/26/1
f 46/27/1 48/28/1 44/11/1
f 46/27/1 51/29/1 48/28/1
f 52/30/1 51/29/1 46/27/1
f 51/29/1 52/30/1 54/31/1
usemtl material_1_1_8
f 9/32/3 10/33/4 11/34/3
f 12/35/5 9/32/6 10/33/5
f 11/36/3 14/37/7 9/38/3
f 9/39/1 12/40/1 15/41/1
f 12/42/4 16/43/8 10/44/4
f 4/45/2 13/46/2 11/47/2
f 18/48/9 11/36/6 14/37/9
f 19/49/2 9/39/2 14/50/2
f 15/41/1 12/40/1 20/51/1
f 15/41/2 9/39/2 19/49/2
f 21/52/10 12/42/5 16/43/10
f 10/53/2 17/54/2 16/55/2
f 15/56/11 13/57/12 17/58/11
f 13/59/13 4/60/14 19/61/13
f 22/62/15 14/63/7 18/64/7
f 23/65/1 14/50/1 19/49/1
f 12/40/1 21/66/1 20/51/1
f 15/67/16 20/68/8 17/69/16
f 13/57/12 15/56/11 19/70/12
f 21/71/8 24/72/16 16/73/8
f 23/74/14 19/61/13 4/60/14
f 14/63/7 22/62/15 27/75/15
f 27/76/1 14/50/1 23/65/1
f 20/51/1 21/66/1 28/77/1
f 20/68/10 17/69/11 25/78/10
f 29/79/11 21/71/10 24/72/11
f 16/55/2 30/80/2 24/81/2
f 25/82/2 30/80/2 16/55/2
f 23/83/14 4/84/14 31/85/17
f 26/86/17 31/85/17 4/84/14
f 22/87/18 27/88/18 32/89/19
f 33/90/2 26/91/2 22/92/2
f 23/65/2 27/76/2 31/93/2
f 21/66/1 29/94/1 28/77/1
f 20/95/8 28/96/4 25/97/8
f 29/98/16 34/99/13 24/100/16
f 24/81/2 30/80/2 34/101/2
f 28/96/5 25/97/10 30/102/5
f 35/103/20 26/104/21 31/105/21
f 36/106/19 32/89/19 27/88/18
f 32/107/2 33/90/2 22/92/2
f 33/108/22 35/103/22 26/104/17
f 31/93/2 27/76/2 36/109/2
f 37/110/2 29/94/2 28/77/2
f 38/111/12 29/98/11 34/99/12
f 30/80/2 39/112/2 34/101/2
f 30/113/5 37/114/6 28/115/5
f 31/93/2 36/109/2 35/116/2
f 32/117/19 36/118/19 40/119/23
f 40/120/2 33/90/2 32/107/2
f 41/121/24 33/122/20 35/123/20
f 37/110/2 38/124/2 29/94/2
f 38/125/13 6/126/14 34/127/13
f 39/128/3 30/113/4 37/114/3
f 35/116/2 36/109/2 41/129/2
f 36/118/25 40/119/24 41/130/24
f 33/122/20 41/121/24 40/131/24
f 42/132/2 38/124/2 37/110/2
f 43/133/26 38/125/12 6/126/26
f 39/112/2 44/134/2 6/135/2
f 37/136/3 42/137/7 39/138/3
f 42/132/2 43/139/2 38/124/2
f 43/140/26 6/141/26 45/142/21
f 6/135/2 44/134/2 46/143/2
f 42/137/9 39/138/6 44/144/9
f 47/145/2 43/139/2 42/132/2
f 46/146/21 45/142/21 6/141/26
f 43/139/1 45/147/1 47/145/1
f 48/148/18 42/149/9 44/150/9
f 47/151/15 48/148/15 42/149/7
f 49/152/22 46/153/17 45/154/17
f 50/155/2 45/147/2 47/145/2
f 48/156/15 47/157/15 51/158/25
f 46/153/17 49/152/22 52/159/22
f 50/155/2 49/160/2 45/147/2
f 47/157/18 51/158/19 50/161/19
f 53/162/23 52/163/22 49/164/22
f 49/160/2 50/155/2 53/165/2
f 51/166/25 50/167/25 54/168/24
f 54/169/24 53/162/24 52/163/20
f 53/170/24 54/168/24 50/167/25
