# Blender v2.91.0 OBJ File: 'model_modified.blend'
# www.blender.org
mtllib topleft_leg.mtl
o topleft_leg_model_normalized.003
v -0.232257 0.018324 -0.246183
v -0.246183 -0.120938 -0.246183
v -0.246183 0.018324 -0.246183
v -0.232257 -0.120938 -0.246183
v -0.246183 0.018324 -0.232257
v -0.232257 -0.120938 -0.232257
v -0.246183 -0.120938 -0.232257
v -0.232257 0.018324 -0.232257
vt 10.088500 0.752941
vt 10.088500 0.752941
vt 10.088500 0.752941
vt 10.088500 0.752941
vt 10.088500 0.752941
vt 10.088500 0.752941
vt 10.088500 0.752941
vt 10.088500 0.752941
vn 0.0000 0.0000 -1.0000
vn 1.0000 0.0000 0.0000
vn -1.0000 -0.0000 0.0000
vn 0.0000 -0.0000 1.0000
vn 0.0000 1.0000 0.0000
vn 0.0000 -1.0000 0.0000
usemtl material_0_24
s 1
f 1/1/1 2/2/1 3/3/1
f 2/2/1 1/1/1 4/4/1
f 3/3/2 5/5/2 2/2/2
f 4/4/3 6/6/3 1/1/3
f 5/5/3 2/2/3 7/7/3
f 6/6/2 1/1/2 8/8/2
f 6/6/4 5/5/4 7/7/4
f 5/5/4 6/6/4 8/8/4
usemtl material_2_24
f 4/4/5 2/2/5 6/6/5
f 2/2/6 6/6/6 7/7/6
