# Blender v2.91.0 OBJ File: 'model_modified.blend'
# www.blender.org
mtllib topright_leg.mtl
o topright_leg_model_normalized.004
v 0.246183 0.018324 -0.246183
v 0.246183 -0.120938 -0.232257
v 0.232257 0.018324 -0.232257
v 0.232257 -0.120938 -0.232257
v 0.246183 0.018324 -0.232257
v 0.232257 -0.120938 -0.246183
v 0.232257 0.018324 -0.246183
v 0.246183 -0.120938 -0.246183
vt 10.088500 0.752941
vt 10.088500 0.752941
vt 10.088500 0.752941
vt 10.088500 0.752941
vt 10.088500 0.752941
vt 10.088500 0.752941
vt 10.088500 0.752941
vt 10.088500 0.752941
vn 0.0000 -0.0000 1.0000
vn 0.0000 0.0000 -1.0000
vn 1.0000 0.0000 0.0000
vn -1.0000 -0.0000 0.0000
vn 0.0000 -1.0000 0.0000
vn 0.0000 1.0000 0.0000
usemtl material_0_24
s 1
f 2/1/1 3/2/1 4/3/1
f 5/4/2 2/1/2 3/2/2
f 4/3/3 6/5/3 3/2/3
f 5/4/4 1/6/4 2/1/4
f 7/7/3 3/2/3 6/5/3
f 8/8/4 2/1/4 1/6/4
f 1/6/2 6/5/2 7/7/2
f 8/8/1 1/6/1 6/5/1
usemtl material_2_24
f 6/5/5 2/1/5 4/3/5
f 8/8/6 6/5/6 2/1/6
