# Blender v2.83.3 OBJ File: 'armchair_sofa.blend'
# www.blender.org
o Right_Foot_SketchUp.014_ID137
v 0.171691 -0.211077 -0.324730
v 0.171691 -0.244702 -0.324730
v 0.139810 -0.244702 -0.324730
v 0.139810 -0.211077 -0.324730
v 0.139810 -0.211077 -0.236369
v 0.139810 -0.240557 -0.249657
v 0.139810 -0.211077 -0.324730
v 0.139810 -0.244702 -0.324730
v 0.171691 -0.244702 -0.324730
v 0.139810 -0.244702 -0.324730
v 0.171691 -0.240557 -0.249657
v 0.139810 -0.240557 -0.249657
v 0.139810 -0.240557 -0.249657
v 0.139810 -0.211077 -0.236369
v 0.171691 -0.240557 -0.249657
v 0.171691 -0.211077 -0.236369
v 0.171691 -0.211077 -0.236369
v 0.171691 -0.211077 -0.324730
v 0.171691 -0.240557 -0.249657
v 0.171691 -0.244702 -0.324730
v 0.139810 -0.240557 -0.249657
v 0.139810 -0.211077 -0.324730
v 0.139810 -0.244702 -0.324730
v 0.139810 -0.211077 -0.236369
v 0.139810 -0.244702 -0.324730
v 0.171691 -0.240557 -0.249657
v 0.139810 -0.240557 -0.249657
v 0.171691 -0.244702 -0.324730
v 0.139810 -0.211077 -0.236369
v 0.171691 -0.240557 -0.249657
v 0.171691 -0.211077 -0.236369
v 0.139810 -0.240557 -0.249657
v 0.171691 -0.211077 -0.324730
v 0.171691 -0.240557 -0.249657
v 0.171691 -0.244702 -0.324730
v 0.171691 -0.211077 -0.236369
v 0.171691 -0.211077 -0.324730
v 0.139810 -0.211077 -0.236369
v 0.171691 -0.211077 -0.236369
v 0.139810 -0.211077 -0.324730
v 0.139810 -0.211077 -0.324730
v 0.171691 -0.211077 -0.324730
v 0.139810 -0.211077 -0.236369
v 0.171691 -0.211077 -0.236369
vt 1.710937 0.145354
vt 1.710937 -0.022185
vt 1.552083 -0.022185
vt 1.552083 0.145354
vt -4.936024 0.145354
vt -5.002230 -0.001531
vt -5.376292 0.145354
vt -5.376292 -0.022185
vt 1.710937 -5.369338
vt 1.552083 -5.369338
vt 1.710937 -4.994706
vt 1.552083 -4.994706
vt 1.552083 -2.056916
vt 1.552083 -1.895800
vt 1.710938 -2.056916
vt 1.710938 -1.895800
vt 4.936024 0.145354
vt 5.376292 0.145354
vt 5.002230 -0.001531
vt 5.376292 -0.022185
vt 5.376292 -1.552083
vt 5.376292 -1.710937
vt 4.936024 -1.552083
vt 4.936024 -1.710937
vt -5.002230 -0.001531
vt -5.376292 0.145354
vt -5.376292 -0.022185
vt -4.936024 0.145354
vt 1.552083 -5.369338
vt 1.710937 -4.994706
vt 1.552083 -4.994706
vt 1.710937 -5.369338
vt 1.552083 -1.895800
vt 1.710938 -2.056916
vt 1.710938 -1.895800
vt 1.552083 -2.056916
vt 5.376292 0.145354
vt 5.002230 -0.001531
vt 5.376292 -0.022185
vt 4.936024 0.145354
vt 10.752580 -3.421875
vt 9.872048 -3.104167
vt 9.872048 -3.421875
vt 10.752580 -3.104167
vn 0.0000 0.0000 -1.0000
vn 1.0000 0.0000 0.0000
vn 0.0000 0.9985 -0.0551
vn 0.0000 0.4109 -0.9117
vn -1.0000 0.0000 0.0000
vn 0.0000 -1.0000 0.0000
vn 0.0000 -0.9985 0.0551
vn 0.0000 -0.4109 0.9117
vn 0.0000 1.0000 0.0000
s off
f 1/1/1 2/2/1 3/3/1
f 4/4/1 1/1/1 3/3/1
f 5/5/2 6/6/2 7/7/2
f 8/8/2 7/7/2 6/6/2
f 9/9/3 10/10/3 11/11/3
f 12/12/3 11/11/3 10/10/3
f 13/13/4 14/14/4 15/15/4
f 16/16/4 15/15/4 14/14/4
f 17/17/5 18/18/5 19/19/5
f 20/20/5 19/19/5 18/18/5
f 41/21/6 42/22/6 43/23/6
f 44/24/6 43/23/6 42/22/6
f 21/25/5 22/26/5 23/27/5
f 22/26/5 21/25/5 24/28/5
f 25/29/7 26/30/7 27/31/7
f 26/30/7 25/29/7 28/32/7
f 29/33/8 30/34/8 31/35/8
f 30/34/8 29/33/8 32/36/8
f 33/37/2 34/38/2 35/39/2
f 34/38/2 33/37/2 36/40/2
f 37/41/9 38/42/9 39/43/9
f 38/42/9 37/41/9 40/44/9
