# Blender v2.83.3 OBJ File: 'armchair_sofa.blend'
# www.blender.org
o Left_Foot_SketchUp.011_ID108
v 0.171691 -0.211077 0.214158
v 0.148695 -0.211077 0.324731
v 0.171691 -0.211077 0.324731
v 0.148695 -0.211077 0.214158
v 0.148695 -0.211077 0.214158
v 0.171691 -0.211077 0.214158
v 0.148695 -0.211077 0.324731
v 0.171691 -0.211077 0.324731
v 0.148695 -0.211077 0.214158
v 0.148695 -0.239749 0.222343
v 0.171691 -0.211077 0.214158
v 0.171691 -0.239749 0.222343
v 0.171691 -0.239749 0.222343
v 0.148695 -0.239749 0.222343
v 0.171691 -0.238822 0.324731
v 0.148695 -0.238822 0.324731
v 0.148695 -0.239749 0.222343
v 0.171691 -0.211077 0.214158
v 0.171691 -0.239749 0.222343
v 0.148695 -0.211077 0.214158
v 0.148695 -0.239749 0.222343
v 0.171691 -0.238822 0.324731
v 0.148695 -0.238822 0.324731
v 0.171691 -0.239749 0.222343
v 0.148695 -0.211077 0.324731
v 0.148695 -0.238822 0.324731
v 0.171691 -0.211077 0.324731
v 0.171691 -0.238822 0.324731
v 0.171691 -0.211077 0.324731
v 0.171691 -0.238822 0.324731
v 0.171691 -0.211077 0.214158
v 0.171691 -0.239749 0.222343
v 0.148695 -0.238822 0.324731
v 0.148695 -0.211077 0.214158
v 0.148695 -0.239749 0.222343
v 0.148695 -0.211077 0.324731
v 0.148695 -0.211077 0.324731
v 0.148695 -0.238822 0.324731
v 0.148695 -0.211077 0.214158
v 0.148695 -0.239749 0.222343
vt 5.382465 -3.421875
vt 4.280588 -3.192708
vt 4.280588 -3.421875
vt 5.382465 -3.192708
vt 2.691232 -1.596354
vt 2.691232 -1.710937
vt 2.140294 -1.596354
vt 2.140294 -1.710938
vt -1.596354 0.729923
vt -1.710938 0.878489
vt -1.710938 0.729923
vt -1.596354 0.878489
vt 1.596354 -2.650321
vt 1.710937 -2.140142
vt 1.596354 -2.140142
vt 1.710937 -2.650321
vt -2.140294 0.007113
vt -2.691232 0.145354
vt -2.650452 0.002494
vt -2.140294 0.145354
vt -2.140294 0.145354
vt -2.140294 0.007113
vt -2.691232 0.145354
vt -2.650452 0.002494
vt -1.596354 0.878489
vt -1.596354 0.729923
vt -1.710938 0.878489
vt -1.710938 0.729923
vt 1.710937 -2.650321
vt 1.596354 -2.650321
vt 1.710937 -2.140142
vt 1.596354 -2.140142
vt -1.596354 0.145354
vt -1.596354 0.007113
vt -1.710938 0.145354
vt -1.710938 0.007113
vt -2.140294 0.145354
vt -2.140294 0.007113
vt -2.691232 0.145354
vt -2.650452 0.002494
vn 0.0000 1.0000 0.0000
vn 0.0000 -1.0000 0.0000
vn 0.0000 -0.2745 -0.9616
vn 0.0000 -1.0000 0.0091
vn -1.0000 -0.0000 0.0000
vn 1.0000 0.0000 0.0000
vn 0.0000 0.2745 0.9616
vn 0.0000 1.0000 -0.0091
vn 0.0000 0.0000 1.0000
s off
f 1/1/1 2/2/1 3/3/1
f 2/2/1 1/1/1 4/4/1
f 5/5/2 6/6/2 7/7/2
f 8/8/2 7/7/2 6/6/2
f 17/9/3 18/10/3 19/11/3
f 18/10/3 17/9/3 20/12/3
f 21/13/4 22/14/4 23/15/4
f 22/14/4 21/13/4 24/16/4
f 33/17/5 34/18/5 35/19/5
f 34/18/5 33/17/5 36/20/5
f 37/21/6 38/22/6 39/23/6
f 40/24/6 39/23/6 38/22/6
f 9/25/7 10/26/7 11/27/7
f 12/28/7 11/27/7 10/26/7
f 13/29/8 14/30/8 15/31/8
f 16/32/8 15/31/8 14/30/8
f 25/33/9 26/34/9 27/35/9
f 28/36/9 27/35/9 26/34/9
f 29/37/6 30/38/6 31/39/6
f 32/40/6 31/39/6 30/38/6
